<svg width="217" height="59" viewBox="0 0 217 59" fill="none" xmlns="http://www.w3.org/2000/svg">
<path d="M11.0881 44.476C10.7956 44.494 10.4813 44.5367 10.1449 44.6043C9.80787 44.6602 9.47702 44.7216 9.15238 44.7885C8.9206 44.8379 8.69431 44.8811 8.4735 44.9181C8.26439 44.9544 8.07247 44.9838 7.89774 45.0063C7.83164 45.2686 7.76375 45.5017 7.69407 45.7056C7.62438 45.9095 7.54849 46.1078 7.46639 46.3007C7.38501 46.5053 7.30984 46.7154 7.24087 46.931C7.18288 47.1341 7.12597 47.3548 7.07013 47.593C6.96464 47.7874 6.87598 47.9689 6.80414 48.1377C6.74329 48.294 6.69556 48.4731 6.66097 48.6748C6.53136 48.8589 6.43757 49.0525 6.37958 49.2556C6.32088 49.4471 6.27828 49.614 6.2518 49.7566L6.19453 49.9714C6.12865 50.0459 6.0913 50.1069 6.08247 50.1544C6.07293 50.1902 6.04584 50.2271 6.0012 50.265C5.99739 50.3944 5.96435 50.5256 5.90205 50.6586C5.88225 50.7185 5.86829 50.778 5.86018 50.8372C5.85135 50.8847 5.84765 50.9202 5.84909 50.9436C5.85626 51.0606 5.83168 51.1384 5.77535 51.1771C5.79063 51.2348 5.79458 51.2991 5.78718 51.37C5.77907 51.4292 5.77096 51.4884 5.76285 51.5477C5.73637 51.6902 5.73148 51.802 5.7482 51.8832C5.78616 51.9278 5.81791 51.9669 5.84346 52.0006C5.8807 52.0335 5.90696 52.0789 5.92225 52.1367C5.9953 52.1791 6.04973 52.2052 6.08553 52.2147C6.13447 52.2469 6.20716 52.2836 6.30361 52.3246L6.47227 52.4904C6.55155 52.826 6.51542 53.0982 6.36385 53.3071C6.20203 53.5401 5.91058 53.6695 5.48949 53.6954L5.27895 53.7083C5.21688 53.6534 5.17892 53.6087 5.16507 53.5744C5.06935 53.545 4.99152 53.5204 4.93161 53.5006C4.87169 53.4808 4.81618 53.4373 4.76509 53.3699C4.60873 53.3091 4.48233 53.2581 4.38589 53.2171L4.2226 53.139C4.21471 53.0104 4.21041 52.9402 4.20969 52.9285C4.12136 52.8283 4.04985 52.7152 3.99517 52.5894C3.95219 52.4629 3.91506 52.3361 3.88378 52.2088C3.85393 52.105 3.81859 52.0074 3.77776 51.9159C3.74863 51.8238 3.70852 51.7441 3.65743 51.6768C3.59244 50.9998 3.62162 50.4227 3.74499 49.9455C3.86836 49.4683 3.99865 49.0083 4.13587 48.5655C4.2151 48.3258 4.29433 48.0861 4.37356 47.8464C4.45207 47.5951 4.51853 47.3386 4.57293 47.0769L4.72008 46.8918C4.79048 46.6996 4.84549 46.5436 4.8851 46.4238C4.93569 46.2915 4.98629 46.1593 5.03688 46.027C5.06695 45.943 5.09153 45.8652 5.11062 45.7936C5.14069 45.7096 5.16563 45.6376 5.18544 45.5777C5.11526 45.582 5.05128 45.5918 4.99352 45.607C4.93503 45.6106 4.87691 45.6201 4.81914 45.6353C4.74968 45.6513 4.68606 45.667 4.6283 45.6823C4.56981 45.6859 4.51133 45.6894 4.45284 45.693C4.37097 45.698 4.31212 45.6958 4.27632 45.6862C4.15124 45.7526 4.01267 45.7905 3.86061 45.7998L3.68516 45.8105C3.65007 45.8127 3.61498 45.8148 3.57989 45.817C3.55578 45.8067 3.53203 45.8023 3.50863 45.8038C3.39166 45.8109 3.29917 45.8342 3.23114 45.8736C3.09078 45.8822 2.95626 45.8905 2.8276 45.8984L2.65215 45.9091C2.62875 45.9105 2.59987 45.9182 2.5655 45.932C2.53041 45.9342 2.50116 45.936 2.47777 45.9374C2.39589 45.9424 2.30781 45.942 2.21352 45.936C2.11851 45.9184 2.01658 45.8835 1.90772 45.8315C1.75588 45.6529 1.65621 45.5593 1.60871 45.5504L1.43789 45.3496C1.42189 45.2801 1.4004 45.2168 1.37342 45.1598C1.34572 45.0911 1.31767 45.0165 1.28925 44.936C1.23529 44.8219 1.18097 44.702 1.1263 44.5762C1.0826 44.438 1.05501 44.2753 1.04354 44.0881C1.0495 43.9938 1.06859 43.9222 1.10081 43.8733C1.13303 43.8244 1.15976 43.7816 1.181 43.7451L1.2175 43.4787L1.44666 43.4822L1.93793 43.4521C2.31222 43.4292 2.69165 43.3942 3.07621 43.3471C3.46005 43.2883 3.85559 43.2289 4.26283 43.1687C4.49533 43.1309 4.72783 43.0932 4.96033 43.0555C5.20453 43.017 5.45458 42.9782 5.71047 42.939C5.7508 42.8309 5.79149 42.7286 5.83254 42.6321L6.00261 42.5337C6.21244 42.509 6.36044 42.5293 6.44662 42.5945C6.54378 42.6472 6.6234 42.7011 6.68547 42.7559C6.94136 42.7168 7.19726 42.6776 7.45315 42.6384C7.72003 42.5868 7.98654 42.5294 8.2527 42.4661C8.6468 42.3833 9.04127 42.3062 9.43609 42.2351C9.84261 42.1632 10.233 42.1157 10.6073 42.0928C10.7711 42.0828 10.9293 42.0789 11.0821 42.0813C11.2349 42.0837 11.3763 42.0926 11.5064 42.1081L11.6894 42.2202C11.7288 42.2882 11.7795 42.3497 11.8416 42.4046C11.9154 42.4587 11.9891 42.5129 12.0629 42.5671C12.2111 42.6872 12.3608 42.8306 12.512 42.9974C12.6631 43.1643 12.7315 43.4184 12.7172 43.7598C12.6322 43.9059 12.5671 43.992 12.5217 44.0183L12.3767 44.2385L12.2002 44.2317C12.13 44.236 12.0664 44.2517 12.0094 44.2787C11.9516 44.2939 11.8942 44.3151 11.8371 44.3421C11.7918 44.3683 11.7464 44.3946 11.7011 44.4208C11.655 44.4354 11.6031 44.4503 11.5453 44.4656C11.44 44.4721 11.3523 44.4774 11.2821 44.4818C11.2229 44.4736 11.1582 44.4717 11.0881 44.476ZM19.1158 50.7465C19.1578 51.0491 19.1382 51.3028 19.0568 51.5074C18.9754 51.7119 18.8571 51.8894 18.702 52.0398C18.5469 52.1902 18.3665 52.3128 18.161 52.4076C17.9555 52.5024 17.7554 52.591 17.5609 52.6734C17.4637 52.6206 17.3666 52.5679 17.2694 52.5151C17.1832 52.45 17.0806 52.4034 16.9615 52.3755C16.7922 52.1041 16.6309 51.8674 16.4777 51.6655C16.3237 51.4519 16.2439 51.2043 16.2384 50.9229C16.2377 50.9112 16.2396 50.8465 16.2441 50.7288C16.2603 50.6104 16.2758 50.4803 16.2906 50.3385C16.3171 50.196 16.3326 50.0659 16.3371 49.9482C16.3526 49.8181 16.36 49.7472 16.3593 49.7355C16.0917 49.7754 15.8146 49.8511 15.5279 49.9626C15.2412 50.0741 14.9615 50.2028 14.6886 50.3487C14.4275 50.4939 14.178 50.6383 13.9403 50.782C13.7143 50.9251 13.5281 51.048 13.3818 51.1509C13.3839 51.186 13.3659 51.2752 13.3277 51.4184C13.2888 51.5499 13.2389 51.6939 13.1781 51.8502C13.1165 51.9949 13.0484 52.1282 12.9737 52.2502C12.899 52.3722 12.8207 52.4357 12.7388 52.4407C12.7526 52.4751 12.7723 52.5091 12.7979 52.5428C12.8234 52.5764 12.8263 52.6232 12.8065 52.6831C12.6456 52.74 12.503 52.8074 12.3786 52.8855C12.255 52.9752 12.1244 53.0478 11.9869 53.1032C11.8501 53.1703 11.6999 53.2089 11.5361 53.2189C11.3724 53.229 11.1758 53.1823 10.9464 53.079C10.9421 53.0088 10.9092 52.9521 10.8479 52.9089C10.7858 52.854 10.7186 52.8112 10.6463 52.7804C10.5849 52.7372 10.5301 52.7053 10.4819 52.6848C10.433 52.6526 10.4078 52.6248 10.4064 52.6014C10.3486 52.6166 10.3227 52.5771 10.3286 52.4828C10.3346 52.3886 10.38 52.3623 10.4647 52.4041C10.326 52.2482 10.2355 52.1129 10.1933 51.998C10.162 51.8708 10.088 51.7168 9.97121 51.5362C9.99317 51.5113 10.0141 51.4689 10.0339 51.409C10.042 51.3498 10.0504 51.2965 10.0593 51.249C10.0681 51.2015 10.0835 51.1653 10.1054 51.1405C10.1274 51.1156 10.157 51.1197 10.1942 51.1526C10.1644 51.0488 10.159 50.9611 10.1781 50.8895C10.1972 50.8178 10.2166 50.7521 10.2365 50.6922C10.2563 50.6322 10.2702 50.5727 10.2783 50.5135C10.2864 50.4543 10.265 50.391 10.2139 50.3237C10.3852 50.0549 10.4912 49.7725 10.5317 49.4765C10.5716 49.1688 10.5898 48.8918 10.5865 48.6454C10.6633 48.5585 10.7263 48.4372 10.7755 48.2816C10.8363 48.1252 10.8796 47.97 10.9054 47.8157C10.9305 47.6498 10.9328 47.4971 10.9125 47.3574C10.9032 47.2054 10.8781 47.0836 10.8373 46.9922C10.8454 46.933 10.9087 46.9115 11.0271 46.9277C11.0736 46.5374 11.0938 46.1018 11.0878 45.6208C11.0928 45.1274 11.1171 44.6621 11.1607 44.225C11.2037 43.7762 11.297 43.3831 11.4406 43.0455C11.5836 42.6963 11.8331 42.4579 12.1893 42.3304C12.2745 42.5717 12.3755 42.7827 12.4923 42.9634C12.6207 43.1434 12.7546 43.3172 12.8941 43.4847C13.0445 43.6399 13.1894 43.8012 13.3288 43.9688C13.4799 44.1357 13.6208 44.3266 13.7514 44.5417C13.7533 44.7646 13.7457 45.0234 13.7285 45.318C13.7114 45.6125 13.6829 45.9137 13.643 46.2214C13.6149 46.5284 13.5802 46.824 13.5389 47.1083C13.5093 47.3919 13.4773 47.6346 13.4427 47.8363C13.458 47.894 13.4893 47.9273 13.5369 47.9362C13.5961 47.9443 13.611 47.9962 13.5816 48.0919C13.858 48.0045 14.1465 47.9223 14.4471 47.8451C14.7476 47.768 15.0478 47.685 15.3476 47.5962C15.6474 47.5074 15.9351 47.4134 16.2108 47.3143C16.4975 47.2028 16.7597 47.0752 16.9975 46.9315C17.028 46.4717 17.076 46.0109 17.1416 45.5489C17.2072 45.087 17.1903 44.6184 17.0907 44.1432C17.1463 44.0928 17.1895 44.0315 17.2203 43.9591C17.2511 43.8868 17.3067 43.8364 17.3871 43.808C17.315 43.5894 17.2773 43.3569 17.2739 43.1105C17.2705 42.8642 17.2971 42.6277 17.3537 42.4012C17.4219 42.1739 17.5216 41.9799 17.6526 41.8193C17.7946 41.6462 17.9695 41.5298 18.1771 41.4701C18.3173 41.6494 18.441 41.8473 18.5482 42.0638C18.6546 42.2686 18.7615 42.4792 18.8687 42.6957C18.9869 42.8998 19.1047 43.098 19.2222 43.2904C19.3506 43.4704 19.5068 43.6252 19.6909 43.7548C19.7468 44.0918 19.7917 44.4413 19.8256 44.8032C19.8713 45.1644 19.9114 45.5317 19.9461 45.9053C19.8797 46.3555 19.801 46.7948 19.7099 47.223C19.6297 47.6389 19.5806 48.0822 19.5625 48.5529C19.4863 48.6515 19.4284 48.7607 19.3888 48.8805C19.3492 49.0004 19.31 49.1261 19.2711 49.2576C19.2314 49.3774 19.186 49.4976 19.1347 49.6182C19.0826 49.727 19.0182 49.8249 18.9413 49.9118C18.9967 50.0493 19.0108 50.1835 18.9836 50.3143C18.9674 50.4327 19.0115 50.5767 19.1158 50.7465ZM29.8784 41.8797C29.8952 41.9609 29.8991 42.0252 29.8903 42.0727C29.8924 42.1078 29.8887 42.1432 29.8792 42.179C29.8813 42.2141 29.8839 42.2551 29.8867 42.3019C29.8889 42.337 29.9042 42.3947 29.9326 42.4752C29.7113 42.8879 29.4416 43.1804 29.1234 43.3525C28.8162 43.5122 28.4776 43.6387 28.1076 43.7318C27.7369 43.8132 27.3549 43.9012 26.9615 43.9958C26.5798 44.0896 26.2031 44.2654 25.8315 44.523C25.6758 44.4738 25.5355 44.4824 25.4104 44.5488C25.297 44.6145 25.1226 44.6428 24.8873 44.6337C24.8214 44.7082 24.7369 44.7662 24.6338 44.8078C24.5299 44.8376 24.4264 44.8733 24.3233 44.9148C24.3766 45.0172 24.4009 45.1273 24.3964 45.245C24.4029 45.3502 24.4258 45.4369 24.4652 45.5049C24.8767 45.5149 25.3267 45.4815 25.8151 45.4045C26.3152 45.3269 26.8046 45.2675 27.2835 45.2264C27.2988 45.2842 27.2954 45.3255 27.2735 45.3503C27.2508 45.3635 27.2467 45.3931 27.2613 45.4391C27.3468 45.4926 27.4333 45.5636 27.5209 45.6522C27.6078 45.729 27.6947 45.8059 27.7816 45.8827C27.8685 45.9596 27.9547 46.0247 28.0402 46.0782C28.1366 46.1193 28.243 46.1303 28.3592 46.1115C28.4117 46.2022 28.4474 46.3057 28.4663 46.4219C28.4962 46.5257 28.4913 46.6376 28.4517 46.7574C28.2724 46.8976 28.0935 47.0436 27.915 47.1954C27.7357 47.3355 27.544 47.4647 27.3399 47.5829C27.1475 47.7003 26.9365 47.8013 26.7069 47.8859C26.4882 47.958 26.2382 47.9968 25.9568 48.0023C25.8983 48.0059 25.8515 48.0088 25.8164 48.0109C25.793 48.0123 25.7568 47.9969 25.7079 47.9647C25.6179 48.0289 25.4845 48.0547 25.3076 48.0421C25.1424 48.0288 25.0148 48.0542 24.9248 48.1184C24.7926 48.0678 24.6332 48.0541 24.4468 48.0773C24.2714 48.088 24.112 48.0743 23.9688 48.0361C23.7967 48.2933 23.6432 48.5668 23.5084 48.8569C23.3735 49.1469 23.2573 49.4534 23.1597 49.7764C23.561 49.8105 23.8899 49.8138 24.1465 49.7864C24.4149 49.7582 24.6653 49.7252 24.8978 49.6875C25.1295 49.638 25.3675 49.5941 25.6117 49.5556C25.8552 49.5055 26.1645 49.4748 26.5395 49.4635C26.7655 49.3205 27.0354 49.2218 27.349 49.1673C27.6737 49.1004 27.9676 49.012 28.2309 48.9019C28.3267 48.9313 28.4125 48.9906 28.4884 49.0798C28.5636 49.1574 28.633 49.2353 28.6965 49.3136C28.7709 49.3795 28.8451 49.4395 28.9188 49.4937C28.9926 49.5479 29.0818 49.5659 29.1863 49.5478C29.236 49.5917 29.2688 49.6484 29.2848 49.7178C29.3118 49.7749 29.3329 49.8323 29.3482 49.8901C29.3635 49.9478 29.3842 49.9994 29.4105 50.0447C29.4478 50.0777 29.5011 50.0862 29.5706 50.0702C29.4188 50.4669 29.2324 50.7777 29.0114 51.0026C28.8013 51.2151 28.5533 51.3829 28.2673 51.5061C27.9814 51.6293 27.6589 51.7313 27.2999 51.812C26.9526 51.892 26.565 51.9862 26.1373 52.0946C26.0334 52.1245 25.9453 52.124 25.873 52.0932C25.8014 52.0741 25.7188 52.0675 25.6252 52.0732C25.3598 52.1482 25.0413 52.2205 24.6699 52.2903C24.2985 52.36 23.9194 52.4009 23.5327 52.4128C23.146 52.4248 22.7743 52.3948 22.4177 52.3227C22.0618 52.2624 21.7659 52.1279 21.53 51.9193C21.4314 51.8431 21.3613 51.7535 21.3198 51.6504C21.2892 51.5348 21.2078 51.4518 21.0756 51.4012C21.0545 51.2498 21.0207 51.0817 20.9742 50.8967C20.9276 50.7117 20.8807 50.5208 20.8334 50.3241C20.7854 50.1157 20.7436 49.9128 20.708 49.7154C20.6841 49.5173 20.6847 49.3353 20.7098 49.1694C20.7341 48.9918 20.7946 48.8296 20.8913 48.6828C20.9996 48.5352 21.0312 48.3806 20.9861 48.219C21.0439 48.2038 21.0772 48.1724 21.086 48.1249C21.0941 48.0657 21.1395 48.0394 21.2221 48.0461C21.2793 47.8312 21.3432 47.6277 21.4136 47.4356C21.484 47.2434 21.5547 47.0571 21.6258 46.8766C21.7087 46.6954 21.7856 46.5146 21.8567 46.3341C21.9388 46.1412 22.014 45.9311 22.0823 45.7039C21.9092 45.5619 21.7763 45.4056 21.6837 45.2352C21.602 45.0524 21.5383 44.8743 21.4924 44.701C21.4459 44.516 21.4051 44.3306 21.3703 44.1449C21.3347 43.9475 21.2816 43.7512 21.2109 43.5559C21.3171 43.3733 21.4488 43.2243 21.6061 43.109C21.7744 42.9813 21.9558 42.8762 22.1504 42.7939C22.3449 42.7115 22.5577 42.6397 22.7888 42.5786C23.0199 42.5175 23.2623 42.4498 23.516 42.3755C23.9745 42.1948 24.3826 42.0523 24.7402 41.9482C25.1095 41.8434 25.4681 41.7568 25.8162 41.6885C26.1752 41.6078 26.5462 41.5322 26.9294 41.4618C27.3125 41.3913 27.7468 41.2942 28.2323 41.1705C28.3441 41.2693 28.4467 41.3159 28.5403 41.3101C28.5806 41.202 28.6315 41.1695 28.6928 41.2127C28.7652 41.2435 28.7922 41.2066 28.7741 41.1021C28.9033 41.2938 29.0599 41.4544 29.2439 41.584C29.439 41.7012 29.6505 41.7998 29.8784 41.8797ZM38.2508 49.7492C37.8958 49.5127 37.5954 49.2082 37.3495 48.8359C37.1152 48.4628 36.9205 48.0638 36.7653 47.6389C36.6218 47.2133 36.5127 46.7738 36.4379 46.3205C36.3742 45.8548 36.3352 45.4111 36.3211 44.9893C36.407 44.667 36.5181 44.3725 36.6544 44.1059C36.7899 43.8275 36.9441 43.5656 37.1169 43.3202C37.289 43.0631 37.468 42.8232 37.6539 42.6005C37.8508 42.3653 38.0419 42.1305 38.2271 41.8961C38.2973 41.8918 38.3627 41.9054 38.4234 41.9369C38.4623 41.8054 38.5256 41.6899 38.6135 41.5906C38.7013 41.4913 38.7957 41.4033 38.8967 41.3267C38.9969 41.2384 39.0975 41.1559 39.1985 41.0793C39.2987 40.9909 39.3807 40.892 39.4445 40.7824C39.7326 40.6943 39.9838 40.5791 40.1981 40.4368C40.4242 40.2938 40.6378 40.1398 40.839 39.9748C41.0403 39.8098 41.248 39.6562 41.4624 39.5139C41.6767 39.3716 41.928 39.2564 42.2161 39.1683C42.3142 39.0449 42.4368 38.9376 42.5838 38.8464C42.7425 38.7545 42.8958 38.6688 43.0435 38.5892C43.203 38.509 43.3504 38.4237 43.4857 38.3332C43.6328 38.242 43.7488 38.1233 43.8337 37.9772C43.9096 38.0665 44.0112 38.0955 44.1384 38.0642C44.265 38.0212 44.3798 37.979 44.4829 37.9374C44.5524 37.9214 44.6116 37.9295 44.6605 37.9618C44.7094 37.994 44.7529 38.0324 44.7908 38.077C44.8398 38.1093 44.8763 38.1305 44.9004 38.1408C44.9362 38.1503 44.9692 38.1131 44.9992 38.029C45.0935 38.035 45.1194 38.0745 45.0769 38.1476C45.0462 38.2199 45.0256 38.2681 45.0154 38.2922C45.1309 38.2617 45.2259 38.2793 45.3004 38.3452C45.3859 38.3987 45.5112 38.4321 45.6764 38.4454C45.7385 38.5003 45.7589 38.546 45.7376 38.5825C45.7164 38.6191 45.7024 38.6786 45.6957 38.7612C46.1247 38.8641 46.4063 39.0523 46.5405 39.3258C46.6739 39.5877 46.7032 39.8735 46.6283 40.1834C46.5526 40.4815 46.394 40.7672 46.1525 41.0403C45.9219 41.301 45.6571 41.4816 45.358 41.5821C45.0011 41.6979 44.6677 41.8123 44.3576 41.9252C44.0592 42.0375 43.7674 42.161 43.4822 42.2959C43.2086 42.4301 42.9482 42.587 42.7009 42.7665C42.4646 42.9336 42.2593 43.1282 42.0851 43.3502C41.7633 43.4639 41.4729 43.6108 41.2139 43.7911C40.9667 43.9706 40.7321 44.167 40.5104 44.3801C40.3004 44.5926 40.0969 44.8164 39.9 45.0516C39.7023 45.275 39.5047 45.4985 39.3071 45.7219C39.3193 45.9208 39.2935 46.075 39.2298 46.1846C39.166 46.2941 39.0965 46.4041 39.021 46.5144C39.0581 46.7352 39.1167 46.9253 39.1969 47.0847C39.2881 47.2318 39.3797 47.3847 39.4716 47.5434C40.4245 47.7667 41.4237 47.8816 42.469 47.8879C43.5253 47.8819 44.5685 47.8531 45.5985 47.8017C45.7124 47.9356 45.8376 48.063 45.9741 48.1837C46.1217 48.2921 46.252 48.4074 46.3652 48.5296C46.49 48.6511 46.5871 48.7978 46.6563 48.9696C46.7366 49.1291 46.7663 49.3268 46.7456 49.5629C46.5589 49.774 46.3543 49.9802 46.1319 50.1817C45.9087 50.3715 45.6855 50.5613 45.4624 50.7511C45.3578 50.7693 45.2291 50.7772 45.0764 50.7748C44.9353 50.7717 44.7829 50.7752 44.6191 50.7852C44.4671 50.7945 44.3099 50.8159 44.1475 50.8493C43.9962 50.8704 43.8521 50.9144 43.7154 50.9815C42.977 51.0033 42.2172 50.9618 41.4359 50.8571C40.6539 50.7407 39.9285 50.5915 39.2599 50.4094C39.1219 50.2652 38.9788 50.1331 38.8305 50.0131C38.6816 49.8813 38.4883 49.7934 38.2508 49.7492ZM48.4665 50.0562C48.3672 49.9683 48.2902 49.8615 48.2355 49.7357C48.1925 49.6092 48.0925 49.5097 47.9354 49.4371C47.9012 49.2631 47.854 49.0664 47.7935 48.8471C47.7441 48.6153 47.6888 48.3838 47.6277 48.1528C47.5775 47.9093 47.5336 47.6713 47.4959 47.4388C47.4691 47.1939 47.4672 46.9709 47.4901 46.7699C47.507 46.6632 47.536 46.5617 47.577 46.4652C47.6298 46.3681 47.677 46.2771 47.7188 46.1924C47.7716 46.0952 47.8068 45.9991 47.8244 45.9041C47.8538 45.8084 47.8539 45.7144 47.8247 45.6223C47.8942 45.6063 47.933 45.5687 47.9411 45.5095C47.9602 45.4379 48.0172 45.4109 48.1123 45.4286C48.1784 45.1662 48.2514 44.921 48.3313 44.6931C48.4113 44.4651 48.4974 44.2426 48.5898 44.0256C48.6821 43.8086 48.7745 43.5916 48.8669 43.3746C48.9702 43.1452 49.0604 42.8931 49.1375 42.6184C48.9272 42.4434 48.7688 42.2535 48.6623 42.0487C48.5668 41.8315 48.4888 41.6132 48.4284 41.3938C48.368 41.1745 48.3193 40.9544 48.2823 40.7336C48.2445 40.5011 48.1834 40.27 48.0989 40.0404C48.2263 39.8212 48.3855 39.6412 48.5765 39.5004C48.7667 39.3478 48.9763 39.2234 49.2052 39.1272C49.4451 39.0186 49.704 38.9322 49.9818 38.8682C50.259 38.7925 50.5533 38.7099 50.8648 38.6204C51.4155 38.4105 51.9102 38.2451 52.3489 38.1243C52.7869 37.9918 53.2147 37.8834 53.6322 37.7991C54.049 37.7031 54.484 37.6177 54.9373 37.5429C55.3899 37.4565 55.9113 37.3423 56.5013 37.2005C56.5152 37.2348 56.5338 37.2513 56.5572 37.2499C56.5923 37.2477 56.6332 37.2452 56.68 37.2423C56.7201 37.3221 56.787 37.3591 56.8805 37.3533C56.8784 37.3182 56.8708 37.2893 56.8576 37.2667C56.8555 37.2316 56.8537 37.2023 56.8522 37.1789C56.8756 37.1775 56.9052 37.1816 56.941 37.1911C56.9885 37.1999 57.0244 37.2095 57.0485 37.2197C57.0843 37.2293 57.1135 37.2275 57.1362 37.2144C57.1582 37.1895 57.1615 37.1482 57.1462 37.0905C57.3016 37.3275 57.4955 37.5211 57.7278 37.6712C57.9593 37.8096 58.2132 37.9291 58.4894 38.0296C58.5076 38.1341 58.5122 38.2101 58.5034 38.2576C58.5063 38.3044 58.5033 38.3516 58.4945 38.3991C58.4849 38.4349 58.4819 38.482 58.4855 38.5405C58.4884 38.5873 58.5044 38.6568 58.5335 38.7489C58.3657 39.0762 58.1644 39.3351 57.9295 39.5256C57.7064 39.7154 57.4631 39.8653 57.1998 39.9754C56.9365 40.0855 56.6543 40.1732 56.353 40.2387C56.0635 40.3034 55.7626 40.3747 55.4504 40.4525C55.1491 40.518 54.8435 40.6071 54.5334 40.7201C54.2233 40.833 53.9219 40.9924 53.6293 41.1982C53.5336 41.1688 53.4451 41.1625 53.364 41.1792C53.2938 41.1835 53.2185 41.1999 53.138 41.2283C53.0576 41.2567 52.9655 41.2859 52.8616 41.3157C52.7695 41.3448 52.6525 41.352 52.5107 41.3372C52.4222 41.4248 52.3146 41.4901 52.1881 41.5331C52.0733 41.5754 51.9526 41.618 51.8261 41.661C51.8925 41.7861 51.9238 41.9133 51.92 42.0427C51.9279 42.1713 51.9522 42.2814 51.9931 42.3728C52.4872 42.3895 53.0311 42.3561 53.6248 42.2727C54.2177 42.1777 54.8 42.1009 55.3717 42.0423C55.387 42.1001 55.3837 42.1414 55.3617 42.1662C55.3398 42.1911 55.3306 42.2327 55.3342 42.2912C55.4437 42.3549 55.5485 42.4366 55.6486 42.5361C55.7486 42.6356 55.8486 42.7352 55.9487 42.8347C56.0597 42.9218 56.17 42.9972 56.2795 43.061C56.3884 43.113 56.5126 43.1288 56.6523 43.1085C56.7179 43.2219 56.7664 43.3422 56.7977 43.4695C56.829 43.5967 56.8197 43.7323 56.7698 43.8762C56.5452 44.0426 56.3268 44.2145 56.1146 44.3919C55.9017 44.5576 55.6764 44.7123 55.4386 44.856C55.2126 44.999 54.9617 45.1201 54.686 45.2192C54.4103 45.3183 54.1083 45.372 53.7801 45.3804C53.7216 45.384 53.669 45.3872 53.6222 45.3901C53.5871 45.3922 53.5389 45.3717 53.4775 45.3285C53.3641 45.3942 53.2077 45.4272 53.0081 45.4277C52.8195 45.4158 52.6627 45.443 52.5376 45.5094C52.3703 45.461 52.1755 45.4436 51.9532 45.4572C51.7427 45.4701 51.5538 45.4523 51.3864 45.4039C51.1945 45.7209 51.0154 46.0548 50.8491 46.4055C50.682 46.7444 50.5398 47.1054 50.4223 47.4883C50.9062 47.5291 51.3057 47.5339 51.6208 47.5029C51.9359 47.4718 52.2327 47.4301 52.5113 47.3778C52.7899 47.3255 53.0743 47.2728 53.3646 47.2198C53.6665 47.1661 54.0342 47.1318 54.4677 47.117C54.7516 46.9587 55.0792 46.8446 55.4506 46.7749C55.833 46.6928 56.1847 46.589 56.5058 46.4636C56.6249 46.4916 56.7286 46.5556 56.817 46.6559C56.9046 46.7445 56.9867 46.8392 57.0634 46.9402C57.151 47.0287 57.2379 47.1056 57.324 47.1707C57.4102 47.2359 57.5169 47.2528 57.6442 47.2216C57.7062 47.2765 57.7456 47.3445 57.7623 47.4257C57.7908 47.5061 57.813 47.581 57.829 47.6505C57.8567 47.7193 57.8895 47.7759 57.9275 47.8206C57.9647 47.8535 58.0297 47.8613 58.1226 47.8438C57.9283 48.3136 57.6984 48.68 57.4327 48.9428C57.1787 49.2049 56.8806 49.4169 56.5383 49.5788C56.207 49.7283 55.8271 49.8514 55.3986 49.9481C54.9811 50.0324 54.5121 50.1375 53.9915 50.2633C53.8642 50.2946 53.7531 50.3014 53.6581 50.2838C53.5741 50.2537 53.4853 50.2415 53.3917 50.2473C53.0678 50.3258 52.6795 50.4084 52.2269 50.4948C51.786 50.5805 51.3371 50.6316 50.8803 50.6478C50.4234 50.6641 49.9811 50.6325 49.5536 50.5531C49.1261 50.4736 48.7637 50.308 48.4665 50.0562ZM62.8418 49.8439C62.3314 49.9456 61.8621 49.9509 61.4338 49.8598C61.0056 49.7687 60.6143 49.6107 60.26 49.3858C59.9175 49.1603 59.613 48.8854 59.3465 48.5613C59.0918 48.2364 58.8766 47.8857 58.7008 47.509C58.5468 46.7201 58.5319 45.9989 58.6562 45.3456C58.7798 44.6805 58.9827 44.0634 59.2648 43.4943C59.5469 42.9252 59.8721 42.3886 60.2404 41.8847C60.6203 41.38 60.9838 40.894 61.3309 40.4265C61.4149 40.4566 61.4793 40.4527 61.5239 40.4147C61.5802 40.376 61.6241 40.3264 61.6556 40.2657C61.6988 40.2044 61.742 40.143 61.7852 40.0817C61.8401 40.0196 61.902 39.9747 61.9707 39.947C62.011 39.8389 62.0641 39.7476 62.13 39.6731C62.2076 39.5979 62.2855 39.5285 62.3638 39.465C62.4531 39.3891 62.5307 39.3139 62.5965 39.2394C62.6741 39.1642 62.7389 39.0722 62.7909 38.9633C62.9065 38.9328 63.0034 38.8857 63.0817 38.8222C63.1717 38.758 63.2496 38.6887 63.3155 38.6142C63.3931 38.539 63.471 38.4696 63.5493 38.4061C63.6276 38.3426 63.7241 38.2897 63.8389 38.2475L63.825 38.0194C64.0751 37.8866 64.2544 37.7465 64.3627 37.599C64.4711 37.4514 64.6003 37.2615 64.7505 37.0292C64.8784 37.0096 64.9775 36.9977 65.0477 36.9934C65.1295 36.9884 65.2516 36.9691 65.414 36.9357C65.507 36.7304 65.5975 36.5781 65.6853 36.4788C65.7732 36.3795 65.9012 36.266 66.0695 36.1382C66.2507 36.2211 66.4414 36.2681 66.6417 36.2793C66.8413 36.2788 67.0279 36.3554 67.2017 36.5091C67.222 36.6487 67.2698 36.7573 67.345 36.8349C67.4195 36.9008 67.4998 36.9663 67.586 37.0315C67.6715 37.0849 67.7573 37.1442 67.8435 37.2094C67.9296 37.2746 67.9884 37.3708 68.0197 37.498C68.0781 37.4944 68.1125 37.4806 68.1228 37.4564C68.1447 37.4316 68.1853 37.4233 68.2445 37.4314C68.2736 37.5235 68.3017 37.5981 68.3287 37.6552C68.3557 37.7122 68.3823 37.7634 68.4085 37.8088C68.4465 37.8534 68.479 37.9042 68.506 37.9613C68.5446 38.0176 68.5782 38.086 68.6066 38.1664C68.5567 38.3104 68.5134 38.4657 68.4767 38.6323C68.4392 38.7872 68.3521 38.8982 68.2153 38.9653C68.221 39.0589 68.2594 39.1094 68.3303 39.1168C68.4004 39.1125 68.4439 39.1509 68.4606 39.2321C68.4788 39.3366 68.4666 39.4254 68.4241 39.4985C68.7853 40.0281 69.1191 40.5888 69.4254 41.1806C69.731 41.7606 70.0703 42.3151 70.4432 42.8441C70.4299 43.0092 70.4457 43.1726 70.4909 43.3342C70.547 43.4834 70.6089 43.6323 70.6768 43.7807C70.7563 43.9285 70.8299 44.0766 70.8977 44.2251C70.9655 44.3735 71.0158 44.5231 71.0485 44.6737C71.0841 44.8711 71.0974 45.0875 71.0883 45.3229C71.0786 45.5466 71.045 45.7658 70.9878 45.9807C70.9305 46.1955 70.8491 46.4001 70.7436 46.5944C70.6374 46.777 70.5111 46.9198 70.3648 47.0227C70.192 47.2681 69.9699 47.4755 69.6985 47.6447C69.4264 47.8023 69.1795 47.9877 68.9577 48.2009C68.7997 48.3045 68.6286 48.3854 68.4443 48.4437C68.2593 48.4903 68.0688 48.543 67.8728 48.602C67.7265 48.7049 67.551 48.8096 67.3461 48.9161C67.1406 49.0109 66.9289 49.1002 66.711 49.184C66.493 49.2678 66.2744 49.3399 66.055 49.4003C65.8349 49.449 65.6364 49.4671 65.4595 49.4544C65.0478 49.6323 64.6449 49.7627 64.2507 49.8456C63.8566 49.9284 63.387 49.9279 62.8418 49.8439ZM62.6782 43.4435C62.5778 43.7197 62.4525 43.9739 62.3023 44.2062C62.1632 44.4261 62.0244 44.6518 61.886 44.8833C61.7475 45.1149 61.6277 45.3629 61.5265 45.6274C61.4363 45.8795 61.3958 46.1755 61.4049 46.5155C61.651 46.7 61.9334 46.8059 62.2521 46.8333C62.5818 46.8483 62.9155 46.8338 63.2532 46.7896C63.5903 46.7337 63.9266 46.6661 64.2623 46.5868C64.5979 46.5075 64.9002 46.4596 65.1692 46.4431C65.1628 46.3379 65.2063 46.2824 65.2999 46.2766C65.7883 46.1997 66.2362 46.0372 66.6437 45.7892C67.0504 45.5294 67.4747 45.2686 67.9165 45.0067C67.9664 44.8627 68.0349 44.7352 68.122 44.6242C68.2091 44.5132 68.2525 44.3579 68.252 44.1584C68.187 44.0567 68.1407 43.9715 68.113 43.9027C68.097 43.8333 68.0847 43.7283 68.0761 43.588C67.7462 43.1855 67.455 42.7455 67.2026 42.2679C66.9496 41.7785 66.6632 41.3206 66.3435 40.8941C66.3237 40.954 66.2805 41.0153 66.2139 41.0781C66.1473 41.1409 66.0706 41.1339 65.9837 41.057C65.9558 41.1761 65.9081 41.2612 65.8408 41.3123C65.7728 41.3517 65.692 41.3743 65.5984 41.38C65.5165 41.385 65.4277 41.3729 65.332 41.3435C65.248 41.3135 65.1691 41.2713 65.0953 41.2171C64.706 41.5698 64.316 41.9107 63.9253 42.2399C63.5462 42.5684 63.2055 42.9474 62.9031 43.3769C62.8468 43.4155 62.8124 43.4294 62.8 43.4184C62.7876 43.4074 62.747 43.4158 62.6782 43.4435ZM90.75 47.7451C90.6366 47.8108 90.5287 47.8702 90.4263 47.9235C90.3356 47.976 90.2259 48.0062 90.0973 48.0141C89.6203 47.7029 89.3443 47.1269 89.2693 46.2861C89.2059 45.4447 89.3216 44.3633 89.6163 43.042C89.6726 43.0034 89.6975 42.9314 89.6911 42.8261L89.5224 42.6603C89.4756 42.6632 89.4292 42.6719 89.3831 42.6865C89.3488 42.7003 89.322 42.7431 89.3029 42.8147C89.0124 43.0556 88.6934 43.31 88.3459 43.5778C87.9976 43.834 87.6311 44.0795 87.2463 44.3145C86.8725 44.537 86.4849 44.7251 86.0834 44.8789C85.6936 45.0319 85.3057 45.1203 84.9197 45.144C83.9372 45.2042 83.1698 44.7523 82.6176 43.7882L82.4611 43.5336L82.3347 43.7703C82.3025 43.8193 82.2559 43.9219 82.1951 44.0783C82.1335 44.2229 82.0734 44.391 82.0147 44.5824C81.956 44.7739 81.9035 44.9708 81.8572 45.1733C81.8219 45.3633 81.8143 45.5281 81.8347 45.6678C81.7358 45.7795 81.6322 45.9091 81.5239 46.0566C81.4155 46.2042 81.3375 46.3675 81.2898 46.5465C81.2721 46.6415 81.2892 46.7285 81.341 46.8075C81.324 46.9142 81.2764 46.9993 81.1981 47.0628C81.1549 47.1242 81.1059 47.1859 81.051 47.248C81.0071 47.2976 80.9694 47.3528 80.9379 47.4134C80.9181 47.4733 80.9041 47.5329 80.896 47.5921C80.8996 47.6506 80.8973 47.7094 80.8892 47.7686C80.8942 47.8505 80.8872 47.9273 80.8681 47.9989C80.6944 48.4204 80.5526 48.6933 80.4428 48.8174C80.3337 48.9533 80.1797 49.0273 79.9809 49.0395C79.8873 49.0452 79.7342 49.037 79.5215 49.0148C79.3594 48.8604 79.2054 48.6468 79.0595 48.3739C78.9246 48.0887 78.8121 47.7845 78.7218 47.4613C78.6432 47.1373 78.5939 46.8116 78.5738 46.4841C78.5647 46.1442 78.6053 45.8482 78.6955 45.5961C78.6948 45.5844 78.7344 45.4646 78.8143 45.2366C78.8943 45.0086 78.9937 44.7149 79.1125 44.3553C79.243 43.9951 79.389 43.5987 79.5503 43.1662C79.7109 42.7219 79.8726 42.2952 80.0354 41.886C80.1974 41.4652 80.3499 41.0801 80.4929 40.7309C80.6475 40.3809 80.7779 40.1146 80.8842 39.932C80.9691 39.7859 81.0431 39.6522 81.1061 39.5309C81.1801 39.3972 81.2486 39.2698 81.3116 39.1485C81.4999 38.773 81.6805 38.4625 81.8533 38.2171C82.0371 37.9593 82.3118 37.7487 82.6775 37.5854C82.9413 37.6749 83.136 37.7862 83.2615 37.9194L83.3085 38.1103C83.3624 38.2244 83.4362 38.2785 83.5298 38.2728C83.6606 38.3 83.768 38.3286 83.852 38.3587C83.947 38.3764 84.0479 38.3937 84.1546 38.4106C84.2422 38.4992 84.325 38.6056 84.4031 38.73C84.5053 38.8646 84.6016 38.9996 84.6921 39.1349C84.7936 39.2578 84.872 39.3881 84.9274 39.5255C84.9938 39.6506 85.0313 39.7833 85.0399 39.9237C85.0602 40.0633 85.0458 40.211 84.9966 40.3666L85.0249 40.541C85.0898 40.6427 85.1105 40.7882 85.0869 40.9775C85.0802 41.0601 85.0797 41.1482 85.0855 41.2417C85.0905 41.3236 85.1079 41.4165 85.1378 41.5203C85.3584 41.6712 85.5505 41.7416 85.7143 41.7315C85.9014 41.72 86.0685 41.6687 86.2156 41.5775C86.3736 41.4739 86.5199 41.371 86.6545 41.2688C86.7438 41.1929 86.8338 41.1287 86.9245 41.0761C87.0145 41.0119 87.1059 40.9711 87.1988 40.9537C87.3971 40.7419 87.5735 40.555 87.7279 40.3929C87.8941 40.2301 88.066 40.0669 88.2439 39.9033C88.5775 39.6011 88.8981 39.2762 89.2055 38.9286C89.513 38.581 89.751 38.1555 89.9198 37.652C90.0324 37.5747 90.1531 37.532 90.2817 37.5242C90.4104 37.5163 90.5467 37.5373 90.6907 37.5871C90.8346 37.637 90.9727 37.6873 91.105 37.7378C91.1415 37.7591 91.1718 37.7748 91.1959 37.7851C91.2317 37.7946 91.2617 37.8046 91.2858 37.8148C91.293 37.9318 91.3458 38.0283 91.4444 38.1045C91.4934 38.1367 91.5241 38.1583 91.5365 38.1693C91.5489 38.1803 91.5671 38.1909 91.5913 38.2011C91.7725 38.284 91.8893 38.3707 91.9418 38.4614C92.0402 38.7254 92.199 38.9212 92.4181 39.0486C92.4019 39.167 92.4087 39.2781 92.4386 39.382C92.4794 39.4734 92.5264 39.5703 92.5797 39.6727C92.5935 39.7071 92.6074 39.7414 92.6212 39.7758C92.6351 39.8102 92.6551 39.8501 92.6814 39.8954L92.3459 39.8808L92.4189 40.2109C92.4524 40.3732 92.446 40.5556 92.3997 40.758C92.3651 40.9597 92.3163 41.1212 92.2533 41.2425C92.2836 41.5459 92.3042 41.7853 92.3149 41.9608C92.3367 42.1238 92.3405 42.2821 92.3264 42.4356C92.3116 42.5774 92.2848 42.714 92.2459 42.8456C92.2187 42.9764 92.1747 43.12 92.1138 43.2763C92.2065 44.0221 92.1607 44.7117 91.9765 45.3452C91.8033 45.9664 91.6162 46.5532 91.4152 47.1056C91.3954 47.1655 91.3698 47.2258 91.3383 47.2864C91.3184 47.3463 91.2986 47.4062 91.2788 47.4661C91.1757 47.5077 91.0847 47.5544 91.0056 47.6062C90.9259 47.6463 90.8407 47.6926 90.75 47.7451ZM102.452 45.8652C102.394 46.0684 102.301 46.2795 102.174 46.4987C102.057 46.7054 101.91 46.8964 101.733 47.0716C101.567 47.2345 101.376 47.3753 101.16 47.4942C100.945 47.6131 100.714 47.6859 100.469 47.7127C100.315 47.6869 100.207 47.6524 100.146 47.6092C100.097 47.577 100.042 47.5452 99.9817 47.5137C99.9451 47.4924 99.909 47.477 99.8732 47.4675C99.8483 47.4455 99.8239 47.4294 99.7997 47.4191L99.5838 47.3443L99.64 47.1119C99.6577 47.0169 99.6475 46.9471 99.6096 46.9025C99.5709 46.8461 99.496 46.7744 99.385 46.6873C99.3478 46.6544 99.3105 46.6214 99.2733 46.5885C99.2361 46.5555 99.2047 46.5222 99.1791 46.4886L98.8604 46.1735L99.3266 46.0217C99.614 45.9218 99.8005 45.8047 99.8862 45.6703C99.9836 45.5352 100.011 45.3163 99.9692 45.0136C99.7324 44.9812 99.5332 44.9875 99.3716 45.0327C99.2217 45.0771 99.0663 45.1277 98.9054 45.1845C98.6985 45.2559 98.4853 45.3218 98.266 45.3822C98.0576 45.4302 97.8247 45.4621 97.5674 45.4779C97.4738 45.4837 97.3861 45.489 97.3042 45.4941C97.2216 45.4874 97.1332 45.4811 97.0389 45.4751L96.8613 45.4508C96.83 45.3235 96.8023 45.2548 96.7782 45.2445C96.7533 45.2226 96.7285 45.2006 96.7037 45.1787C96.6416 45.1238 96.5726 45.0517 96.4967 44.9624C96.4318 44.8607 96.4122 44.7328 96.4379 44.5786C96.373 44.4769 96.3315 44.3738 96.3133 44.2692C96.2517 44.4139 96.2081 44.5633 96.1823 44.7175L96.1229 44.8973L95.9496 44.9431C95.9269 44.9563 95.9111 44.9866 95.9023 45.0341C95.8928 45.0699 95.8887 45.0995 95.8902 45.1229L95.8207 45.4265C95.7988 45.4514 95.7768 45.4762 95.7548 45.501C95.7322 45.5141 95.7098 45.5331 95.6879 45.5579C95.6709 45.6647 95.6482 45.7717 95.6195 45.8791C95.5909 45.9866 95.5619 46.0881 95.5325 46.1839C95.4834 46.3395 95.4401 46.4948 95.4026 46.6497C95.3761 46.7922 95.373 46.9333 95.3933 47.073L95.335 47.2703C95.2808 47.344 95.2201 47.4065 95.1528 47.4575C95.0847 47.4969 95.0167 47.5363 94.9487 47.5757C94.9267 47.6006 94.8931 47.6261 94.8477 47.6524C94.8133 47.6662 94.7848 47.6797 94.7621 47.6928L94.7213 47.8891L94.5129 47.9371C94.3857 47.9683 94.2932 47.9916 94.2354 48.0069C94.1894 48.0215 94.1312 48.0309 94.0611 48.0352L93.8845 48.0284C93.7494 47.931 93.645 47.8553 93.5712 47.8011C93.4967 47.7352 93.4109 47.6759 93.3137 47.6231C93.1999 47.4892 93.1349 47.3876 93.1189 47.3181C93.1029 47.2486 93.0873 47.185 93.072 47.1272C93.0443 47.0585 93.029 47.0007 93.0262 46.9539C93.0116 46.9079 92.9919 46.8739 92.9671 46.8519L92.7261 46.6553L92.9094 46.4856L92.9086 46.1863C93.106 45.5754 93.3165 44.9872 93.5401 44.4216C93.7754 43.8554 94.0159 43.2771 94.2614 42.6867C94.3435 42.4939 94.4198 42.3013 94.4902 42.1092C94.5723 41.9163 94.6544 41.7234 94.7365 41.5305C94.7226 41.4961 94.7143 41.4555 94.7114 41.4088C94.7085 41.362 94.717 41.3086 94.7368 41.2487C94.8533 41.042 94.9478 40.8601 95.0203 40.703C95.0922 40.5342 95.164 40.3654 95.2359 40.1967C95.3172 39.9921 95.399 39.7933 95.4811 39.6005C95.5749 39.4068 95.6917 39.206 95.8316 38.9978L96.1048 38.8578C96.1391 38.8439 96.1793 38.8297 96.2254 38.8151C96.2708 38.7889 96.3227 38.774 96.3812 38.7704L96.6465 38.7893C96.9647 38.6172 97.2383 38.3891 97.4675 38.105C97.6959 37.8092 97.9269 37.4604 98.1606 37.0586L98.321 36.8022L98.5577 36.9286C98.6183 36.9601 98.7024 36.9902 98.8098 37.0188C98.9165 37.0358 99.0294 37.0582 99.1485 37.0861C99.3619 37.12 99.564 37.1604 99.7547 37.2074C99.9455 37.2545 100.103 37.3329 100.227 37.4426C100.309 37.6255 100.358 37.7633 100.376 37.8562C100.393 37.9491 100.416 38.0416 100.446 38.1337C100.493 38.3304 100.534 38.5274 100.57 38.7249C100.617 38.9215 100.654 39.1423 100.681 39.3873C100.752 39.5825 100.811 39.7785 100.858 39.9752C100.916 40.1595 100.969 40.35 101.016 40.5467C101.092 40.8238 101.167 41.0951 101.242 41.3605C101.316 41.6143 101.408 41.8552 101.515 42.0834C101.609 42.0777 101.668 42.08 101.692 42.0902C101.749 42.0632 101.806 42.0421 101.864 42.0268C101.934 42.0108 102.009 41.9945 102.09 41.9777L102.282 41.9484L102.363 42.1195C102.378 42.1773 102.44 42.2322 102.549 42.2842C102.702 42.2866 102.815 42.3149 102.889 42.369C102.962 42.4115 103.03 42.4602 103.092 42.5151C103.141 42.559 103.19 42.5912 103.239 42.6118L103.508 42.7009L103.384 42.9727C103.28 43.1904 103.123 43.4055 102.913 43.618C102.714 43.818 102.484 43.9906 102.222 44.1358C102.238 44.2053 102.249 44.2751 102.253 44.3453C102.268 44.403 102.29 44.4663 102.317 44.535C102.365 44.7317 102.406 44.9346 102.443 45.1437C102.479 45.3528 102.492 45.5692 102.483 45.7929L102.452 45.8652ZM97.1951 43.1409C97.5446 43.0959 97.859 43.0532 98.1383 43.0126C98.4285 42.9596 98.747 42.8872 99.0936 42.7955C98.9902 42.4496 98.8802 42.0924 98.7637 41.7238C98.6464 41.3436 98.5237 40.9695 98.3955 40.6017L98.301 40.7836C98.0821 41.0436 97.8709 41.3324 97.6673 41.6502C97.4754 41.9672 97.3116 42.2649 97.1761 42.5432C97.1124 42.6528 97.0486 42.7624 96.9849 42.872C96.9212 42.9815 96.8633 43.0908 96.8113 43.1996C96.8807 43.1836 96.9447 43.1738 97.0032 43.1702C97.0734 43.1659 97.1374 43.1561 97.1951 43.1409ZM112.059 42.0004C112.051 42.0596 112.043 42.113 112.034 42.1605C112.024 42.1963 112.015 42.2321 112.005 42.2679C111.996 42.3037 111.993 42.3509 111.996 42.4093C111.999 42.4561 112.003 42.5205 112.008 42.6023C111.695 43.2438 111.283 43.7916 110.771 44.2456C110.27 44.699 109.708 45.1091 109.085 45.4761C108.473 45.8307 107.83 46.1636 107.156 46.4749C106.482 46.7746 105.826 47.0965 105.19 47.4408C104.905 47.3879 104.681 47.2842 104.519 47.1297C104.369 46.9746 104.246 46.7943 104.152 46.5887C104.068 46.3708 104 46.1342 103.95 45.8791C103.91 45.6115 103.869 45.338 103.829 45.0587C103.856 44.9279 103.896 44.8198 103.95 44.7343C104.014 44.6364 104.041 44.5056 104.031 44.3419C104.106 44.032 104.182 43.728 104.257 43.4299C104.333 43.1317 104.373 42.8298 104.378 42.5243C104.407 42.4286 104.468 42.3603 104.559 42.3195C104.583 41.7544 104.548 41.1871 104.455 40.6176C104.372 40.0356 104.245 39.4974 104.074 39.0031C104.078 38.8854 104.085 38.8028 104.094 38.7553C104.114 38.6954 104.111 38.6545 104.086 38.6325C104.069 38.5396 104.095 38.4911 104.166 38.4868C104.247 38.4817 104.329 38.4767 104.411 38.4717C104.4 38.2962 104.355 38.1229 104.274 37.9518C104.204 37.7799 104.134 37.5847 104.062 37.366C104.133 37.1855 104.175 37.0127 104.188 36.8475C104.201 36.6706 104.244 36.5153 104.318 36.3817C104.962 36.5418 105.579 36.7446 106.169 36.9902C106.772 37.2351 107.357 37.4046 107.927 37.4988C108.366 37.7771 108.818 38.0547 109.281 38.3316C109.743 38.5967 110.167 38.8995 110.552 39.2399C110.936 39.5685 111.265 39.9534 111.538 40.3945C111.812 40.8357 111.986 41.371 112.059 42.0004ZM107.96 43.2204C108.2 43.1118 108.434 42.9976 108.661 42.878C108.901 42.7577 109.116 42.6271 109.307 42.4862C109.509 42.333 109.686 42.1636 109.839 41.9781C109.992 41.7926 110.114 41.5738 110.204 41.3217C110.125 41.1857 110.024 41.0686 109.901 40.9705C109.776 40.8607 109.653 40.7626 109.53 40.6762C109.407 40.5781 109.283 40.48 109.16 40.3819C109.048 40.2831 108.953 40.1598 108.873 40.012C108.72 39.998 108.583 39.9653 108.462 39.914C108.341 39.8509 108.22 39.7938 108.099 39.7425C107.99 39.6788 107.869 39.6216 107.737 39.571C107.616 39.5197 107.474 39.4932 107.309 39.4915C107.044 39.3787 106.804 39.2994 106.59 39.2539C106.388 39.2076 106.231 39.1409 106.12 39.0537C106.038 39.0588 105.975 39.0803 105.93 39.1182C106.074 39.5555 106.188 39.9712 106.271 40.3653C106.353 40.7477 106.406 41.1378 106.431 41.5355C106.466 41.9208 106.473 42.3195 106.451 42.7318C106.429 43.144 106.392 43.5925 106.34 44.077C106.456 44.0582 106.56 44.0283 106.651 43.9875C106.754 43.9343 106.85 43.8814 106.941 43.8288C107.043 43.7756 107.146 43.7282 107.249 43.6867C107.363 43.6327 107.496 43.5952 107.647 43.5742C107.678 43.5019 107.721 43.4405 107.777 43.3901C107.844 43.339 107.906 43.2825 107.96 43.2204ZM121.64 36.2529C121.656 36.3341 121.66 36.3984 121.652 36.4459C121.654 36.481 121.65 36.5164 121.64 36.5522C121.643 36.5873 121.645 36.6283 121.648 36.6751C121.65 36.7102 121.665 36.7679 121.694 36.8484C121.473 37.2611 121.203 37.5536 120.885 37.7257C120.577 37.8854 120.239 38.0119 119.869 38.105C119.498 38.1864 119.116 38.2744 118.723 38.369C118.341 38.4628 117.964 38.6386 117.593 38.8962C117.437 38.847 117.297 38.8556 117.172 38.922C117.058 38.9877 116.884 39.016 116.648 39.0069C116.583 39.0814 116.498 39.1394 116.395 39.181C116.291 39.2108 116.188 39.2465 116.085 39.288C116.138 39.3904 116.162 39.5005 116.158 39.6182C116.164 39.7234 116.187 39.8101 116.226 39.8781C116.638 39.8881 117.088 39.8547 117.576 39.7777C118.076 39.7001 118.566 39.6407 119.045 39.5996C119.06 39.6574 119.057 39.6987 119.035 39.7235C119.012 39.7367 119.008 39.7663 119.023 39.8123C119.108 39.8658 119.195 39.9368 119.282 40.0254C119.369 40.1022 119.456 40.1791 119.543 40.2559C119.63 40.3328 119.716 40.3979 119.801 40.4514C119.898 40.4925 120.004 40.5035 120.12 40.4847C120.173 40.5754 120.209 40.6789 120.228 40.7951C120.257 40.8989 120.253 41.0108 120.213 41.1306C120.034 41.2708 119.855 41.4168 119.676 41.5686C119.497 41.7087 119.305 41.8379 119.101 41.9561C118.909 42.0735 118.698 42.1745 118.468 42.2591C118.249 42.3312 117.999 42.37 117.718 42.3755C117.66 42.3791 117.613 42.382 117.578 42.3841C117.554 42.3855 117.518 42.3701 117.469 42.3379C117.379 42.4021 117.246 42.4279 117.069 42.4153C116.904 42.402 116.776 42.4274 116.686 42.4916C116.554 42.441 116.394 42.4273 116.208 42.4505C116.033 42.4612 115.873 42.4475 115.73 42.4093C115.558 42.6665 115.404 42.94 115.27 43.2301C115.135 43.5201 115.019 43.8266 114.921 44.1496C115.322 44.1837 115.651 44.187 115.908 44.1596C116.176 44.1314 116.426 44.0984 116.659 44.0607C116.891 44.0112 117.129 43.9673 117.373 43.9288C117.616 43.8787 117.926 43.848 118.301 43.8367C118.527 43.6937 118.797 43.595 119.11 43.5405C119.435 43.4736 119.729 43.3852 119.992 43.2751C120.088 43.3045 120.174 43.3638 120.25 43.453C120.325 43.5306 120.394 43.6085 120.458 43.6868C120.532 43.7527 120.606 43.8127 120.68 43.8669C120.754 43.9211 120.843 43.9391 120.948 43.921C120.997 43.9649 121.03 44.0216 121.046 44.091C121.073 44.1481 121.094 44.2055 121.109 44.2633C121.125 44.321 121.145 44.3726 121.172 44.4179C121.209 44.4509 121.262 44.4594 121.332 44.4434C121.18 44.8401 120.994 45.1509 120.773 45.3758C120.563 45.5883 120.315 45.7561 120.029 45.8793C119.743 46.0025 119.42 46.1045 119.061 46.1852C118.714 46.2652 118.326 46.3594 117.898 46.4678C117.795 46.4977 117.707 46.4972 117.634 46.4664C117.563 46.4473 117.48 46.4407 117.386 46.4464C117.121 46.5214 116.803 46.5937 116.431 46.6635C116.06 46.7332 115.681 46.7741 115.294 46.786C114.907 46.798 114.536 46.768 114.179 46.6959C113.823 46.6356 113.527 46.5011 113.291 46.2925C113.193 46.2163 113.123 46.1267 113.081 46.0236C113.05 45.908 112.969 45.825 112.837 45.7744C112.816 45.623 112.782 45.4549 112.735 45.2699C112.689 45.0849 112.642 44.894 112.595 44.6973C112.547 44.4889 112.505 44.286 112.469 44.0886C112.445 43.8905 112.446 43.7085 112.471 43.5426C112.495 43.365 112.556 43.2028 112.652 43.056C112.761 42.9084 112.792 42.7538 112.747 42.5922C112.805 42.577 112.838 42.5456 112.847 42.4981C112.855 42.4389 112.901 42.4126 112.983 42.4193C113.041 42.2044 113.104 42.0009 113.175 41.8088C113.245 41.6166 113.316 41.4303 113.387 41.2498C113.47 41.0686 113.547 40.8878 113.618 40.7073C113.7 40.5144 113.775 40.3043 113.843 40.0771C113.67 39.9351 113.538 39.7788 113.445 39.6084C113.363 39.4256 113.3 39.2475 113.254 39.0742C113.207 38.8892 113.166 38.7038 113.132 38.5181C113.096 38.3207 113.043 38.1244 112.972 37.9291C113.078 37.7465 113.21 37.5975 113.367 37.4822C113.536 37.3545 113.717 37.2494 113.912 37.1671C114.106 37.0847 114.319 37.0129 114.55 36.9518C114.781 36.8907 115.023 36.823 115.277 36.7487C115.736 36.568 116.144 36.4255 116.501 36.3214C116.871 36.2166 117.229 36.13 117.577 36.0617C117.936 35.981 118.307 35.9054 118.691 35.835C119.074 35.7645 119.508 35.6674 119.994 35.5437C120.105 35.6425 120.208 35.6891 120.302 35.6833C120.342 35.5752 120.393 35.5427 120.454 35.5859C120.526 35.6167 120.553 35.5798 120.535 35.4753C120.664 35.667 120.821 35.8276 121.005 35.9572C121.2 36.0744 121.412 36.173 121.64 36.2529ZM138.213 35.1309C138.253 35.3868 138.307 35.6066 138.377 35.7901C138.447 35.9737 138.523 36.151 138.603 36.3222C138.672 36.4824 138.735 36.6429 138.791 36.8038C138.859 36.9522 138.912 37.1369 138.949 37.3577C138.874 37.6675 138.821 37.9526 138.79 38.2128C138.771 38.4722 138.746 38.7438 138.717 39.0274C138.554 39.4482 138.395 39.8219 138.239 40.1485C138.083 40.4751 137.96 40.7586 137.869 40.999C137.814 41.061 137.766 41.1344 137.724 41.2192C137.693 41.2915 137.657 41.3701 137.615 41.4548C137.594 41.4913 137.568 41.5458 137.537 41.6181C137.506 41.6904 137.48 41.739 137.458 41.7638L137.099 41.6625L137.056 42.1055L136.815 42.1907L136.652 42.412C136.454 42.8116 136.24 43.1535 136.011 43.4376C135.781 43.71 135.514 43.9611 135.212 44.191C134.92 44.4085 134.58 44.6172 134.193 44.817C133.818 45.0161 133.391 45.236 132.913 45.4767C132.713 45.4655 132.536 45.4646 132.384 45.4739C132.243 45.4708 132.108 45.4674 131.979 45.4635C131.756 45.4772 131.48 45.4765 131.151 45.4615C131.11 45.3701 131.053 45.3089 130.981 45.2782C130.909 45.2474 130.843 45.2338 130.785 45.2374C130.58 45.156 130.42 45.0308 130.304 44.8618C130.199 44.6804 130.093 44.4873 129.987 44.2825C129.92 44.1574 129.855 44.044 129.79 43.9423C129.724 43.8289 129.652 43.7159 129.575 43.6033L129.868 43.4972L129.456 43.0998C129.431 43.0662 129.4 43.0387 129.363 43.0175C129.326 42.9845 129.294 42.9512 129.269 42.9176L129.234 42.6379C129.15 41.833 129.087 41.0972 129.046 40.4305C129.016 39.7513 129.073 39.1432 129.216 38.6061L129.204 38.4131C129.223 38.1536 129.246 37.9409 129.271 37.775C129.295 37.5974 129.314 37.4319 129.328 37.2784C129.347 37.0189 129.385 36.7759 129.442 36.5494C129.604 36.5042 129.722 36.4324 129.799 36.3338C129.874 36.2235 129.938 36.1256 129.992 36.0401C130.155 36.0184 130.268 36.035 130.33 36.0899C130.392 36.1448 130.456 36.2348 130.522 36.3598C130.587 36.4615 130.665 36.5742 130.754 36.6978C130.856 36.8208 130.996 36.9119 131.176 36.9714C131.205 37.0635 131.241 37.1611 131.282 37.2642C131.335 37.3549 131.388 37.4573 131.442 37.5714C131.548 37.7646 131.642 37.9701 131.726 38.188C131.821 38.3935 131.88 38.5954 131.904 38.7935C131.801 39.0229 131.723 39.286 131.671 39.5827C131.63 39.8787 131.608 40.1795 131.603 40.485C131.609 40.7782 131.633 41.0644 131.673 41.3437C131.725 41.6105 131.791 41.8354 131.873 42.0182L131.992 42.2399L132.288 42.1865C132.634 42.0714 132.943 41.9526 133.218 41.8301C133.503 41.6952 133.764 41.5442 134 41.3771C134.236 41.21 134.459 41.0202 134.669 40.8077C134.879 40.5835 135.098 40.3294 135.327 40.0453C135.556 39.7612 135.748 39.4442 135.903 39.0942C136.068 38.7319 136.198 38.3599 136.292 37.9785C136.398 37.5963 136.469 37.2221 136.505 36.8559C136.552 36.4773 136.578 36.1235 136.581 35.7946C136.776 35.7122 136.866 35.5658 136.853 35.3552L136.807 35.1644C136.755 35.0971 136.75 35.0152 136.792 34.9187C136.848 34.6922 137.001 34.5125 137.252 34.3798C137.446 34.4853 137.618 34.6039 137.767 34.7357C137.927 34.8667 138.076 34.9985 138.213 35.1309ZM138.78 37.1919C138.847 36.9413 138.963 36.7228 139.127 36.5366C139.304 36.3497 139.494 36.1913 139.697 36.0614C139.911 35.9191 140.133 35.7999 140.362 35.7036C140.591 35.6074 140.809 35.5236 141.016 35.4522C141.471 35.2247 141.957 35.007 142.473 34.7993C142.999 34.5792 143.533 34.3821 144.074 34.208C144.627 34.0332 145.195 33.9103 145.777 33.8394C146.359 33.7567 146.978 33.7893 147.633 33.937C147.675 34.0518 147.734 34.1597 147.811 34.2606C147.888 34.3616 147.964 34.4626 148.041 34.5635C148.129 34.6638 148.206 34.7648 148.271 34.8664C148.335 34.9564 148.376 35.0537 148.394 35.1583C148.518 35.2564 148.618 35.3676 148.697 35.4919C148.774 35.6046 148.795 35.7618 148.761 35.9635C148.649 36.0643 148.538 36.1592 148.426 36.2482C148.325 36.3248 148.212 36.3963 148.087 36.4627C147.648 36.384 147.207 36.3758 146.765 36.4381C146.322 36.5005 145.926 36.5541 145.577 36.599C145.465 36.5002 145.333 36.4555 145.181 36.4648C145.041 36.4734 144.89 36.5061 144.729 36.5629C144.58 36.6191 144.425 36.6755 144.264 36.7323C144.115 36.7885 143.969 36.8091 143.828 36.7943C143.716 36.8951 143.574 36.9684 143.401 37.0142C143.239 37.0477 143.059 37.0822 142.861 37.1178C142.853 37.177 142.867 37.2172 142.904 37.2384C142.94 37.248 142.948 37.2827 142.928 37.3426C143.003 37.4202 143.094 37.4733 143.202 37.5019C143.321 37.5299 143.44 37.5578 143.559 37.5857C143.69 37.6129 143.804 37.6529 143.901 37.7056C143.998 37.7467 144.067 37.8246 144.109 37.9394C144.285 37.9286 144.439 37.9603 144.573 38.0343C144.707 38.1082 144.818 38.2012 144.907 38.3132C144.996 38.4251 145.062 38.5502 145.106 38.6884C145.161 38.8142 145.191 38.9297 145.198 39.035C145.239 39.1264 145.282 39.1648 145.328 39.1503C145.374 39.1357 145.428 39.1559 145.49 39.2108C145.535 39.3607 145.632 39.5132 145.783 39.6684C145.932 39.8118 146.054 39.9746 146.147 40.1567C146.189 40.4477 146.222 40.7098 146.248 40.943C146.274 41.1645 146.247 41.3951 146.167 41.6348C146.018 42.0784 145.797 42.4794 145.502 42.838C145.218 43.1958 144.886 43.5215 144.505 43.8149C144.135 44.0959 143.733 44.3436 143.3 44.558C142.867 44.7724 142.444 44.9568 142.031 45.1113C141.983 45.1025 141.936 45.1054 141.89 45.1199C141.844 45.1345 141.831 45.106 141.85 45.0344C141.761 45.122 141.659 45.1811 141.544 45.2116C141.44 45.2415 141.323 45.2545 141.194 45.2507C141.065 45.2586 140.93 45.261 140.789 45.2579C140.66 45.2541 140.537 45.2675 140.422 45.298C140.335 45.2212 140.254 45.144 140.179 45.0664C140.116 44.9998 140.063 44.9091 140.021 44.7943C139.963 44.7979 139.932 44.7704 139.928 44.7119C139.936 44.6527 139.917 44.6246 139.87 44.6274C139.933 44.5062 139.958 44.44 139.946 44.429C139.944 44.4057 139.926 44.3892 139.89 44.3796C139.866 44.3694 139.842 44.3591 139.818 44.3489C139.793 44.3269 139.785 44.298 139.795 44.2622C139.836 44.1658 139.847 44.0594 139.828 43.9432C139.808 43.8152 139.789 43.6873 139.769 43.5593C139.75 43.4314 139.748 43.3082 139.764 43.1898C139.792 43.0707 139.874 42.9717 140.01 42.8929C140.411 42.9153 140.784 42.8807 141.131 42.789C141.489 42.6849 141.821 42.553 142.128 42.3932C142.435 42.2335 142.724 42.0632 142.995 41.8822C143.277 41.7005 143.555 41.5367 143.828 41.3908C143.856 41.2834 143.898 41.1928 143.952 41.1191C144.018 41.0446 144.084 40.9759 144.151 40.9131C144.217 40.8504 144.278 40.7821 144.332 40.7083C144.386 40.6345 144.422 40.5443 144.439 40.4376C144.445 40.355 144.419 40.3097 144.36 40.3015C144.312 40.281 144.285 40.2357 144.281 40.1655L144.085 40.1247C143.855 40.0097 143.597 39.9198 143.311 39.8551C143.024 39.7788 142.779 39.6941 142.573 39.601C142.449 39.6791 142.327 39.7041 142.208 39.6762C142.101 39.6476 141.958 39.6211 141.781 39.5968C141.381 39.5978 140.993 39.5805 140.615 39.545C140.249 39.5087 139.891 39.4249 139.543 39.2937C139.516 39.2366 139.484 39.1858 139.446 39.1412C139.408 39.0965 139.343 39.0888 139.25 39.1179C139.174 39.0286 139.099 38.9452 139.024 38.8676C138.948 38.7784 138.877 38.6829 138.812 38.5812C138.827 38.4394 138.838 38.3214 138.844 38.2271C138.849 38.1211 138.808 38.0238 138.72 37.9353C138.757 37.7803 138.785 37.6554 138.803 37.5604C138.82 37.4654 138.813 37.3425 138.78 37.1919ZM162.326 38.9181C162.318 38.9773 162.31 39.0306 162.301 39.0781C162.291 39.1139 162.282 39.1497 162.272 39.1855C162.263 39.2213 162.26 39.2685 162.263 39.327C162.266 39.3738 162.27 39.4381 162.275 39.52C161.962 40.1614 161.55 40.7092 161.038 41.1633C160.537 41.6166 159.975 42.0268 159.352 42.3937C158.74 42.7483 158.097 43.0812 157.423 43.3926C156.749 43.6922 156.093 44.0142 155.457 44.3585C155.172 44.3055 154.948 44.2018 154.786 44.0474C154.636 43.8922 154.513 43.7119 154.419 43.5064C154.335 43.2884 154.267 43.0519 154.217 42.7967C154.177 42.5291 154.136 42.2557 154.096 41.9764C154.123 41.8456 154.163 41.7374 154.217 41.652C154.281 41.5541 154.308 41.4233 154.298 41.2595C154.373 40.9497 154.449 40.6456 154.524 40.3475C154.6 40.0493 154.64 39.7475 154.645 39.4419C154.674 39.3462 154.735 39.2779 154.826 39.2371C154.85 38.6721 154.815 38.1048 154.722 37.5352C154.639 36.9532 154.512 36.4151 154.341 35.9207C154.345 35.803 154.352 35.7204 154.361 35.6729C154.381 35.613 154.378 35.5721 154.353 35.5501C154.336 35.4573 154.362 35.4087 154.432 35.4044C154.514 35.3994 154.596 35.3943 154.678 35.3893C154.667 35.2139 154.621 35.0406 154.541 34.8694C154.471 34.6976 154.401 34.5023 154.328 34.2836C154.4 34.1032 154.442 33.9303 154.455 33.7652C154.468 33.5883 154.511 33.433 154.585 33.2993C155.229 33.4594 155.846 33.6623 156.436 33.9078C157.038 34.1527 157.624 34.3222 158.193 34.4165C158.633 34.6948 159.085 34.9724 159.548 35.2492C160.01 35.5144 160.434 35.8171 160.819 36.1575C161.203 36.4862 161.532 36.8711 161.805 37.3122C162.079 37.7533 162.253 38.2886 162.326 38.9181ZM158.227 40.138C158.467 40.0294 158.701 39.9153 158.928 39.7956C159.168 39.6753 159.383 39.5447 159.574 39.4039C159.776 39.2506 159.953 39.0812 160.106 38.8957C160.259 38.7102 160.381 38.4914 160.471 38.2393C160.392 38.1033 160.291 37.9862 160.167 37.8881C160.043 37.7783 159.92 37.6802 159.797 37.5938C159.674 37.4957 159.55 37.3976 159.427 37.2995C159.315 37.2007 159.22 37.0774 159.14 36.9297C158.987 36.9156 158.85 36.8829 158.729 36.8316C158.608 36.7686 158.487 36.7114 158.366 36.6601C158.257 36.5964 158.136 36.5392 158.004 36.4886C157.883 36.4373 157.74 36.4108 157.576 36.4092C157.311 36.2963 157.071 36.2171 156.857 36.1715C156.655 36.1252 156.498 36.0585 156.387 35.9714C156.305 35.9764 156.242 35.9979 156.197 36.0358C156.341 36.4732 156.455 36.8889 156.538 37.283C156.62 37.6654 156.673 38.0554 156.697 38.4531C156.733 38.8384 156.74 39.2372 156.718 39.6494C156.696 40.0617 156.659 40.5101 156.607 40.9947C156.723 40.9758 156.827 40.946 156.918 40.9051C157.021 40.8519 157.117 40.799 157.208 40.7465C157.31 40.6932 157.413 40.6458 157.516 40.6043C157.63 40.5503 157.763 40.5128 157.914 40.4918C157.945 40.4195 157.988 40.3581 158.044 40.3078C158.111 40.2567 158.172 40.2001 158.227 40.138ZM172.804 37.7473C172.801 37.8883 172.82 38.0221 172.863 38.1486C172.906 38.2752 172.955 38.4013 173.01 38.5271C173.076 38.6405 173.136 38.7601 173.19 38.8859C173.245 39.0117 173.288 39.1382 173.319 39.2654C173.353 39.4277 173.364 39.609 173.353 39.8093C173.341 39.9979 173.311 40.1876 173.264 40.3783C173.217 40.5573 173.151 40.7257 173.066 40.8835C172.981 41.0296 172.877 41.1417 172.752 41.2198C172.602 41.4404 172.413 41.6163 172.186 41.7476C171.959 41.879 171.751 42.0326 171.563 42.2085C171.439 42.2983 171.296 42.3657 171.135 42.4109C170.985 42.4553 170.829 42.5001 170.667 42.5452C170.543 42.6233 170.396 42.7086 170.225 42.8013C170.054 42.8822 169.877 42.9635 169.694 43.0452C169.511 43.1151 169.326 43.1734 169.141 43.2199C168.956 43.2548 168.792 43.2707 168.651 43.2676C168.308 43.4178 167.968 43.5208 167.631 43.5767C167.307 43.6436 166.919 43.6439 166.469 43.5775C166.051 43.6619 165.658 43.6683 165.29 43.597C164.934 43.5249 164.609 43.3981 164.316 43.2165C164.034 43.0224 163.779 42.7915 163.551 42.5237C163.335 42.2434 163.152 41.9494 163.004 41.6415C162.87 40.9805 162.856 40.3767 162.963 39.83C163.07 39.2716 163.238 38.7565 163.467 38.2845C163.708 37.8002 163.986 37.3546 164.301 36.9478C164.616 36.5293 164.92 36.1232 165.213 35.7296C165.284 35.7486 165.337 35.7454 165.371 35.7199C165.415 35.6819 165.454 35.6385 165.486 35.5895C165.517 35.5289 165.549 35.4741 165.582 35.4252C165.625 35.3755 165.676 35.343 165.734 35.3278C165.805 35.1473 165.914 35.0114 166.061 34.9202C166.219 34.8166 166.34 34.6801 166.424 34.5106C166.527 34.4807 166.613 34.4403 166.68 34.3892C166.748 34.3381 166.809 34.2815 166.864 34.2194C166.93 34.1566 166.997 34.0997 167.065 34.0486C167.131 33.9858 167.21 33.9399 167.303 33.9107L167.291 33.7177C167.496 33.6113 167.641 33.4967 167.728 33.374C167.825 33.2388 167.938 33.0792 168.068 32.8952C168.173 32.877 168.254 32.8662 168.313 32.8626C168.383 32.8583 168.482 32.8405 168.609 32.8092C168.692 32.6397 168.767 32.5119 168.832 32.4257C168.909 32.3388 169.02 32.2439 169.167 32.141C169.311 32.2026 169.466 32.24 169.631 32.2534C169.808 32.266 169.965 32.3327 170.102 32.4535C170.12 32.5697 170.161 32.6612 170.224 32.7278C170.286 32.7827 170.354 32.8372 170.428 32.8914C170.501 32.9339 170.568 32.9826 170.63 33.0375C170.704 33.0916 170.756 33.1706 170.786 33.2745C170.833 33.2833 170.862 33.2757 170.873 33.2516C170.894 33.2267 170.929 33.2187 170.977 33.2276C171.022 33.3892 171.07 33.4978 171.12 33.5534C171.17 33.5973 171.222 33.6939 171.279 33.843C171.227 33.9636 171.188 34.0893 171.161 34.2201C171.145 34.3385 171.08 34.4305 170.966 34.4962C170.96 34.5788 170.986 34.6241 171.045 34.6322C171.104 34.6287 171.141 34.6557 171.156 34.7135C171.174 34.8181 171.161 34.8952 171.117 34.9448C171.426 35.3838 171.707 35.8538 171.961 36.3548C172.214 36.8442 172.495 37.3083 172.804 37.7473ZM170.713 39.5485C170.752 39.417 170.804 39.3081 170.869 39.222C170.946 39.1351 170.985 39.0094 170.987 38.8449C170.922 38.7549 170.883 38.6869 170.868 38.6408C170.853 38.5831 170.842 38.4957 170.835 38.3787C170.555 38.0319 170.309 37.6595 170.097 37.2616C169.884 36.852 169.649 36.4731 169.393 36.1248C169.373 36.173 169.335 36.2223 169.279 36.2727C169.223 36.3231 169.158 36.3153 169.084 36.2495C169.066 36.3445 169.03 36.4172 168.974 36.4675C168.918 36.5062 168.854 36.5277 168.784 36.532C168.713 36.5246 168.636 36.5117 168.553 36.4934C168.481 36.4626 168.414 36.4256 168.352 36.3824C168.03 36.6722 167.707 36.9562 167.383 37.2343C167.06 37.5124 166.774 37.8294 166.526 38.1851C166.48 38.2113 166.452 38.2248 166.44 38.2255C166.428 38.2145 166.393 38.2225 166.336 38.2495C166.256 38.4775 166.152 38.6894 166.023 38.8851C165.905 39.0685 165.787 39.2577 165.67 39.4527C165.553 39.6477 165.454 39.8534 165.373 40.0697C165.293 40.286 165.255 40.5348 165.261 40.8163C165.469 40.9678 165.709 41.0529 165.981 41.0715C166.252 41.0901 166.527 41.0791 166.806 41.0385C167.097 40.9971 167.376 40.9448 167.642 40.8816C167.919 40.8059 168.175 40.7608 168.409 40.7465C168.893 40.5994 169.304 40.4215 169.644 40.2128C169.983 39.9925 170.339 39.771 170.713 39.5485ZM190.312 33.486C190.02 33.504 189.705 33.5467 189.369 33.6143C189.032 33.6702 188.701 33.7316 188.376 33.7984C188.145 33.8479 187.918 33.8911 187.697 33.9281C187.488 33.9644 187.296 33.9938 187.122 34.0163C187.056 34.2786 186.988 34.5117 186.918 34.7156C186.848 34.9195 186.772 35.1178 186.69 35.3107C186.609 35.5153 186.534 35.7254 186.465 35.9409C186.407 36.1441 186.35 36.3648 186.294 36.603C186.189 36.7973 186.1 36.9789 186.028 37.1477C185.967 37.304 185.919 37.4831 185.885 37.6848C185.755 37.8688 185.661 38.0624 185.603 38.2656C185.545 38.457 185.502 38.624 185.476 38.7665L185.418 38.9814C185.353 39.0559 185.315 39.1169 185.306 39.1644C185.297 39.2002 185.27 39.2371 185.225 39.275C185.221 39.4044 185.188 39.5356 185.126 39.6685C185.106 39.7285 185.092 39.788 185.084 39.8472C185.075 39.8947 185.072 39.9302 185.073 39.9536C185.08 40.0705 185.056 40.1484 184.999 40.187C185.015 40.2448 185.018 40.3091 185.011 40.38C185.003 40.4392 184.995 40.4984 184.987 40.5576C184.96 40.7002 184.955 40.812 184.972 40.8931C185.01 40.9378 185.042 40.9769 185.067 41.0106C185.105 41.0435 185.131 41.0889 185.146 41.1466C185.219 41.1891 185.274 41.2151 185.309 41.2247C185.358 41.2569 185.431 41.2935 185.528 41.3346L185.696 41.5004C185.775 41.836 185.739 42.1082 185.588 42.3171C185.426 42.5501 185.134 42.6795 184.713 42.7054L184.503 42.7183C184.441 42.6634 184.403 42.6187 184.389 42.5844C184.293 42.555 184.215 42.5304 184.156 42.5106C184.096 42.4908 184.04 42.4472 183.989 42.3799C183.833 42.3191 183.706 42.2681 183.61 42.2271L183.447 42.149C183.439 42.0204 183.434 41.9502 183.434 41.9385C183.345 41.8382 183.274 41.7252 183.219 41.5994C183.176 41.4729 183.139 41.346 183.108 41.2188C183.078 41.115 183.042 41.0173 183.002 40.9259C182.973 40.8338 182.932 40.7541 182.881 40.6867C182.816 40.0098 182.846 39.4327 182.969 38.9555C183.092 38.4783 183.223 38.0183 183.36 37.5755C183.439 37.3358 183.518 37.0961 183.597 36.8564C183.676 36.6051 183.742 36.3486 183.797 36.0869L183.944 35.9018C184.014 35.7096 184.069 35.5536 184.109 35.4338C184.16 35.3015 184.21 35.1693 184.261 35.037C184.291 34.953 184.315 34.8752 184.335 34.8036C184.365 34.7195 184.39 34.6476 184.409 34.5876C184.339 34.592 184.275 34.6017 184.217 34.617C184.159 34.6206 184.101 34.63 184.043 34.6453C183.974 34.6613 183.91 34.677 183.852 34.6923C183.794 34.6958 183.735 34.6994 183.677 34.703C183.595 34.708 183.536 34.7058 183.5 34.6962C183.375 34.7626 183.237 34.8005 183.085 34.8098L182.909 34.8205C182.874 34.8227 182.839 34.8248 182.804 34.827C182.78 34.8167 182.756 34.8123 182.733 34.8137C182.616 34.8209 182.523 34.8442 182.455 34.8836C182.315 34.8922 182.18 34.9005 182.052 34.9083L181.876 34.9191C181.853 34.9205 181.824 34.9282 181.789 34.942C181.754 34.9442 181.725 34.946 181.702 34.9474C181.62 34.9524 181.532 34.952 181.437 34.946C181.342 34.9283 181.24 34.8935 181.132 34.8415C180.98 34.6629 180.88 34.5692 180.833 34.5604L180.662 34.3596C180.646 34.2901 180.624 34.2268 180.597 34.1698C180.57 34.101 180.542 34.0264 180.513 33.946C180.459 33.8319 180.405 33.712 180.35 33.5862C180.307 33.448 180.279 33.2853 180.267 33.0981C180.273 33.0038 180.292 32.9322 180.325 32.8833C180.357 32.8343 180.384 32.7916 180.405 32.7551L180.441 32.4887L180.671 32.4922L181.162 32.4621C181.536 32.4392 181.916 32.4042 182.3 32.3571C182.684 32.2983 183.079 32.2389 183.487 32.1787C183.719 32.1409 183.952 32.1032 184.184 32.0654C184.428 32.027 184.678 31.9882 184.934 31.949C184.975 31.8409 185.015 31.7386 185.056 31.6421L185.227 31.5436C185.436 31.519 185.584 31.5393 185.671 31.6045C185.768 31.6572 185.847 31.711 185.909 31.7659C186.165 31.7268 186.421 31.6876 186.677 31.6484C186.944 31.5968 187.21 31.5394 187.477 31.4761C187.871 31.3932 188.265 31.3162 188.66 31.245C189.067 31.1732 189.457 31.1257 189.831 31.1028C189.995 31.0927 190.153 31.0889 190.306 31.0913C190.459 31.0937 190.6 31.1026 190.73 31.1181L190.913 31.2302C190.953 31.2982 191.003 31.3596 191.066 31.4145C191.139 31.4687 191.213 31.5229 191.287 31.5771C191.435 31.6971 191.585 31.8406 191.736 32.0074C191.887 32.1743 191.955 32.4284 191.941 32.7697C191.856 32.9158 191.791 33.002 191.746 33.0283L191.601 33.2485L191.424 33.2417C191.354 33.246 191.29 33.2617 191.233 33.2886C191.175 33.3039 191.118 33.3251 191.061 33.352C191.016 33.3783 190.97 33.4046 190.925 33.4308C190.879 33.4454 190.827 33.4603 190.769 33.4756C190.664 33.4821 190.576 33.4874 190.506 33.4917C190.447 33.4836 190.382 33.4817 190.312 33.486ZM198.34 39.7564C198.382 40.0591 198.362 40.3128 198.281 40.5173C198.199 40.7219 198.081 40.8994 197.926 41.0498C197.771 41.2002 197.59 41.3228 197.385 41.4176C197.179 41.5124 196.979 41.601 196.785 41.6834C196.688 41.6306 196.59 41.5779 196.493 41.5251C196.407 41.46 196.304 41.4134 196.185 41.3855C196.016 41.1141 195.855 40.8774 195.702 40.6755C195.548 40.4619 195.468 40.2143 195.462 39.9329C195.462 39.9212 195.463 39.8565 195.468 39.7388C195.484 39.6204 195.5 39.4903 195.515 39.3485C195.541 39.206 195.557 39.0759 195.561 38.9582C195.577 38.8281 195.584 38.7572 195.583 38.7455C195.316 38.7854 195.038 38.8611 194.752 38.9726C194.465 39.0841 194.185 39.2128 193.913 39.3587C193.651 39.5039 193.402 39.6483 193.164 39.792C192.938 39.935 192.752 40.058 192.606 40.1609C192.608 40.196 192.59 40.2851 192.552 40.4284C192.513 40.5599 192.463 40.7039 192.402 40.8602C192.34 41.0049 192.272 41.1382 192.198 41.2602C192.123 41.3822 192.045 41.4457 191.963 41.4507C191.977 41.4851 191.996 41.5191 192.022 41.5528C192.047 41.5864 192.05 41.6332 192.03 41.6931C191.87 41.7499 191.727 41.8174 191.603 41.8955C191.479 41.9852 191.348 42.0578 191.211 42.1132C191.074 42.1803 190.924 42.2189 190.76 42.2289C190.596 42.2389 190.4 42.1923 190.17 42.089C190.166 42.0188 190.133 41.9621 190.072 41.9189C190.01 41.864 189.943 41.8211 189.87 41.7904C189.809 41.7472 189.754 41.7153 189.706 41.6948C189.657 41.6625 189.632 41.6347 189.63 41.6113C189.573 41.6266 189.547 41.5871 189.553 41.4928C189.559 41.3985 189.604 41.3723 189.689 41.414C189.55 41.2582 189.459 41.1228 189.417 41.008C189.386 40.8808 189.312 40.7268 189.195 40.5461C189.217 40.5213 189.238 40.4789 189.258 40.419C189.266 40.3598 189.274 40.3065 189.283 40.259C189.292 40.2115 189.307 40.1753 189.329 40.1505C189.351 40.1256 189.381 40.1297 189.418 40.1626C189.388 40.0588 189.383 39.9711 189.402 39.8995C189.421 39.8278 189.441 39.7621 189.46 39.7022C189.48 39.6422 189.494 39.5827 189.502 39.5235C189.51 39.4643 189.489 39.401 189.438 39.3337C189.609 39.0649 189.715 38.7825 189.756 38.4865C189.795 38.1788 189.814 37.9018 189.81 37.6554C189.887 37.5685 189.95 37.4472 189.999 37.2916C190.06 37.1352 190.104 36.9799 190.129 36.8257C190.154 36.6598 190.157 36.5071 190.136 36.3674C190.127 36.2154 190.102 36.0936 190.061 36.0022C190.069 35.943 190.133 35.9215 190.251 35.9377C190.297 35.5474 190.318 35.1118 190.312 34.6308C190.317 34.1374 190.341 33.6721 190.385 33.235C190.428 32.7862 190.521 32.3931 190.665 32.0555C190.807 31.7063 191.057 31.4679 191.413 31.3404C191.498 31.5817 191.599 31.7927 191.716 31.9734C191.845 32.1534 191.979 32.3272 192.118 32.4947C192.268 32.6499 192.413 32.8112 192.553 32.9788C192.704 33.1456 192.845 33.3366 192.975 33.5517C192.977 33.7746 192.97 34.0334 192.952 34.328C192.935 34.6225 192.907 34.9237 192.867 35.2314C192.839 35.5383 192.804 35.834 192.763 36.1183C192.733 36.4019 192.701 36.6445 192.667 36.8463C192.682 36.904 192.713 36.9373 192.761 36.9462C192.82 36.9543 192.835 37.0062 192.806 37.1019C193.082 37.0145 193.37 36.9323 193.671 36.8551C193.971 36.778 194.272 36.695 194.571 36.6062C194.871 36.5173 195.159 36.4234 195.435 36.3243C195.721 36.2128 195.984 36.0852 196.221 35.9414C196.252 35.4817 196.3 35.0209 196.366 34.5589C196.431 34.097 196.414 33.6284 196.315 33.1532C196.37 33.1028 196.413 33.0414 196.444 32.9691C196.475 32.8968 196.531 32.8464 196.611 32.818C196.539 32.5993 196.501 32.3668 196.498 32.1205C196.494 31.8741 196.521 31.6377 196.578 31.4112C196.646 31.1839 196.745 30.9899 196.877 30.8293C197.019 30.6562 197.193 30.5398 197.401 30.4801C197.541 30.6594 197.665 30.8572 197.772 31.0737C197.879 31.2785 197.985 31.4892 198.093 31.7057C198.211 31.9098 198.329 32.108 198.446 32.3004C198.575 32.4804 198.731 32.6352 198.915 32.7648C198.971 33.1018 199.016 33.4513 199.05 33.8132C199.095 34.1744 199.135 34.5417 199.17 34.9153C199.104 35.3655 199.025 35.8048 198.934 36.233C198.854 36.6489 198.804 37.0921 198.786 37.5629C198.71 37.6615 198.652 37.7707 198.613 37.8905C198.573 38.0104 198.534 38.1361 198.495 38.2676C198.455 38.3874 198.41 38.5076 198.359 38.6282C198.307 38.737 198.242 38.8349 198.165 38.9218C198.221 39.0593 198.235 39.1935 198.208 39.3243C198.191 39.4427 198.235 39.5867 198.34 39.7564ZM203.562 39.9117C203.642 40.259 203.636 40.5353 203.543 40.7406C203.461 40.9452 203.33 41.1 203.148 41.2051C202.979 41.3211 202.778 41.3922 202.545 41.4182C202.312 41.4442 202.089 41.4462 201.876 41.424C201.749 41.2674 201.631 41.0692 201.523 40.8293C201.414 40.5894 201.311 40.3433 201.213 40.091C201.115 39.827 201.023 39.5684 200.937 39.3154C200.862 39.0617 200.796 38.8368 200.737 38.6408C200.787 38.4969 200.812 38.3368 200.813 38.1607C200.825 37.9721 200.825 37.7842 200.814 37.5971C200.814 37.4092 200.808 37.2217 200.797 37.0345C200.796 36.835 200.802 36.6468 200.815 36.4699C200.867 35.9736 200.955 35.4985 201.08 35.0447C201.216 34.5902 201.317 34.1203 201.381 33.635C201.398 33.5283 201.38 33.4296 201.328 33.3389C201.287 33.2475 201.275 33.1601 201.294 33.0768C201.303 33.0293 201.336 32.9979 201.394 32.9826C201.451 32.9556 201.483 32.9125 201.491 32.8533C201.519 32.7225 201.518 32.6169 201.49 32.5364C201.473 32.4553 201.49 32.3544 201.542 32.2339C201.594 32.1367 201.656 31.9979 201.727 31.8174C201.809 31.6245 201.833 31.4294 201.797 31.232C201.898 31.1553 201.992 31.0674 202.08 30.9681C202.168 30.8687 202.257 30.7811 202.346 30.7052C202.446 30.6169 202.553 30.5399 202.666 30.4742C202.791 30.4079 202.942 30.3693 203.117 30.3585C203.218 30.4698 203.284 30.5948 203.316 30.7338C203.36 30.872 203.398 31.0105 203.43 31.1495C203.474 31.2877 203.529 31.4193 203.595 31.5444C203.661 31.6578 203.766 31.7453 203.91 31.8068C203.916 31.9004 203.923 32.0174 203.932 32.1577C203.941 32.2981 203.955 32.4381 203.975 32.5777C203.995 32.7057 204.026 32.8271 204.068 32.9419C204.121 33.0443 204.196 33.1102 204.292 33.1395C204.115 33.7139 203.951 34.2817 203.797 34.8429C203.656 35.4034 203.543 35.968 203.461 36.5366C203.378 37.0935 203.336 37.6538 203.335 38.2174C203.346 38.7802 203.422 39.345 203.562 39.9117ZM205.469 33.1025C205.536 32.8519 205.652 32.6334 205.817 32.4472C205.993 32.2603 206.183 32.1019 206.386 31.972C206.601 31.8297 206.822 31.7105 207.051 31.6143C207.28 31.518 207.498 31.4342 207.705 31.3628C208.161 31.1353 208.646 30.9177 209.162 30.7099C209.688 30.4898 210.222 30.2927 210.763 30.1186C211.316 29.9438 211.884 29.821 212.467 29.75C213.049 29.6674 213.667 29.6999 214.322 29.8476C214.364 29.9624 214.424 30.0703 214.5 30.1713C214.577 30.2722 214.653 30.3732 214.73 30.4742C214.818 30.5744 214.895 30.6754 214.96 30.7771C215.024 30.867 215.065 30.9643 215.084 31.0689C215.207 31.167 215.308 31.2782 215.386 31.4026C215.463 31.5152 215.484 31.6724 215.45 31.8741C215.339 31.9749 215.227 32.0698 215.115 32.1588C215.014 32.2355 214.901 32.307 214.776 32.3733C214.337 32.2946 213.896 32.2864 213.454 32.3488C213.011 32.4111 212.615 32.4647 212.266 32.5096C212.154 32.4108 212.022 32.3661 211.87 32.3754C211.73 32.384 211.579 32.4167 211.418 32.4736C211.269 32.5297 211.114 32.5861 210.953 32.643C210.804 32.6991 210.659 32.7197 210.517 32.705C210.406 32.8057 210.263 32.879 210.09 32.9248C209.928 32.9583 209.748 32.9928 209.55 33.0284C209.542 33.0876 209.557 33.1278 209.593 33.149C209.629 33.1586 209.637 33.1933 209.617 33.2532C209.692 33.3308 209.784 33.3839 209.891 33.4126C210.01 33.4405 210.129 33.4684 210.248 33.4963C210.379 33.5235 210.493 33.5635 210.59 33.6162C210.687 33.6573 210.756 33.7352 210.798 33.85C210.974 33.8393 211.128 33.8709 211.262 33.9449C211.396 34.0189 211.507 34.1118 211.596 34.2238C211.685 34.3357 211.752 34.4608 211.795 34.599C211.85 34.7248 211.881 34.8403 211.887 34.9456C211.928 35.037 211.971 35.0755 212.017 35.0609C212.063 35.0463 212.118 35.0665 212.18 35.1214C212.224 35.2713 212.321 35.4238 212.472 35.579C212.622 35.7224 212.743 35.8852 212.836 36.0673C212.878 36.3583 212.911 36.6204 212.937 36.8536C212.963 37.0752 212.936 37.3058 212.857 37.5454C212.708 37.989 212.486 38.39 212.191 38.7486C211.907 39.1065 211.575 39.4321 211.194 39.7255C210.824 40.0065 210.422 40.2542 209.989 40.4686C209.556 40.683 209.133 40.8675 208.72 41.0219C208.672 41.0131 208.626 41.016 208.579 41.0305C208.533 41.0451 208.52 41.0166 208.539 40.945C208.45 41.0326 208.348 41.0917 208.233 41.1222C208.129 41.1521 208.012 41.1651 207.883 41.1613C207.754 41.1692 207.619 41.1716 207.478 41.1685C207.349 41.1647 207.227 41.1781 207.111 41.2086C207.024 41.1318 206.943 41.0546 206.868 40.977C206.805 40.9104 206.753 40.8197 206.71 40.7049C206.652 40.7085 206.621 40.681 206.617 40.6225C206.625 40.5633 206.606 40.5352 206.559 40.538C206.622 40.4168 206.648 40.3506 206.635 40.3397C206.634 40.3163 206.615 40.2998 206.579 40.2903C206.555 40.28 206.531 40.2697 206.507 40.2595C206.482 40.2375 206.474 40.2086 206.484 40.1728C206.525 40.0764 206.536 39.97 206.517 39.8538C206.498 39.7258 206.478 39.5979 206.458 39.4699C206.439 39.342 206.437 39.2188 206.453 39.1004C206.481 38.9813 206.563 38.8823 206.699 38.8036C207.1 38.826 207.474 38.7913 207.82 38.6996C208.178 38.5955 208.51 38.4636 208.817 38.3038C209.125 38.1441 209.413 37.9738 209.684 37.7928C209.967 37.6111 210.244 37.4473 210.517 37.3015C210.546 37.194 210.587 37.1034 210.641 37.0297C210.707 36.9552 210.773 36.8866 210.84 36.8238C210.906 36.761 210.967 36.6927 211.021 36.6189C211.075 36.5452 211.111 36.4549 211.128 36.3482C211.134 36.2656 211.108 36.2203 211.049 36.2122C211.001 36.1916 210.974 36.1463 210.97 36.0761L210.774 36.0353C210.544 35.9203 210.286 35.8304 210 35.7658C209.714 35.6894 209.468 35.6047 209.262 35.5116C209.138 35.5897 209.016 35.6147 208.897 35.5868C208.79 35.5582 208.647 35.5317 208.47 35.5074C208.071 35.5084 207.682 35.4911 207.304 35.4556C206.938 35.4193 206.581 35.3356 206.232 35.2043C206.205 35.1473 206.173 35.0964 206.135 35.0518C206.097 35.0071 206.032 34.9994 205.94 35.0285C205.864 34.9393 205.788 34.8558 205.713 34.7783C205.637 34.689 205.567 34.5935 205.502 34.4918C205.516 34.35 205.527 34.232 205.533 34.1377C205.538 34.0317 205.497 33.9344 205.409 33.8459C205.447 33.691 205.474 33.566 205.492 33.471C205.51 33.376 205.502 33.2532 205.469 33.1025Z" fill="#7856FF"/>
<path d="M114.196 3.54292C114.237 3.50211 114.269 3.48562 114.293 3.48894C113.513 5.13859 112.624 6.60043 111.432 8.05644C110.974 8.61717 107.902 11.4771 109.543 9.63093C111.179 7.7902 112.409 5.33014 114.196 3.54292Z" fill="#7856FF"/>
<path d="M108.598 29.1545C109.572 26.3409 110.283 23.5111 111.1 20.6523C112.204 16.7895 113.436 12.8041 113.951 8.8087C114.12 7.50571 114.266 6.25595 114.266 4.94246C114.266 4.47536 114.527 3.21263 114.196 3.54292C112.409 5.33014 111.179 7.7902 109.543 9.63093C107.902 11.4771 110.974 8.61717 111.432 8.05644C112.773 6.41828 113.731 4.77274 114.581 2.86064C114.796 2.37643 115.313 2.12508 115.508 1.63604C115.552 1.52701 115.542 2.28579 115.543 2.30082C115.642 3.63093 116.055 4.90799 116.471 6.16706C117.143 8.20476 117.791 10.2717 118.517 12.2901C118.709 12.8219 118.839 13.8067 119.305 14.0395" stroke="#7856FF" stroke-width="3" stroke-linecap="round"/>
</svg>
