<svg width="42" height="41" viewBox="0 0 42 41" fill="none" xmlns="http://www.w3.org/2000/svg">
<g clip-path="url(#clip0_1_6567)">
<path d="M20.1436 0.125L20.794 2.12666L22.8986 2.12671L21.196 3.36389L21.8463 5.36557L20.1436 4.12853L18.4407 5.36554L19.091 3.36386L17.3884 2.12669L19.493 2.12661L20.1436 0.125Z" fill="#9F9F9F"/>
<path d="M20.1436 34.885L20.794 36.8867H22.8986L21.196 38.1239L21.8463 40.1257L20.1436 38.8886L18.4407 40.1257L19.091 38.1239L17.3884 36.8867H19.493L20.1436 34.885Z" fill="#9F9F9F"/>
<path d="M37.5152 17.5134L38.1656 19.515L40.2703 19.5151L38.5676 20.7523L39.2179 22.754L37.5152 21.517L35.8124 22.754L36.4627 20.7523L34.76 19.5151L36.8647 19.515L37.5152 17.5134Z" fill="#9F9F9F"/>
<path d="M2.75511 17.5134L3.40557 19.515L5.51023 19.5151L3.80757 20.7523L4.45787 22.754L2.75511 21.517L1.05236 22.754L1.70266 20.7523L0 19.5151L2.10466 19.515L2.75511 17.5134Z" fill="#9F9F9F"/>
<path d="M35.1993 8.80803L35.8497 10.8097L37.9544 10.8098L36.2517 12.0469L36.902 14.0486L35.1993 12.8116L33.4966 14.0486L34.1469 12.0469L32.4442 10.8098L34.5489 10.8097L35.1993 8.80803Z" fill="#9F9F9F"/>
<path d="M28.821 2.43527L29.4714 4.43692L31.5761 4.43699L29.8734 5.67416L30.5237 7.67584L28.821 6.43883L27.1181 7.67584L27.7686 5.67416L26.0659 4.43699L28.1704 4.43692L28.821 2.43527Z" fill="#9F9F9F"/>
<path d="M11.4382 32.5691L12.0886 34.5709H14.1933L12.4906 35.8081L13.1409 37.8099L11.4382 36.5727L9.73542 37.8099L10.3857 35.8081L8.68304 34.5709H10.7877L11.4382 32.5691Z" fill="#9F9F9F"/>
<path d="M5.06536 26.1909L5.71581 28.1926H7.82047L6.11781 29.4297L6.76811 31.4314L5.06536 30.1944L3.3626 31.4314L4.0129 29.4297L2.31024 28.1926H4.41488L5.06536 26.1909Z" fill="#9F9F9F"/>
<path d="M5.06536 8.80803L5.71581 10.8097L7.82047 10.8098L6.11781 12.0469L6.76811 14.0486L5.06536 12.8116L3.3626 14.0486L4.0129 12.0469L2.31024 10.8098L4.41488 10.8097L5.06536 8.80803Z" fill="#9F9F9F"/>
<path d="M35.1993 26.1909L35.8497 28.1926H37.9544L36.2517 29.4297L36.902 31.4314L35.1993 30.1944L33.4966 31.4314L34.1469 29.4297L32.4442 28.1926H34.5489L35.1993 26.1909Z" fill="#9F9F9F"/>
<path d="M11.4382 2.43527L12.0886 4.43692L14.1933 4.43699L12.4906 5.67416L13.1409 7.67584L11.4382 6.43883L9.73542 7.67584L10.3857 5.67416L8.68304 4.43699L10.7877 4.43692L11.4382 2.43527Z" fill="#9F9F9F"/>
<path d="M28.821 32.5691L29.4714 34.5709H31.5761L29.8734 35.8081L30.5237 37.8099L28.821 36.5727L27.1181 37.8099L27.7686 35.8081L26.0659 34.5709H28.1704L28.821 32.5691Z" fill="#9F9F9F"/>
<path d="M26.6327 17.5804H13.631C12.5194 17.5804 11.6183 18.4814 11.6183 19.593V29.1894C11.6183 30.301 12.5194 31.2021 13.631 31.2021H26.6327C27.7443 31.2021 28.6454 30.301 28.6454 29.1894V19.593C28.6454 18.4814 27.7443 17.5804 26.6327 17.5804ZM21.0024 24.5663C21.0186 24.6334 21.0273 24.7034 21.0273 24.7754V26.497C21.0273 26.9926 20.6218 27.3981 20.1261 27.3981C19.6304 27.3981 19.2248 26.9926 19.2248 26.497V24.7754C19.2248 24.7013 19.2341 24.6293 19.2511 24.5603C18.7543 24.2611 18.4218 23.7166 18.4218 23.0943C18.4218 22.1499 19.1876 21.3841 20.1318 21.3841C21.0763 21.3841 21.842 22.1499 21.842 23.0943C21.8418 23.7207 21.505 24.2684 21.0024 24.5663Z" fill="#404040"/>
<path d="M22.1521 9.40311C21.5091 9.16919 20.8514 9.06369 20.185 9.06474C19.5186 9.06369 18.7704 9.16916 18.1274 9.40311C15.1314 10.493 14.0432 13.1825 14.1932 16.7428H16.6801C16.5406 14.2894 17.1744 12.6362 18.7237 11.93C19.6213 11.5209 20.658 11.5209 21.5556 11.93C23.105 12.6362 23.7389 14.2894 23.5991 16.7428H26.0863C26.2363 13.1825 25.148 10.493 22.1521 9.40311Z" fill="#404040"/>
</g>
<defs>
<clipPath id="clip0_1_6567">
<rect width="41.4286" height="40" fill="white" transform="translate(0 0.125)"/>
</clipPath>
</defs>
</svg>
