<svg width="25" height="24" viewBox="0 0 25 24" fill="none" xmlns="http://www.w3.org/2000/svg">
<g opacity="0.5">
<path opacity="0.12" d="M3.58334 7.8C3.58334 6.11984 3.58334 5.27976 3.91032 4.63803C4.19794 4.07354 4.65688 3.6146 5.22136 3.32698C5.8631 3 6.70318 3 8.38334 3H16.7833C18.4635 3 19.3036 3 19.9453 3.32698C20.5098 3.6146 20.9687 4.07354 21.2564 4.63803C21.5833 5.27976 21.5833 6.11984 21.5833 7.8V16.2C21.5833 17.8802 21.5833 18.7202 21.2564 19.362C20.9687 19.9265 20.5098 20.3854 19.9453 20.673C19.3036 21 18.4635 21 16.7833 21H8.38334C6.70318 21 5.8631 21 5.22136 20.673C4.65688 20.3854 4.19794 19.9265 3.91032 19.362C3.58334 18.7202 3.58334 17.8802 3.58334 16.2V7.8Z" fill="black"/>
<path d="M9.58334 11L12.5833 14L22.5833 4M16.5833 3H8.38334C6.70318 3 5.8631 3 5.22136 3.32698C4.65688 3.6146 4.19794 4.07354 3.91032 4.63803C3.58334 5.27976 3.58334 6.11984 3.58334 7.8V16.2C3.58334 17.8802 3.58334 18.7202 3.91032 19.362C4.19794 19.9265 4.65688 20.3854 5.22136 20.673C5.8631 21 6.70318 21 8.38334 21H16.7833C18.4635 21 19.3036 21 19.9453 20.673C20.5098 20.3854 20.9687 19.9265 21.2564 19.362C21.5833 18.7202 21.5833 17.8802 21.5833 16.2V12" stroke="black" stroke-width="1.5" stroke-linecap="round" stroke-linejoin="round"/>
</g>
</svg>
