<svg width="25" height="24" viewBox="0 0 25 24" fill="none" xmlns="http://www.w3.org/2000/svg">
<g opacity="0.5">
<path opacity="0.12" d="M3.41664 7.8C3.41664 6.11984 3.41664 5.27976 3.74362 4.63803C4.03124 4.07354 4.49018 3.6146 5.05467 3.32698C5.6964 3 6.53648 3 8.21664 3H16.6166C18.2968 3 19.1369 3 19.7786 3.32698C20.3431 3.6146 20.802 4.07354 21.0897 4.63803C21.4166 5.27976 21.4166 6.11984 21.4166 7.8V13.2C21.4166 14.8802 21.4166 15.7202 21.0897 16.362C20.802 16.9265 20.3431 17.3854 19.7786 17.673C19.1369 18 18.2968 18 16.6166 18H14.1004C13.4763 18 13.1643 18 12.8659 18.0613C12.6011 18.1156 12.3448 18.2055 12.1041 18.3285C11.8328 18.4671 11.5892 18.662 11.1019 19.0518L8.7164 20.9602C8.30031 21.2931 8.09227 21.4595 7.91718 21.4597C7.76491 21.4599 7.62086 21.3906 7.52587 21.2716C7.41664 21.1348 7.41664 20.8684 7.41664 20.3355V18C6.48667 18 6.02168 18 5.64018 17.8978C4.60491 17.6204 3.79627 16.8117 3.51886 15.7765C3.41664 15.395 3.41664 14.93 3.41664 14V7.8Z" fill="black"/>
<path d="M8.91664 12.5C8.91664 12.5 10.2291 14 12.4166 14C14.6041 14 15.9166 12.5 15.9166 12.5M15.1666 7.5H15.1766M9.66664 7.5H9.67664M7.41664 18V20.3355C7.41664 20.8684 7.41664 21.1348 7.52587 21.2716C7.62086 21.3906 7.76491 21.4599 7.91718 21.4597C8.09227 21.4595 8.30031 21.2931 8.7164 20.9602L11.1019 19.0518C11.5892 18.662 11.8328 18.4671 12.1041 18.3285C12.3448 18.2055 12.6011 18.1156 12.8659 18.0613C13.1643 18 13.4763 18 14.1004 18H16.6166C18.2968 18 19.1369 18 19.7786 17.673C20.3431 17.3854 20.802 16.9265 21.0897 16.362C21.4166 15.7202 21.4166 14.8802 21.4166 13.2V7.8C21.4166 6.11984 21.4166 5.27976 21.0897 4.63803C20.802 4.07354 20.3431 3.6146 19.7786 3.32698C19.1369 3 18.2968 3 16.6166 3H8.21664C6.53648 3 5.6964 3 5.05467 3.32698C4.49018 3.6146 4.03124 4.07354 3.74362 4.63803C3.41664 5.27976 3.41664 6.11984 3.41664 7.8V14C3.41664 14.93 3.41664 15.395 3.51886 15.7765C3.79627 16.8117 4.60491 17.6204 5.64018 17.8978C6.02168 18 6.48667 18 7.41664 18ZM15.6666 7.5C15.6666 7.77614 15.4428 8 15.1666 8C14.8905 8 14.6666 7.77614 14.6666 7.5C14.6666 7.22386 14.8905 7 15.1666 7C15.4428 7 15.6666 7.22386 15.6666 7.5ZM10.1666 7.5C10.1666 7.77614 9.94278 8 9.66664 8C9.3905 8 9.16664 7.77614 9.16664 7.5C9.16664 7.22386 9.3905 7 9.66664 7C9.94278 7 10.1666 7.22386 10.1666 7.5Z" stroke="black" stroke-width="1.5" stroke-linecap="round" stroke-linejoin="round"/>
</g>
</svg>
