<svg width="25" height="24" viewBox="0 0 25 24" fill="none" xmlns="http://www.w3.org/2000/svg">
<g opacity="0.5">
<path opacity="0.12" d="M5.75 7.8C5.75 6.11984 5.75 5.27976 6.07698 4.63803C6.3646 4.07354 6.82354 3.6146 7.38803 3.32698C8.02976 3 8.86984 3 10.55 3H14.95C16.6302 3 17.4702 3 18.112 3.32698C18.6765 3.6146 19.1354 4.07354 19.423 4.63803C19.75 5.27976 19.75 6.11984 19.75 7.8V21L12.75 17L5.75 21V7.8Z" fill="black"/>
<path d="M5.75 7.8C5.75 6.11984 5.75 5.27976 6.07698 4.63803C6.3646 4.07354 6.82354 3.6146 7.38803 3.32698C8.02976 3 8.86984 3 10.55 3H14.95C16.6302 3 17.4702 3 18.112 3.32698C18.6765 3.6146 19.1354 4.07354 19.423 4.63803C19.75 5.27976 19.75 6.11984 19.75 7.8V21L12.75 17L5.75 21V7.8Z" stroke="black" stroke-width="1.5" stroke-linecap="round" stroke-linejoin="round"/>
</g>
</svg>
