<svg width="25" height="24" viewBox="0 0 25 24" fill="none" xmlns="http://www.w3.org/2000/svg">
<path opacity="0.12" d="M4.25 3H19.837C20.2995 3 20.5308 3 20.6628 3.09698C20.778 3.18154 20.8515 3.31133 20.8647 3.45359C20.88 3.61674 20.761 3.81503 20.523 4.2116L18.497 7.5884C18.4072 7.73805 18.3623 7.81288 18.3447 7.89276C18.3292 7.96341 18.3292 8.03659 18.3447 8.10724C18.3623 8.18712 18.4072 8.26195 18.497 8.4116L20.523 11.7884C20.761 12.185 20.88 12.3833 20.8647 12.5464C20.8515 12.6887 20.778 12.8185 20.6628 12.903C20.5308 13 20.2995 13 19.837 13H4.25V3Z" fill="#7856FF"/>
<path d="M4.25 13H19.837C20.2995 13 20.5308 13 20.6628 12.903C20.778 12.8185 20.8515 12.6887 20.8647 12.5464C20.88 12.3833 20.761 12.185 20.523 11.7884L18.497 8.4116C18.4072 8.26195 18.3623 8.18712 18.3447 8.10724C18.3292 8.03659 18.3292 7.96341 18.3447 7.89276C18.3623 7.81288 18.4072 7.73805 18.497 7.5884L20.523 4.2116C20.761 3.81503 20.88 3.61674 20.8647 3.45359C20.8515 3.31133 20.778 3.18154 20.6628 3.09698C20.5308 3 20.2995 3 19.837 3H4.25L4.25 21" stroke="#7856FF" stroke-width="1.5" stroke-linecap="round" stroke-linejoin="round"/>
</svg>
