<svg width="40" height="40" viewBox="0 0 40 40" fill="none" xmlns="http://www.w3.org/2000/svg">
<rect width="40" height="40" rx="10" fill="url(#paint0_linear_1_9894)"/>
<path fill-rule="evenodd" clip-rule="evenodd" d="M25.5032 17.5087C25.7553 17.4413 25.9064 17.1822 25.8232 16.9353C25.3025 15.39 24.2923 14.05 22.9386 13.1218C21.4548 12.1043 19.6558 11.6485 17.8652 11.8363C16.0745 12.0241 14.4098 12.8431 13.1704 14.1461C11.931 15.4491 11.1984 17.1506 11.1041 18.9445C11.0099 20.7383 11.5603 22.5069 12.6564 23.932C13.7524 25.3572 15.3222 26.3453 17.0834 26.7188C18.8445 27.0923 20.6814 26.8266 22.2637 25.9694C23.0276 25.5556 23.708 25.0171 24.28 24.382L30.8133 26.9047L30.822 26.8831C31.089 26.9609 31.3756 26.8225 31.477 26.5588L32.0577 25.0495C32.1529 24.8023 32.0532 24.5282 31.8339 24.3957L31.8376 24.3864L30.7957 23.9889L25.2247 21.8554C25.2201 21.8535 25.2155 21.8517 25.2109 21.8499L23.6779 21.2628C23.6438 21.2497 23.6093 21.2404 23.5746 21.2345L23.5572 21.2279L23.555 21.2316C23.3129 21.1997 23.0697 21.3352 22.9524 21.5609C22.5092 22.4142 21.8185 23.1202 20.9648 23.5826C19.9521 24.1311 18.7765 24.3012 17.6493 24.0622C16.5223 23.8232 15.5176 23.1907 14.8161 22.2786C14.1146 21.3665 13.7623 20.2347 13.8226 19.0866C13.883 17.9386 14.3518 16.8496 15.1451 16.0157C15.9383 15.1818 17.0037 14.6575 18.1497 14.5374C19.2957 14.4172 20.447 14.7089 21.3967 15.3601C22.1973 15.9091 22.8102 16.6831 23.1617 17.578C23.2704 17.8551 23.5638 18.0272 23.8519 17.9502L25.5032 17.5087Z" fill="white"/>
<rect x="0.5" y="0.5" width="39" height="39" rx="9.5" stroke="url(#paint1_linear_1_9894)" stroke-opacity="0.33"/>
<rect x="0.5" y="0.5" width="39" height="39" rx="9.5" stroke="url(#paint2_linear_1_9894)" stroke-opacity="0.2"/>
<defs>
<linearGradient id="paint0_linear_1_9894" x1="14" y1="16.75" x2="33" y2="34.75" gradientUnits="userSpaceOnUse">
<stop/>
<stop offset="0.40209" stop-color="#201E1E"/>
<stop offset="0.812931"/>
<stop offset="1" stop-color="#201E1E"/>
</linearGradient>
<linearGradient id="paint1_linear_1_9894" x1="36.25" y1="4.4005e-07" x2="8.125" y2="40" gradientUnits="userSpaceOnUse">
<stop stop-color="white"/>
<stop offset="1" stop-color="#878787"/>
</linearGradient>
<linearGradient id="paint2_linear_1_9894" x1="44" y1="9.75" x2="19" y2="-2.25" gradientUnits="userSpaceOnUse">
<stop offset="0.264674" stop-opacity="0"/>
<stop offset="0.464824" stop-color="white"/>
<stop offset="0.620309" stop-opacity="0"/>
</linearGradient>
</defs>
</svg>
