<svg width="46" height="46" viewBox="0 0 46 46" fill="none" xmlns="http://www.w3.org/2000/svg">
<path d="M23 1.5C11.1259 1.5 1.5 11.1259 1.5 23C1.5 34.8741 11.1259 44.5 23 44.5C34.8741 44.5 44.5 34.8741 44.5 23C44.5 11.1259 34.8741 1.5 23 1.5Z" fill="black"/>
<path d="M28.5398 22.3896L19.9842 16.0896C19.8185 15.9678 19.6163 15.9706 19.4527 16.0952C19.288 16.2212 19.1875 16.4508 19.1875 16.7V29.3C19.1875 29.5492 19.288 29.7788 19.4527 29.9048C19.5361 29.9678 19.6292 30 19.7222 30C19.8121 30 19.903 29.9706 19.9842 29.9104L28.5398 23.6104C28.7077 23.4858 28.8125 23.2534 28.8125 23C28.8125 22.7466 28.7077 22.5142 28.5398 22.3896Z" fill="white"/>
<path d="M23 1.5C11.1259 1.5 1.5 11.1259 1.5 23C1.5 34.8741 11.1259 44.5 23 44.5C34.8741 44.5 44.5 34.8741 44.5 23C44.5 11.1259 34.8741 1.5 23 1.5Z" stroke="#7856FF" stroke-width="3"/>
</svg>
