<svg width="117" height="52" viewBox="0 0 117 52" fill="none" xmlns="http://www.w3.org/2000/svg">
<path d="M10.9069 18.9546C10.8452 19.1566 10.7485 19.366 10.6169 19.5827C10.4966 19.7872 10.3463 19.9754 10.1659 20.1473C9.99673 20.307 9.80316 20.4442 9.58519 20.559C9.36721 20.6739 9.13553 20.7424 8.89016 20.7645C8.73646 20.7359 8.62934 20.6994 8.56881 20.655C8.52049 20.6219 8.46631 20.589 8.40627 20.5563C8.37016 20.5344 8.33428 20.5184 8.29866 20.5081C8.27425 20.4857 8.25009 20.4692 8.22617 20.4584L8.0117 20.3796L8.07225 20.1483C8.09168 20.0536 8.08284 19.9836 8.04573 19.9383C8.00812 19.8812 7.93464 19.8081 7.82528 19.7189C7.78866 19.6853 7.75205 19.6517 7.71543 19.618C7.67881 19.5844 7.64805 19.5505 7.62314 19.5164L7.31041 19.1954L7.77937 19.0523C8.06859 18.9579 8.2573 18.8443 8.34549 18.7116C8.44539 18.5783 8.47717 18.36 8.44082 18.0565C8.20466 18.0197 8.00538 18.0223 7.84295 18.0643C7.69224 18.1059 7.53592 18.1536 7.374 18.2074C7.16574 18.2749 6.95137 18.3368 6.73091 18.3931C6.52165 18.4372 6.28823 18.4647 6.03065 18.4756C5.93699 18.4796 5.84918 18.4833 5.76722 18.4868C5.68476 18.4786 5.59646 18.4706 5.50229 18.4629L5.32518 18.4352C5.29629 18.3074 5.26989 18.2382 5.24597 18.2275C5.22156 18.205 5.19715 18.1826 5.17274 18.1602C5.11171 18.1041 5.04408 18.0308 4.96986 17.9401C4.90684 17.8372 4.88966 17.7089 4.91832 17.5552C4.8553 17.4523 4.8157 17.3485 4.79951 17.2436C4.73523 17.3871 4.68876 17.5356 4.6601 17.6893L4.59732 17.868L4.42319 17.9105C4.40027 17.9232 4.38395 17.9533 4.37423 18.0006C4.36401 18.0362 4.3594 18.0657 4.3604 18.0891L4.28527 18.3914C4.26285 18.4158 4.24043 18.4403 4.21801 18.4647C4.19509 18.4774 4.17242 18.4959 4.15 18.5203C4.13106 18.6267 4.10626 18.7333 4.07562 18.8402C4.04497 18.9471 4.01407 19.0481 3.98293 19.1432C3.93085 19.2979 3.88463 19.4524 3.84427 19.6066C3.81511 19.7486 3.80937 19.8896 3.82705 20.0296L3.76501 20.2257C3.70945 20.2985 3.64755 20.3597 3.57929 20.4096C3.51053 20.4477 3.44177 20.4858 3.37302 20.5239C3.35059 20.5483 3.31646 20.5732 3.27063 20.5986C3.236 20.6118 3.20723 20.6248 3.18431 20.6375L3.13983 20.8329L2.93057 20.877C2.80278 20.9059 2.70986 20.9274 2.65182 20.9416C2.60548 20.9553 2.54719 20.9636 2.47694 20.9666L2.30057 20.9565C2.1673 20.8566 2.0643 20.7789 1.99157 20.7233C1.91833 20.6561 1.83364 20.5951 1.73749 20.5406C1.62614 20.4046 1.56312 20.3017 1.54843 20.2319C1.53374 20.1622 1.51929 20.0983 1.5051 20.0402C1.4787 19.971 1.4645 19.9129 1.46251 19.8661C1.44882 19.8198 1.42976 19.7854 1.40535 19.763L1.16809 19.5619L1.35456 19.3957L1.35943 19.0963C1.56823 18.4893 1.78972 17.9051 2.02392 17.3439C2.26983 16.7822 2.5211 16.2085 2.77772 15.6229C2.86343 15.4315 2.94328 15.2405 3.01728 15.0497C3.10298 14.8584 3.18869 14.6671 3.2744 14.4757C3.2612 14.4411 3.2536 14.4004 3.25161 14.3536C3.24962 14.3067 3.25909 14.2535 3.28002 14.194C3.40035 13.9895 3.49827 13.8094 3.57376 13.6537C3.64875 13.4863 3.72374 13.3189 3.79874 13.1515C3.88394 12.9485 3.9694 12.7513 4.05511 12.56C4.15252 12.3682 4.27311 12.1695 4.41686 11.964L4.69263 11.8292C4.72726 11.816 4.76774 11.8025 4.81407 11.7888C4.85991 11.7634 4.9121 11.7495 4.97064 11.747L5.23557 11.7709C5.55693 11.6048 5.83483 11.3818 6.06926 11.1021C6.30319 10.8107 6.54074 10.4663 6.7819 10.069L6.94708 9.81564L7.18136 9.94644C7.24139 9.97908 7.32484 10.0107 7.43171 10.0414C7.53808 10.0603 7.65055 10.0848 7.76912 10.115C7.98186 10.1529 8.18314 10.1971 8.37296 10.2477C8.56277 10.2983 8.71871 10.3796 8.84077 10.4917C8.91898 10.6761 8.96592 10.8148 8.98161 10.908C8.9973 11.0012 9.01884 11.0941 9.04624 11.1868C9.08982 11.3843 9.12754 11.5821 9.15942 11.7801C9.203 11.9777 9.23587 12.1991 9.25802 12.4445C9.32502 12.6411 9.38031 12.8381 9.42389 13.0357C9.47868 13.221 9.52787 13.4125 9.57145 13.61C9.64193 13.8885 9.71216 14.1612 9.78214 14.428C9.85162 14.6831 9.93817 14.9257 10.0418 15.1559C10.1355 15.1519 10.1942 15.1553 10.2182 15.166C10.2757 15.1401 10.3335 15.12 10.3915 15.1058C10.4613 15.0911 10.5369 15.0762 10.6184 15.061L10.8108 15.0352L10.8885 15.2079C10.9027 15.2659 10.9637 15.322 11.0716 15.376C11.2243 15.3813 11.337 15.4117 11.4098 15.4672C11.482 15.5111 11.5486 15.561 11.6097 15.6171C11.6585 15.6619 11.7068 15.6951 11.7546 15.7165L12.0225 15.8107L11.8932 16.0801C11.7851 16.2958 11.624 16.5079 11.41 16.7164C11.2073 16.9127 10.974 17.0809 10.7101 17.2212C10.7248 17.2909 10.7337 17.3609 10.7367 17.4312C10.7508 17.4892 10.7711 17.5529 10.7975 17.6221C10.8411 17.8197 10.8791 18.0233 10.9115 18.2331C10.9438 18.4428 10.953 18.6594 10.9391 18.8829L10.9069 18.9546ZM5.70236 16.132C6.05261 16.0936 6.36774 16.0568 6.64774 16.0214C6.93895 15.9739 7.25869 15.9075 7.60695 15.8223C7.51007 15.4746 7.40683 15.1154 7.29725 14.7447C7.18717 14.3623 7.07148 13.986 6.95019 13.6158L6.85228 13.7959C6.62856 14.0517 6.41194 14.3366 6.20242 14.6504C6.00461 14.9638 5.83532 15.2584 5.69455 15.5341C5.62878 15.6425 5.56301 15.7508 5.49723 15.8592C5.43146 15.9676 5.37154 16.0757 5.31748 16.1835C5.38723 16.1688 5.45138 16.1602 5.50992 16.1578C5.58017 16.1548 5.64431 16.1462 5.70236 16.132ZM15.5932 17.0313C15.4888 17.0592 15.4155 17.1268 15.3731 17.2342C15.3302 17.3298 15.2876 17.4314 15.2453 17.5387C15.2146 17.6456 15.1779 17.7468 15.135 17.8425C15.1034 17.9259 15.0466 17.9694 14.9646 17.9729C14.9569 18.0671 14.9253 18.1505 14.8697 18.2232C14.8259 18.2955 14.7823 18.3736 14.7389 18.4575C14.6951 18.5298 14.6634 18.6132 14.644 18.7079C14.624 18.7908 14.64 18.8898 14.6918 19.0049C14.6011 19.0792 14.5468 19.1812 14.5289 19.311C14.5109 19.4407 14.4869 19.5649 14.4567 19.6835C14.4383 19.8016 14.3957 19.9031 14.3289 19.988C14.2621 20.073 14.1348 20.1136 13.947 20.1098C13.9139 20.1581 13.9093 20.1877 13.9332 20.1984C13.9571 20.2091 13.9764 20.2493 13.9911 20.3191C13.8613 20.3011 13.762 20.3112 13.6933 20.3493C13.6367 20.3986 13.5619 20.4311 13.4687 20.4468C13.2432 20.386 13.0507 20.2711 12.891 20.1019C12.7431 19.9322 12.6061 19.7445 12.48 19.5388C12.3652 19.3208 12.2562 19.1026 12.1531 18.8841C12.0617 18.6651 11.9715 18.4754 11.8826 18.315C11.9123 18.1847 11.9129 18.0615 11.8845 17.9454C11.8556 17.8176 11.8102 17.714 11.7482 17.6345C12.2701 16.3925 12.8413 15.0663 13.4617 13.6558C14.082 12.2454 14.668 10.8541 15.2197 9.48176C15.4934 9.57569 15.7621 9.68744 16.0256 9.81699C16.3004 9.93434 16.5469 10.0763 16.7651 10.243C16.995 10.4092 17.191 10.6061 17.3532 10.8338C17.5149 11.0498 17.6251 11.2973 17.6838 11.5763C17.6634 11.6476 17.6354 11.6781 17.5998 11.6679C17.5753 11.6454 17.5522 11.6523 17.5303 11.6884C17.5796 11.745 17.6047 11.7849 17.6057 11.8084C17.6184 11.8313 17.6194 11.8547 17.6087 11.8786C17.6097 11.902 17.6112 11.9371 17.6132 11.984C17.6147 12.0191 17.6345 12.071 17.6726 12.1398C17.6253 12.1301 17.5904 12.1374 17.568 12.1618C17.5573 12.1858 17.5221 12.1872 17.4626 12.1663C17.5149 12.2931 17.5311 12.398 17.5111 12.4809C17.5029 12.5634 17.4827 12.6405 17.4506 12.7122C17.418 12.7723 17.3917 12.8438 17.3717 12.9267C17.3513 12.998 17.3611 13.0914 17.4012 13.207C17.3661 13.2085 17.3373 13.2214 17.3149 13.2458C17.3037 13.258 17.2927 13.2761 17.282 13.3C17.2708 13.3122 17.254 13.3305 17.2316 13.3549C17.2204 13.3671 17.197 13.3681 17.1613 13.3579C17.2074 13.614 17.2301 13.8711 17.2293 14.1292C17.2285 14.3872 17.228 14.6512 17.2277 14.921C17.2387 15.1785 17.2562 15.4534 17.2804 15.7456C17.304 16.0261 17.3574 16.3171 17.4406 16.6185C17.8517 16.3547 18.1719 16.0244 18.4014 15.6276C18.6425 15.2303 18.829 14.7884 18.9608 14.3019C19.1044 13.8149 19.2054 13.2945 19.264 12.7408C19.3226 12.187 19.3865 11.6213 19.4558 11.0436C19.5567 10.9337 19.6332 10.8015 19.6852 10.6468C19.7373 10.4921 19.7833 10.3318 19.8232 10.1659C19.8625 9.98826 19.9022 9.8165 19.942 9.6506C19.9814 9.47298 20.0332 9.31243 20.0975 9.16895C20.2741 9.18491 20.423 9.23723 20.544 9.32592C20.6763 9.40241 20.7974 9.4911 20.9072 9.59199C21.0166 9.68118 21.1318 9.77012 21.2528 9.85881C21.3734 9.9358 21.522 9.98227 21.6986 9.99822C21.8475 10.1913 21.9845 10.379 22.1096 10.5614C22.2346 10.7437 22.3192 10.9395 22.3633 11.1488C22.3087 11.2449 22.2664 11.3523 22.2362 11.4709C22.2178 11.5889 22.1935 11.7073 22.1633 11.8258C22.1332 11.9444 22.0911 12.0576 22.037 12.1655C21.9824 12.2616 21.904 12.3471 21.8016 12.4218C21.7794 12.7277 21.7445 13.0107 21.6969 13.2708C21.6605 13.5186 21.6183 13.7667 21.5702 14.0151C21.5338 14.263 21.5037 14.5223 21.4801 14.7931C21.4559 15.0521 21.4564 15.3395 21.4815 15.6551C21.3993 15.9284 21.3119 16.2195 21.2195 16.5283C21.1271 16.8372 21.0568 17.1159 21.0087 17.3642C20.8278 17.5244 20.6892 17.7121 20.5928 17.9273C20.4963 18.1425 20.3941 18.358 20.2859 18.5737C20.2411 18.6225 20.2123 18.6355 20.1996 18.6126C20.1869 18.5897 20.1452 18.5738 20.0745 18.5651C20.0882 18.6115 20.0896 18.6466 20.0789 18.6705C20.0682 18.6944 20.0517 18.7186 20.0292 18.743C20.018 18.7552 20.0073 18.7791 19.9971 18.8147C19.9986 18.8498 20.0123 18.8962 20.0382 18.9537C19.8773 19.0309 19.7351 19.1367 19.6118 19.2709C19.4885 19.4052 19.353 19.5283 19.2052 19.6401C19.0692 19.7514 18.8966 19.8291 18.6873 19.8732C18.4898 19.9168 18.2246 19.887 17.8918 19.7839C17.3968 19.453 16.9523 19.0672 16.5583 18.6265C16.1759 18.1853 15.8542 17.6536 15.5932 17.0313ZM30.7365 14.8396C30.7272 14.8987 30.7178 14.9519 30.7081 14.9992C30.6978 15.0348 30.6876 15.0704 30.6774 15.1061C30.6672 15.1417 30.6633 15.1888 30.6658 15.2473C30.6678 15.2941 30.6705 15.3585 30.674 15.4405C30.3491 16.0759 29.9264 16.6159 29.4057 17.0602C28.8967 17.5041 28.3273 17.9037 27.6972 18.2588C27.0784 18.6018 26.4293 18.9226 25.75 19.2213C25.0702 19.5082 24.4089 19.8178 23.7662 20.1501C23.4822 20.0918 23.2606 19.9839 23.1014 19.8264C22.954 19.6685 22.8348 19.4859 22.7439 19.2786C22.6642 19.0591 22.6013 18.8214 22.5552 18.5653C22.5204 18.297 22.4852 18.0228 22.4499 17.7428C22.4795 17.6126 22.5219 17.5052 22.577 17.4207C22.6432 17.3241 22.6729 17.1938 22.6659 17.0299C22.7467 16.7215 22.8276 16.419 22.9089 16.1223C22.9901 15.8256 23.0359 15.5246 23.0464 15.2191C23.0776 15.124 23.1392 15.0569 23.2314 15.0178C23.2661 14.4533 23.2419 13.8854 23.159 13.3142C23.0873 12.7308 22.9705 12.1903 22.8086 11.6929C22.8154 11.5753 22.8236 11.4928 22.8333 11.4455C22.8542 11.386 22.8525 11.345 22.8281 11.3226C22.8124 11.2294 22.8397 11.1813 22.9099 11.1783C22.9919 11.1749 23.0739 11.1714 23.1558 11.1679C23.1483 10.9923 23.1058 10.8181 23.0281 10.6455C22.962 10.4724 22.8951 10.2758 22.8271 10.0558C22.9016 9.87673 22.947 9.70473 22.9635 9.53982C22.9794 9.3632 23.0257 9.20875 23.1021 9.07648C23.7428 9.24866 24.356 9.46306 24.9416 9.71968C25.539 9.97581 26.1214 10.1563 26.6889 10.2612C27.1233 10.5477 27.5694 10.8337 28.0273 11.1193C28.4846 11.3931 28.9025 11.7037 29.2809 12.0513C29.6587 12.3871 29.9803 12.7781 30.2456 13.2243C30.5109 13.6704 30.6745 14.2089 30.7365 14.8396ZM26.6152 15.9824C26.8571 15.8783 27.0929 15.7686 27.3226 15.6533C27.564 15.5374 27.7815 15.4109 27.9751 15.2737C28.1798 15.1242 28.3605 14.9582 28.5169 14.7756C28.6734 14.593 28.7991 14.3765 28.894 14.1262C28.8178 13.9887 28.7189 13.8697 28.5973 13.7693C28.4753 13.6572 28.3537 13.5568 28.2326 13.4681C28.1111 13.3677 27.9895 13.2673 27.868 13.1669C27.7581 13.066 27.6648 12.941 27.5881 12.7918C27.4349 12.7748 27.2985 12.7395 27.179 12.686C27.0589 12.6207 26.9391 12.5613 26.8195 12.5077C26.7111 12.4419 26.5913 12.3825 26.46 12.3295C26.3405 12.2759 26.1985 12.2467 26.0341 12.242C25.771 12.1241 25.5329 12.0404 25.3196 11.9908C25.1181 11.9408 24.9627 11.8711 24.8533 11.7819C24.7714 11.7854 24.7077 11.8057 24.6624 11.8428C24.7984 12.2828 24.9041 12.7005 24.9795 13.0961C25.0545 13.48 25.1004 13.871 25.1173 14.2691C25.1455 14.6549 25.1448 15.0538 25.1154 15.4655C25.086 15.8773 25.0405 16.325 24.9789 16.8085C25.0955 16.7918 25.1999 16.7639 25.2921 16.7248C25.3954 16.6735 25.493 16.6224 25.5846 16.5716C25.688 16.5203 25.7917 16.4748 25.8955 16.4352C26.0106 16.3834 26.144 16.3484 26.2957 16.3303C26.3279 16.2585 26.3722 16.198 26.4288 16.1487C26.497 16.0989 26.5592 16.0434 26.6152 15.9824ZM42.5033 18.8966C42.1799 19.0159 41.8273 19.1364 41.4454 19.2582C41.0635 19.38 40.6794 19.4491 40.293 19.4655C39.7076 19.4904 39.2389 19.3637 38.8869 19.0854C38.8229 18.9591 38.7665 18.8735 38.7177 18.8287C38.6806 18.7833 38.6435 18.738 38.6063 18.6926C38.5804 18.6351 38.5596 18.5597 38.544 18.4666C38.3965 18.3086 38.2773 18.126 38.1864 17.9188C38.095 17.6998 38.027 17.4798 37.9824 17.2589C37.949 17.0257 37.9332 16.7918 37.935 16.5571C37.9485 16.322 37.98 16.0978 38.0296 15.8845C38.051 15.8367 38.0607 15.7894 38.0587 15.7425C38.0685 15.6952 38.0779 15.642 38.0871 15.583C38.126 15.3937 38.1651 15.2102 38.2045 15.0326C38.2556 14.8545 38.3252 14.699 38.4134 14.5663C38.3621 14.4629 38.3571 14.3458 38.3985 14.215C38.4399 14.0842 38.4876 13.9649 38.5416 13.857C38.6867 13.4052 38.8054 13.0248 38.8978 12.7159C39.0015 12.3948 39.1054 12.0796 39.2095 11.7702C39.3862 11.2349 39.5514 10.7059 39.7051 10.1833C39.8588 9.66064 39.9933 9.09778 40.1084 8.49469C40.1996 8.43217 40.2681 8.38821 40.3139 8.3628C40.3832 8.3364 40.441 8.31635 40.4873 8.30266C40.7025 8.39908 40.9529 8.494 41.2384 8.58744C41.5233 8.66917 41.7595 8.70605 41.9468 8.69809C42.043 8.75265 42.1035 8.797 42.1284 8.83113C42.1528 8.85355 42.1772 8.87597 42.2016 8.89839C42.3369 9.04513 42.4548 9.19846 42.5555 9.3584C42.6556 9.50662 42.6936 9.71027 42.6694 9.96934C42.6036 10.0777 42.5532 10.1326 42.5181 10.1341C42.4695 10.3708 42.4135 10.5725 42.3502 10.7394C42.2987 10.9058 42.2412 11.0725 42.1779 11.2394C42.1034 11.4185 42.0348 11.5974 41.972 11.776C41.9092 11.9546 41.8599 12.1737 41.824 12.4332C41.7797 12.4938 41.7468 12.5479 41.7253 12.5958C41.7156 12.6431 41.7003 12.6965 41.6794 12.7561C41.6584 12.8156 41.6319 12.8812 41.5998 12.953C41.5788 13.0125 41.5401 13.0669 41.4836 13.1163C41.4614 13.4222 41.4133 13.6705 41.3393 13.8613C41.277 14.0517 41.2088 14.2422 41.1348 14.433C41.0088 14.7785 40.8944 15.1236 40.7917 15.4681C40.7008 15.8121 40.6528 16.2012 40.6478 16.6354C40.7053 16.6095 40.7575 16.5955 40.8044 16.5935C40.8629 16.5911 40.9156 16.5888 40.9624 16.5868C41.0678 16.5824 41.1915 16.5947 41.3335 16.6238C41.6768 16.4216 42.0526 16.2942 42.4608 16.2417C42.8809 16.1886 43.2955 16.1476 43.7048 16.1184C43.8687 16.1115 44.0326 16.1045 44.1965 16.0975C44.3604 16.0906 44.5122 16.0724 44.6517 16.043C44.7595 16.0971 44.8254 16.1295 44.8493 16.1402C44.8844 16.1387 44.9313 16.1367 44.9898 16.1342C45.0718 16.1307 45.1423 16.1336 45.2013 16.1428C45.3473 16.2656 45.4859 16.3536 45.6172 16.4067C45.7485 16.4597 45.8853 16.5067 46.0278 16.5476C46.1586 16.5889 46.2838 16.6364 46.4034 16.6899C46.5341 16.7313 46.6601 16.7963 46.7811 16.885L46.9361 17.635C47.0226 17.7369 47.0607 17.8056 47.0505 17.8413C47.0544 17.9349 47.034 18.0062 46.9892 18.055L47.0325 18.2467C46.8584 18.2893 46.7372 18.3355 46.6689 18.3853C46.6124 18.4346 46.5561 18.4898 46.5 18.5508C46.4068 18.5665 46.3368 18.5753 46.29 18.5773C46.2549 18.5788 46.2198 18.5803 46.1846 18.5818C46.0207 18.5888 45.8229 18.6265 45.5912 18.695C45.2706 18.603 44.9406 18.5643 44.601 18.5787C44.4723 18.5842 44.3379 18.5957 44.1979 18.6134C44.0579 18.6311 43.9179 18.6488 43.7779 18.6665C43.6384 18.6958 43.4927 18.7196 43.341 18.7378C43.201 18.7555 43.0549 18.7675 42.9027 18.774L42.5033 18.8966ZM56.8437 8.5754C56.8589 8.65686 56.8616 8.72125 56.8519 8.76858C56.8534 8.80371 56.849 8.83908 56.8388 8.8747C56.8403 8.90982 56.8421 8.9508 56.844 8.99764C56.8455 9.03276 56.8597 9.0908 56.8866 9.17177C56.6577 9.58029 56.3825 9.86762 56.0612 10.0338C55.751 10.1877 55.4101 10.3077 55.0384 10.3939C54.6662 10.4684 54.2826 10.5492 53.8875 10.6363C53.5041 10.723 53.1242 10.8916 52.7478 11.1422C52.5931 11.0901 52.4526 11.0961 52.3263 11.1601C52.2117 11.2236 52.0368 11.2486 51.8017 11.2352C51.7344 11.3084 51.6488 11.3648 51.545 11.4044C51.4406 11.4323 51.3364 11.4661 51.2326 11.5057C51.2839 11.6091 51.3062 11.7195 51.2994 11.8371C51.3039 11.9425 51.3252 12.0296 51.3633 12.0983C51.7746 12.116 52.2251 12.091 52.7149 12.0233C53.2163 11.9551 53.7068 11.9049 54.1864 11.8728C54.2006 11.9309 54.1964 11.9721 54.174 11.9965C54.1511 12.0092 54.1465 12.0387 54.1602 12.085C54.2446 12.1401 54.3298 12.2127 54.4158 12.3029C54.5012 12.3814 54.5866 12.4599 54.6721 12.5383C54.7575 12.6168 54.8425 12.6836 54.9269 12.7386C55.0226 12.7815 55.1287 12.7946 55.2453 12.7779C55.2961 12.8696 55.3298 12.9737 55.3465 13.0903C55.3744 13.1947 55.3674 13.3064 55.3256 13.4255C55.1437 13.5622 54.9621 13.7048 54.7807 13.8533C54.5989 13.99 54.4048 14.1156 54.1985 14.2299C54.004 14.3437 53.7911 14.4407 53.5599 14.5209C53.34 14.5889 53.0892 14.623 52.8077 14.6233C52.7492 14.6257 52.7024 14.6277 52.6672 14.6292C52.6438 14.6302 52.6079 14.6142 52.5596 14.581C52.4684 14.6435 52.3345 14.6668 52.1579 14.6509C51.993 14.6344 51.865 14.6575 51.7738 14.72C51.6425 14.6669 51.4835 14.6502 51.2966 14.6699C51.121 14.6773 50.9619 14.6606 50.8195 14.6198C50.6426 14.8736 50.484 15.1442 50.3437 15.4317C50.2035 15.7192 50.0815 16.0235 49.9779 16.3445C50.3784 16.3862 50.7072 16.3957 50.9643 16.373C51.2331 16.3499 51.4841 16.3216 51.7173 16.2882C51.9499 16.2432 52.1887 16.2037 52.4336 16.1698C52.678 16.1243 52.9877 16.0994 53.3629 16.0952C53.5916 15.9564 53.8632 15.8628 54.1779 15.8142C54.5037 15.7535 54.7993 15.6705 55.0646 15.5654C55.1598 15.5966 55.2444 15.6575 55.3187 15.7482C55.3924 15.8271 55.4603 15.9064 55.5223 15.9858C55.5955 16.0531 55.6685 16.1145 55.7413 16.1701C55.814 16.2256 55.9028 16.2453 56.0077 16.2291C56.0565 16.274 56.0883 16.3313 56.103 16.401C56.1289 16.4585 56.1489 16.5163 56.1631 16.5744C56.1773 16.6324 56.1971 16.6844 56.2225 16.7302C56.2591 16.7638 56.3123 16.7733 56.3821 16.7586C56.2229 17.1524 56.0306 17.4597 55.8054 17.6804C55.5914 17.8889 55.3403 18.0521 55.0521 18.1699C54.7639 18.2877 54.4395 18.3836 54.0791 18.4575C53.7303 18.531 53.3411 18.6179 52.9113 18.7183C52.807 18.7462 52.7189 18.744 52.6472 18.7119C52.5759 18.6915 52.4935 18.6832 52.3998 18.6872C52.133 18.7572 51.8133 18.8236 51.4406 18.8863C51.0679 18.9491 50.6881 18.9828 50.3013 18.9875C49.9144 18.9922 49.5434 18.9552 49.1881 18.8764C48.8334 18.8094 48.5401 18.6694 48.3082 18.4564C48.211 18.3784 48.1427 18.2875 48.1031 18.1836C48.0747 18.0675 47.9948 17.9829 47.8636 17.9299C47.8454 17.7782 47.8147 17.6094 47.7717 17.4235C47.7286 17.2377 47.6852 17.046 47.6417 16.8485C47.5976 16.6392 47.5596 16.4356 47.5277 16.2375C47.5076 16.039 47.5116 15.857 47.5397 15.6916C47.5674 15.5145 47.6309 15.3534 47.7303 15.2085C47.8414 15.063 47.876 14.909 47.8339 14.7466C47.8919 14.7324 47.9258 14.7017 47.9355 14.6543C47.9447 14.5953 47.9906 14.5699 48.073 14.5781C48.1343 14.3644 48.202 14.1621 48.276 13.9713C48.35 13.7805 48.4242 13.5955 48.4987 13.4164C48.5849 13.2368 48.6653 13.0575 48.7398 12.8784C48.8255 12.687 48.9046 12.4784 48.9771 12.2525C48.8067 12.1072 48.6768 11.9485 48.5874 11.7764C48.5092 11.5921 48.4488 11.4128 48.4062 11.2387C48.3631 11.0529 48.3259 10.8668 48.2945 10.6804C48.2626 10.4824 48.2132 10.2851 48.1462 10.0885C48.2558 9.90794 48.3903 9.76147 48.5498 9.64913C48.7204 9.52459 48.9038 9.42296 49.0998 9.34426C49.2959 9.26555 49.51 9.19781 49.7422 9.14103C49.9743 9.08424 50.218 9.02111 50.4731 8.95163C50.9349 8.77952 51.3456 8.64478 51.7051 8.5474C52.0763 8.44953 52.4365 8.36971 52.7857 8.30796C53.1462 8.23399 53.5186 8.16539 53.903 8.10214C54.2874 8.03889 54.7234 7.94999 55.2112 7.83543C55.3211 7.93633 55.4228 7.98479 55.5165 7.98081C55.5588 7.87344 55.6103 7.84193 55.6708 7.88628C55.7426 7.91842 55.7703 7.88205 55.7542 7.77718C55.8797 7.97124 56.0333 8.13479 56.2148 8.26783C56.4077 8.38866 56.6173 8.49118 56.8437 8.5754ZM66.0701 16.6109C66.0083 16.8129 65.9116 17.0223 65.7801 17.239C65.6597 17.4435 65.5094 17.6317 65.329 17.8036C65.1599 17.9633 64.9663 18.1005 64.7483 18.2153C64.5303 18.3302 64.2987 18.3987 64.0533 18.4208C63.8996 18.3922 63.7925 18.3557 63.7319 18.3113C63.6836 18.2782 63.6294 18.2453 63.5694 18.2126C63.5333 18.1907 63.4974 18.1747 63.4618 18.1644C63.4374 18.142 63.4132 18.1255 63.3893 18.1147L63.1748 18.0359L63.2354 17.8046C63.2548 17.7099 63.246 17.6399 63.2089 17.5946C63.1712 17.5375 63.0978 17.4644 62.9884 17.3752C62.9518 17.3416 62.9152 17.308 62.8786 17.2743C62.8419 17.2407 62.8112 17.2068 62.7863 17.1727L62.4735 16.8517L62.9425 16.7086C63.2317 16.6142 63.4204 16.5006 63.5086 16.3679C63.6085 16.2346 63.6403 16.0163 63.6039 15.7128C63.3678 15.676 63.1685 15.6786 63.0061 15.7206C62.8554 15.7622 62.699 15.8099 62.5371 15.8637C62.3289 15.9312 62.1145 15.9931 61.894 16.0494C61.6848 16.0935 61.4514 16.121 61.1938 16.1319C61.1001 16.1359 61.0123 16.1396 60.9303 16.1431C60.8479 16.1349 60.7596 16.1269 60.6654 16.1192L60.4883 16.0915C60.4594 15.9637 60.433 15.8945 60.4091 15.8838C60.3847 15.8613 60.3603 15.8389 60.3359 15.8165C60.2748 15.7604 60.2072 15.6871 60.133 15.5964C60.07 15.4935 60.0528 15.3652 60.0814 15.2115C60.0184 15.1086 59.9788 15.0048 59.9626 14.8999C59.8984 15.0434 59.8519 15.1919 59.8232 15.3456L59.7604 15.5243L59.5863 15.5668C59.5634 15.5795 59.5471 15.6096 59.5374 15.6569C59.5271 15.6925 59.5225 15.722 59.5235 15.7454L59.4484 16.0477C59.426 16.0721 59.4036 16.0966 59.3811 16.121C59.3582 16.1337 59.3355 16.1522 59.3131 16.1766C59.2942 16.283 59.2694 16.3896 59.2387 16.4965C59.2081 16.6034 59.1772 16.7044 59.1461 16.7995C59.094 16.9542 59.0478 17.1087 59.0074 17.2629C58.9782 17.4049 58.9725 17.5459 58.9902 17.6859L58.9281 17.882C58.8726 17.9548 58.8107 18.016 58.7424 18.0659C58.6737 18.104 58.6049 18.1421 58.5361 18.1802C58.5137 18.2046 58.4796 18.2295 58.4338 18.2549C58.3991 18.2681 58.3704 18.2811 58.3474 18.2938L58.303 18.4892L58.0937 18.5333C57.9659 18.5622 57.873 18.5837 57.8149 18.5979C57.7686 18.6116 57.7103 18.6199 57.6401 18.6229L57.4637 18.6128C57.3304 18.5129 57.2274 18.4352 57.1547 18.3796C57.0815 18.3124 56.9968 18.2514 56.9006 18.1969C56.7893 18.0609 56.7262 17.958 56.7116 17.8882C56.6969 17.8185 56.6824 17.7546 56.6682 17.6965C56.6418 17.6273 56.6276 17.5692 56.6256 17.5224C56.6119 17.4761 56.5929 17.4417 56.5685 17.4193L56.3312 17.2182L56.5177 17.052L56.5226 16.7526C56.7314 16.1456 56.9528 15.5614 57.187 15.0002C57.433 14.4385 57.6842 13.8648 57.9408 13.2792C58.0266 13.0878 58.1064 12.8968 58.1804 12.706C58.2661 12.5147 58.3518 12.3234 58.4375 12.132C58.4243 12.0974 58.4167 12.0567 58.4147 12.0099C58.4127 11.963 58.4222 11.9098 58.4431 11.8503C58.5635 11.6458 58.6614 11.4657 58.7369 11.31C58.8119 11.1426 58.8869 10.9752 58.9619 10.8078C59.0471 10.6048 59.1325 10.4076 59.2182 10.2163C59.3156 10.0245 59.4362 9.82585 59.58 9.62034L59.8558 9.48547C59.8904 9.47227 59.9309 9.45882 59.9772 9.44512C60.023 9.41971 60.0752 9.40577 60.1338 9.40328L60.3987 9.42721C60.7201 9.26108 60.998 9.03814 61.2324 8.75841C61.4663 8.46697 61.7039 8.12259 61.945 7.72527L62.1102 7.47194L62.3445 7.60274C62.4045 7.63538 62.488 7.66702 62.5948 7.69767C62.7012 7.7166 62.8137 7.74115 62.9322 7.7713C63.145 7.80918 63.3463 7.85341 63.5361 7.90399C63.7259 7.95457 63.8818 8.03592 64.0039 8.14802C64.0821 8.33237 64.129 8.47113 64.1447 8.5643C64.1604 8.65746 64.182 8.75038 64.2094 8.84305C64.2529 9.0406 64.2907 9.2384 64.3225 9.43644C64.3661 9.63399 64.399 9.85545 64.4211 10.1008C64.4881 10.2974 64.5434 10.4944 64.587 10.692C64.6418 10.8773 64.691 11.0688 64.7346 11.2663C64.8051 11.5448 64.8753 11.8175 64.9453 12.0843C65.0147 12.3394 65.1013 12.582 65.2049 12.8122C65.2986 12.8082 65.3574 12.8116 65.3813 12.8223C65.4388 12.7964 65.4966 12.7763 65.5547 12.7621C65.6244 12.7474 65.7 12.7325 65.7815 12.7173L65.9739 12.6915L66.0516 12.8642C66.0658 12.9222 66.1269 12.9783 66.2347 13.0323C66.3874 13.0376 66.5001 13.068 66.5729 13.1235C66.6451 13.1674 66.7118 13.2173 66.7728 13.2734C66.8216 13.3182 66.8699 13.3514 66.9178 13.3728L67.1857 13.467L67.0564 13.7364C66.9482 13.9521 66.7872 14.1642 66.5732 14.3727C66.3704 14.569 66.1371 14.7372 65.8733 14.8775C65.888 14.9472 65.8968 15.0172 65.8998 15.0875C65.914 15.1455 65.9343 15.2092 65.9607 15.2784C66.0043 15.476 66.0422 15.6796 66.0746 15.8894C66.107 16.0991 66.1162 16.3157 66.1022 16.5392L66.0701 16.6109ZM60.8655 13.7883C61.2157 13.7499 61.5309 13.7131 61.8109 13.6777C62.1021 13.6302 62.4218 13.5638 62.7701 13.4786C62.6732 13.1309 62.57 12.7717 62.4604 12.401C62.3503 12.0186 62.2346 11.6423 62.1133 11.2721L62.0154 11.4522C61.7917 11.708 61.5751 11.9929 61.3655 12.3067C61.1677 12.6201 60.9984 12.9147 60.8577 13.1904C60.7919 13.2988 60.7261 13.4071 60.6604 13.5155C60.5946 13.6239 60.5347 13.732 60.4806 13.8398C60.5504 13.8251 60.6145 13.8165 60.673 13.8141C60.7433 13.8111 60.8074 13.8025 60.8655 13.7883ZM70.0418 16.0903C69.9329 16.5641 69.831 16.9262 69.7361 17.1765C69.6523 17.4147 69.5164 17.6667 69.3283 17.9328C69.1751 17.9158 69.0705 17.9379 69.0145 17.9989C68.9584 18.0599 68.8962 18.1154 68.828 18.1652C68.7236 18.1931 68.6475 18.1963 68.5997 18.1749C68.5518 18.1534 68.5096 18.1259 68.473 18.0923C68.4369 18.0704 68.3888 18.0431 68.3288 18.0104C68.281 17.989 68.2043 17.9805 68.099 17.985C68.0716 17.8923 68.0386 17.8058 68 17.7253C67.9731 17.6443 67.8957 17.6183 67.7679 17.6472C67.7874 17.5525 67.79 17.4762 67.7758 17.4181C67.7611 17.3484 67.7411 17.2906 67.7156 17.2448C67.7014 17.1867 67.6875 17.1345 67.6738 17.0882C67.6596 17.0301 67.6625 16.9597 67.6824 16.8767C67.6239 16.8792 67.5753 16.8402 67.5367 16.7597C67.4981 16.6793 67.4536 16.599 67.4033 16.5191C67.4295 16.3068 67.4561 16.1063 67.4833 15.9175C67.5105 15.7287 67.544 15.5513 67.5839 15.3854C67.6354 15.219 67.6753 15.0531 67.7035 14.8877C67.7316 14.7223 67.7069 14.5533 67.6291 14.3806C67.6775 14.4138 67.7123 14.4064 67.7338 14.3586C67.7547 14.299 67.7693 14.228 67.7775 14.1456C67.7852 14.0514 67.7874 13.9634 67.7839 13.8814C67.7799 13.7877 67.7708 13.7119 67.7566 13.6538C67.8608 13.3445 67.9412 13.0302 67.9981 12.7111C68.0661 12.3798 68.1227 12.0548 68.1678 11.7362C68.2246 11.4171 68.2817 11.1039 68.339 10.7965C68.3963 10.4891 68.478 10.2041 68.5842 9.94154C68.7119 9.91266 68.8532 9.92425 69.0079 9.97632C69.1738 10.0162 69.276 10.0764 69.3147 10.1568C69.6091 9.90973 69.8665 9.61729 70.0867 9.27951C70.3064 8.93002 70.5325 8.592 70.765 8.26543C70.9974 7.93886 71.2548 7.64643 71.537 7.38812C71.831 7.12931 72.2053 6.96679 72.6599 6.90056C72.9015 7.06623 73.1668 7.23677 73.4558 7.41216C73.756 7.57535 74.0059 7.79931 74.2057 8.08406C74.3013 8.12691 74.3797 8.17636 74.4407 8.23242C74.5129 8.27627 74.5971 8.32547 74.6933 8.38003L74.7023 8.59078C74.8482 8.7136 74.9659 8.86108 75.0553 9.03322C75.156 9.19316 75.2456 9.37115 75.3243 9.56721C75.4025 9.75155 75.481 9.94175 75.5597 10.1378C75.6379 10.3222 75.7276 10.5001 75.8287 10.6718C75.8078 10.7313 75.7983 10.7845 75.8003 10.8313C75.8018 10.8665 75.8094 10.9072 75.8231 10.9535C75.8485 10.9994 75.868 11.0455 75.8817 11.0918C75.8954 11.1381 75.8982 11.2025 75.89 11.285C75.8767 11.8016 75.7246 12.2245 75.4336 12.5535C75.1543 12.8821 74.8084 13.1607 74.3959 13.3894C73.9829 13.6063 73.5393 13.7952 73.0652 13.9561C72.5912 14.117 72.1644 14.2876 71.785 14.468C71.787 14.5148 71.8056 14.5375 71.8407 14.536C71.8875 14.534 71.9063 14.5625 71.8971 14.6215C72.1856 14.7852 72.414 14.9163 72.5824 15.0147C72.7508 15.1131 72.9067 15.1944 73.0502 15.2587C73.2054 15.3225 73.3662 15.3802 73.5326 15.4318C73.7102 15.4711 73.9527 15.5195 74.2601 15.5768C74.5675 15.6341 74.8042 15.6827 74.9701 15.7226C75.1472 15.7502 75.3067 15.7786 75.4487 15.8078C75.5902 15.8252 75.7317 15.8427 75.8732 15.8601C76.0259 15.8654 76.2374 15.874 76.5077 15.886C76.6175 15.9868 76.7108 16.1119 76.7875 16.2611C76.8755 16.3981 76.9344 16.5423 76.9643 16.6935C76.9936 16.833 77.0055 16.9732 76.9997 17.1142C76.9935 17.2435 76.957 17.3506 76.8902 17.4356C76.9034 17.4702 76.9276 17.4868 76.9627 17.4853C77.009 17.4716 77.0559 17.4696 77.1032 17.4793C77.0349 17.5291 76.9789 17.5901 76.935 17.6624C76.8912 17.7346 76.8473 17.8069 76.8035 17.8791C76.7596 17.9513 76.7094 18.0121 76.6529 18.0614C76.5968 18.1225 76.5164 18.1611 76.4115 18.1773C76.0545 18.3332 75.5981 18.3584 75.0424 18.253C74.4871 18.1593 73.781 17.9665 72.9241 17.6744C72.4957 17.5284 72.1443 17.4026 71.87 17.297C71.607 17.1791 71.3735 17.0659 71.1694 16.9573C70.9766 16.8364 70.7953 16.7093 70.6254 16.5757C70.4672 16.4417 70.2727 16.2799 70.0418 16.0903ZM72.2973 9.95973C72.1764 10.1525 72.0373 10.3285 71.8798 10.4877C71.7341 10.6464 71.5886 10.8109 71.4434 10.9813C71.3093 11.1394 71.188 11.3205 71.0794 11.5246C70.9703 11.7169 70.8978 11.9428 70.8619 12.2024C71.2697 12.1381 71.6923 12.0087 72.1297 11.8142C72.5667 11.608 72.9807 11.4144 73.3718 11.2336C73.3096 10.8727 73.1684 10.5854 72.9482 10.3719C72.7397 10.1579 72.5227 10.0205 72.2973 9.95973ZM80.4858 14.2742C80.3814 14.3021 80.3081 14.3697 80.2657 14.4771C80.2229 14.5728 80.1803 14.6743 80.1379 14.7816C80.1073 14.8885 80.0705 14.9898 80.0277 15.0854C79.996 15.1689 79.9392 15.2123 79.8573 15.2158C79.8495 15.31 79.8179 15.3934 79.7623 15.4662C79.7185 15.5384 79.6749 15.6165 79.6315 15.7004C79.5877 15.7727 79.556 15.8561 79.5366 15.9508C79.5167 16.0337 79.5326 16.1328 79.5844 16.2479C79.4937 16.3221 79.4394 16.4241 79.4215 16.5539C79.4035 16.6837 79.3795 16.8078 79.3493 16.9264C79.3309 17.0445 79.2883 17.146 79.2215 17.231C79.1548 17.3159 79.0275 17.3565 78.8396 17.3527C78.8065 17.4011 78.8019 17.4306 78.8258 17.4413C78.8497 17.452 78.869 17.4922 78.8837 17.562C78.7539 17.544 78.6547 17.5541 78.5859 17.5922C78.5293 17.6416 78.4545 17.6741 78.3613 17.6898C78.1359 17.629 77.9433 17.514 77.7837 17.3448C77.6357 17.1752 77.4987 16.9875 77.3727 16.7817C77.2578 16.5637 77.1489 16.3455 77.0457 16.127C76.9543 15.908 76.8642 15.7183 76.7753 15.5579C76.8049 15.4276 76.8055 15.3044 76.7771 15.1883C76.7483 15.0605 76.7028 14.9569 76.6408 14.8774C77.1627 13.6354 77.7339 12.3092 78.3543 10.8988C78.9747 9.48836 79.5607 8.09699 80.1123 6.72468C80.3861 6.81862 80.6547 6.93036 80.9183 7.05991C81.193 7.17726 81.4395 7.31927 81.6577 7.48594C81.8876 7.65211 82.0837 7.84905 82.2458 8.07674C82.4075 8.29273 82.5177 8.54023 82.5765 8.81924C82.556 8.89048 82.528 8.921 82.4924 8.91078C82.468 8.88836 82.4448 8.89521 82.4229 8.93133C82.4722 8.98788 82.4974 9.02786 82.4984 9.05128C82.5111 9.0742 82.5121 9.09761 82.5013 9.12153C82.5023 9.14494 82.5038 9.18007 82.5058 9.2269C82.5073 9.26203 82.5271 9.31397 82.5652 9.38272C82.5179 9.373 82.483 9.38035 82.4606 9.40476C82.4499 9.42868 82.4148 9.43017 82.3552 9.40924C82.4075 9.53604 82.4237 9.64092 82.4038 9.72387C82.3955 9.80632 82.3754 9.88342 82.3432 9.95516C82.3106 10.0152 82.2843 10.0867 82.2644 10.1696C82.2439 10.2409 82.2538 10.3343 82.2939 10.4499C82.2587 10.4514 82.23 10.4643 82.2076 10.4887C82.1963 10.501 82.1854 10.519 82.1747 10.5429C82.1635 10.5551 82.1466 10.5734 82.1242 10.5979C82.113 10.6101 82.0896 10.6111 82.054 10.6008C82.1 10.8569 82.1227 11.114 82.1219 11.3721C82.1212 11.6302 82.1206 11.8941 82.1204 12.1639C82.1313 12.4215 82.1489 12.6964 82.173 12.9886C82.1967 13.2691 82.2501 13.56 82.3333 13.8615C82.7443 13.5977 83.0646 13.2674 83.294 12.8706C83.5352 12.4732 83.7217 12.0313 83.8535 11.5448C83.997 11.0578 84.098 10.5374 84.1566 9.98368C84.2152 9.42991 84.2791 8.86419 84.3484 8.28651C84.4493 8.17666 84.5258 8.04439 84.5779 7.88969C84.63 7.735 84.6759 7.5747 84.7158 7.4088C84.7552 7.23118 84.7948 7.05942 84.8347 6.89352C84.874 6.71591 84.9258 6.55536 84.9901 6.41188C85.1667 6.42783 85.3156 6.48015 85.4366 6.56885C85.5689 6.64533 85.69 6.73402 85.7998 6.83492C85.9092 6.92411 86.0244 7.01305 86.1455 7.10174C86.266 7.17872 86.4146 7.22519 86.5912 7.24114C86.7402 7.43421 86.8772 7.62193 87.0022 7.80428C87.1273 7.98664 87.2118 8.18245 87.2559 8.3917C87.2013 8.48785 87.159 8.59522 87.1288 8.71379C87.1104 8.83187 87.0861 8.95019 87.0559 9.06877C87.0258 9.18734 86.9837 9.30056 86.9296 9.40842C86.8751 9.50457 86.7966 9.59001 86.6942 9.66474C86.672 9.97064 86.6371 10.2536 86.5895 10.5137C86.5531 10.7616 86.5109 11.0097 86.4628 11.258C86.4264 11.5059 86.3964 11.7652 86.3727 12.036C86.3485 12.2951 86.349 12.5824 86.3741 12.898C86.2919 13.1713 86.2046 13.4624 86.1121 13.7713C86.0197 14.0802 85.9494 14.3588 85.9013 14.6071C85.7205 14.7673 85.5818 14.955 85.4854 15.1702C85.389 15.3855 85.2867 15.6009 85.1786 15.8167C85.1337 15.8655 85.105 15.8784 85.0923 15.8555C85.0796 15.8326 85.0378 15.8168 84.9671 15.808C84.9808 15.8544 84.9823 15.8895 84.9716 15.9134C84.9608 15.9373 84.9443 15.9615 84.9219 15.9859C84.9106 15.9981 84.8999 16.022 84.8897 16.0576C84.8912 16.0928 84.9049 16.1391 84.9308 16.1967C84.7699 16.2739 84.6278 16.3796 84.5044 16.5139C84.3811 16.6481 84.2456 16.7712 84.0979 16.883C83.9618 16.9944 83.7892 17.0721 83.58 17.1162C83.3824 17.1597 83.1172 17.1299 82.7844 17.0268C82.2895 16.6959 81.845 16.3102 81.4509 15.8695C81.0685 15.4283 80.7469 14.8965 80.4858 14.2742ZM103.056 15.0395C102.994 15.2415 102.898 15.4509 102.766 15.6676C102.646 15.8721 102.496 16.0603 102.315 16.2322C102.146 16.3919 101.952 16.5291 101.734 16.6439C101.516 16.7587 101.285 16.8272 101.039 16.8494C100.886 16.8207 100.779 16.7842 100.718 16.7399C100.67 16.7068 100.616 16.6739 100.556 16.6412C100.519 16.6193 100.484 16.6032 100.448 16.593C100.424 16.5706 100.399 16.554 100.375 16.5433L100.161 16.4645L100.222 16.2332C100.241 16.1385 100.232 16.0685 100.195 16.0232C100.157 15.9661 100.084 15.893 99.9746 15.8038C99.938 15.7702 99.9013 15.7365 99.8647 15.7029C99.8281 15.6693 99.7973 15.6354 99.7724 15.6013L99.4597 15.2803L99.9287 15.1372C100.218 15.0428 100.407 14.9292 100.495 14.7964C100.595 14.6632 100.626 14.4448 100.59 14.1414C100.354 14.1045 100.155 14.1071 99.9922 14.1492C99.8415 14.1908 99.6852 14.2385 99.5233 14.2923C99.315 14.3598 99.1007 14.4217 98.8802 14.478C98.6709 14.5221 98.4375 14.5496 98.1799 14.5605C98.0863 14.5645 97.9985 14.5682 97.9165 14.5717C97.8341 14.5635 97.7457 14.5555 97.6516 14.5478L97.4745 14.5201C97.4456 14.3923 97.4192 14.3231 97.3953 14.3123C97.3709 14.2899 97.3464 14.2675 97.322 14.2451C97.261 14.189 97.1934 14.1157 97.1191 14.025C97.0561 13.9221 97.0389 13.7938 97.0676 13.6401C97.0046 13.5372 96.965 13.4333 96.9488 13.3285C96.8845 13.4719 96.8381 13.6205 96.8094 13.7742L96.7466 13.9528L96.5725 13.9954C96.5496 14.0081 96.5332 14.0381 96.5235 14.0855C96.5133 14.1211 96.5087 14.1506 96.5097 14.174L96.4346 14.4763C96.4121 14.5007 96.3897 14.5251 96.3673 14.5496C96.3444 14.5623 96.3217 14.5808 96.2993 14.6052C96.2803 14.7116 96.2556 14.8182 96.2249 14.9251C96.1943 15.0319 96.1634 15.133 96.1322 15.2281C96.0801 15.3828 96.0339 15.5372 95.9936 15.6914C95.9644 15.8334 95.9587 15.9744 95.9763 16.1144L95.9143 16.3106C95.8587 16.3833 95.7968 16.4446 95.7286 16.4944C95.6598 16.5325 95.5911 16.5707 95.5223 16.6088C95.4999 16.6332 95.4658 16.6581 95.4199 16.6835C95.3853 16.6967 95.3565 16.7096 95.3336 16.7223L95.2891 16.9178L95.0799 16.9618C94.9521 16.9907 94.8591 17.0123 94.8011 17.0265C94.7548 17.0402 94.6965 17.0485 94.6262 17.0515L94.4499 17.0414C94.3166 16.9415 94.2136 16.8638 94.1409 16.8082C94.0676 16.7409 93.9829 16.68 93.8868 16.6255C93.7754 16.4894 93.7124 16.3866 93.6977 16.3168C93.683 16.2471 93.6686 16.1832 93.6544 16.1251C93.628 16.0559 93.6138 15.9978 93.6118 15.951C93.5981 15.9046 93.579 15.8703 93.5546 15.8478L93.3174 15.6468L93.5038 15.4805L93.5087 15.1812C93.7175 14.5742 93.939 13.99 94.1732 13.4288C94.4191 12.8671 94.6704 12.2934 94.927 11.7077C95.0127 11.5164 95.0926 11.3254 95.1666 11.1346C95.2523 10.9432 95.338 10.7519 95.4237 10.5606C95.4105 10.526 95.4029 10.4853 95.4009 10.4384C95.3989 10.3916 95.4084 10.3384 95.4293 10.2789C95.5496 10.0744 95.6476 9.89427 95.723 9.73858C95.798 9.57118 95.873 9.40378 95.948 9.23639C96.0332 9.03337 96.1187 8.8362 96.2044 8.64489C96.3018 8.45309 96.4224 8.25443 96.5661 8.04892L96.8419 7.91405C96.8765 7.90085 96.917 7.8874 96.9634 7.8737C97.0092 7.84829 97.0614 7.83435 97.1199 7.83186L97.3849 7.85579C97.7062 7.68966 97.9841 7.46672 98.2185 7.18699C98.4525 6.89555 98.69 6.55117 98.9312 6.15385L99.0964 5.90052L99.3306 6.03132C99.3907 6.06395 99.4741 6.0956 99.581 6.12624C99.6874 6.14518 99.7998 6.16973 99.9184 6.19988C100.131 6.23776 100.332 6.28199 100.522 6.33257C100.712 6.38315 100.868 6.4645 100.99 6.5766C101.068 6.76095 101.115 6.89971 101.131 6.99288C101.147 7.08604 101.168 7.17896 101.196 7.27163C101.239 7.46918 101.277 7.66698 101.309 7.86502C101.352 8.06257 101.385 8.28403 101.407 8.5294C101.474 8.72595 101.53 8.923 101.573 9.12055C101.628 9.30589 101.677 9.49734 101.721 9.69488C101.791 9.97339 101.861 10.246 101.931 10.5128C102.001 10.7679 102.087 11.0106 102.191 11.2408C102.285 11.2368 102.344 11.2402 102.367 11.2509C102.425 11.225 102.483 11.2049 102.541 11.1907C102.611 11.176 102.686 11.1611 102.768 11.1459L102.96 11.1201L103.038 11.2928C103.052 11.3508 103.113 11.4069 103.221 11.4609C103.374 11.4662 103.486 11.4966 103.559 11.5521C103.631 11.596 103.698 11.6459 103.759 11.702C103.808 11.7468 103.856 11.7799 103.904 11.8014L104.172 11.8956L104.043 12.165C103.934 12.3807 103.773 12.5928 103.559 12.8013C103.357 12.9976 103.123 13.1658 102.859 13.3061C102.874 13.3758 102.883 13.4458 102.886 13.5161C102.9 13.5741 102.92 13.6377 102.947 13.707C102.99 13.9045 103.028 14.1082 103.061 14.3179C103.093 14.5277 103.102 14.7443 103.088 14.9678L103.056 15.0395ZM97.8516 12.2169C98.2019 12.1785 98.517 12.1417 98.797 12.1063C99.0882 12.0588 99.408 11.9924 99.7562 11.9072C99.6594 11.5595 99.5561 11.2002 99.4465 10.8296C99.3365 10.4472 99.2208 10.0709 99.0995 9.70069L99.0016 9.88079C98.7779 10.1366 98.5612 10.4215 98.3517 10.7353C98.1539 11.0487 97.9846 11.3432 97.8438 11.619C97.7781 11.7274 97.7123 11.8357 97.6465 11.9441C97.5808 12.0524 97.5208 12.1605 97.4668 12.2684C97.5365 12.2537 97.6007 12.2451 97.6592 12.2426C97.7295 12.2396 97.7936 12.2311 97.8516 12.2169ZM5.90771 35.459C5.80333 35.4869 5.72997 35.5546 5.68761 35.6619C5.64476 35.7576 5.60215 35.8591 5.5598 35.9665C5.52915 36.0733 5.4924 36.1746 5.44955 36.2702C5.4179 36.3537 5.3611 36.3972 5.27915 36.4006C5.27142 36.4948 5.23977 36.5783 5.18422 36.651C5.14037 36.7232 5.09677 36.8013 5.05342 36.8853C5.00957 36.9575 4.97793 37.041 4.95849 37.1356C4.93856 37.2186 4.9545 37.3176 5.0063 37.4327C4.91562 37.5069 4.86131 37.6089 4.84336 37.7387C4.82542 37.8685 4.80137 37.9927 4.77122 38.1112C4.75278 38.2293 4.71018 38.3308 4.64341 38.4158C4.57664 38.5007 4.44934 38.5413 4.26152 38.5376C4.22838 38.5859 4.22377 38.6154 4.24768 38.6261C4.2716 38.6368 4.2909 38.6771 4.30559 38.7468C4.17581 38.7289 4.07654 38.739 4.00778 38.7771C3.95123 38.8264 3.87637 38.8589 3.7832 38.8746C3.55776 38.8138 3.36521 38.6988 3.20554 38.5296C3.05758 38.36 2.92058 38.1723 2.79455 37.9665C2.67972 37.7485 2.57075 37.5303 2.46763 37.3118C2.37623 37.0928 2.28606 36.9031 2.19714 36.7427C2.22679 36.6124 2.22742 36.4892 2.19903 36.3732C2.17014 36.2454 2.12469 36.1417 2.06266 36.0623C2.58463 34.8202 3.1558 33.494 3.77618 32.0836C4.39656 30.6732 4.98256 29.2818 5.53418 27.9095C5.80794 28.0034 6.0766 28.1152 6.34015 28.2447C6.61491 28.3621 6.86139 28.5041 7.0796 28.6708C7.30952 28.8369 7.50555 29.0339 7.66771 29.2616C7.82937 29.4776 7.93958 29.725 7.99835 30.0041C7.97792 30.0753 7.94989 30.1058 7.91427 30.0956C7.88986 30.0732 7.86669 30.08 7.84477 30.1161C7.89409 30.1727 7.91925 30.2127 7.92024 30.2361C7.93295 30.259 7.93394 30.2824 7.92323 30.3063C7.92422 30.3298 7.92571 30.3649 7.9277 30.4117C7.9292 30.4468 7.949 30.4988 7.98711 30.5675C7.93978 30.5578 7.9049 30.5652 7.88248 30.5896C7.87177 30.6135 7.83664 30.615 7.7771 30.5941C7.82941 30.7209 7.84559 30.8257 7.82566 30.9087C7.81743 30.9911 7.79725 31.0682 7.76511 31.14C7.73247 31.2 7.70619 31.2715 7.68625 31.3545C7.66582 31.4257 7.67566 31.5191 7.71575 31.6347C7.68063 31.6362 7.65186 31.6492 7.62944 31.6736C7.61823 31.6858 7.60726 31.7038 7.59655 31.7277C7.58534 31.7399 7.56852 31.7583 7.5461 31.7827C7.53489 31.7949 7.51147 31.7959 7.47585 31.7857C7.52192 32.0417 7.54457 32.2988 7.54381 32.5569C7.54304 32.815 7.54253 33.0789 7.54226 33.3487C7.5532 33.6063 7.57075 33.8812 7.59489 34.1734C7.61854 34.4539 7.67195 34.7448 7.75514 35.0463C8.16619 34.7825 8.48644 34.4522 8.71589 34.0554C8.95706 33.6581 9.14355 33.2162 9.27536 32.7296C9.41888 32.2426 9.51993 31.7223 9.5785 31.1685C9.63708 30.6147 9.70102 30.049 9.77031 29.4713C9.8712 29.3615 9.94769 29.2292 9.99976 29.0745C10.0518 28.9198 10.0978 28.7595 10.1377 28.5936C10.177 28.416 10.2167 28.2442 10.2565 28.0783C10.2959 27.9007 10.3477 27.7402 10.412 27.5967C10.5886 27.6127 10.7375 27.665 10.8585 27.7537C10.9908 27.8301 11.1119 27.9188 11.2217 28.0197C11.3311 28.1089 11.4463 28.1979 11.5673 28.2866C11.6879 28.3635 11.8365 28.41 12.0131 28.426C12.1621 28.619 12.2991 28.8067 12.4241 28.9891C12.5491 29.1715 12.6337 29.3673 12.6778 29.5765C12.6232 29.6727 12.5809 29.78 12.5507 29.8986C12.5323 30.0167 12.508 30.135 12.4778 30.2536C12.4477 30.3722 12.4056 30.4854 12.3515 30.5932C12.2969 30.6894 12.2185 30.7748 12.1161 30.8496C12.0939 31.1555 12.059 31.4384 12.0114 31.6985C11.975 31.9464 11.9328 32.1945 11.8847 32.4428C11.8483 32.6907 11.8183 32.95 11.7946 33.2208C11.7704 33.4799 11.7709 33.7672 11.796 34.0829C11.7138 34.3561 11.6265 34.6472 11.534 34.9561C11.4416 35.265 11.3713 35.5436 11.3232 35.792C11.1423 35.9521 11.0037 36.1398 10.9073 36.3551C10.8109 36.5703 10.7086 36.7857 10.6005 37.0015C10.5556 37.0503 10.5268 37.0632 10.5141 37.0403C10.5014 37.0174 10.4597 37.0016 10.389 36.9929C10.4027 37.0392 10.4042 37.0743 10.3934 37.0982C10.3827 37.1221 10.3662 37.1463 10.3437 37.1707C10.3325 37.1829 10.3218 37.2068 10.3116 37.2425C10.3131 37.2776 10.3268 37.3239 10.3527 37.3815C10.1918 37.4587 10.0496 37.5644 9.92633 37.6987C9.80301 37.8329 9.66748 37.956 9.51975 38.0678C9.38373 38.1792 9.21109 38.2569 9.00184 38.301C8.80429 38.3445 8.53912 38.3148 8.20631 38.2116C7.71135 37.8808 7.26684 37.495 6.87278 37.0543C6.49043 36.6131 6.16874 36.0813 5.90771 35.459ZM21.9739 28.0731C21.9891 28.1546 21.9918 28.219 21.9821 28.2663C21.9836 28.3014 21.9792 28.3368 21.969 28.3724C21.9705 28.4076 21.9723 28.4485 21.9743 28.4954C21.9757 28.5305 21.9899 28.5885 22.0168 28.6695C21.7879 29.078 21.5127 29.3654 21.1914 29.5315C20.8812 29.6854 20.5403 29.8055 20.1686 29.8916C19.7964 29.9661 19.4128 30.0469 19.0177 30.1341C18.6343 30.2207 18.2544 30.3894 17.878 30.6399C17.7233 30.5879 17.5828 30.5938 17.4565 30.6578C17.3419 30.7214 17.167 30.7464 16.9319 30.7329C16.8646 30.8062 16.779 30.8626 16.6752 30.9022C16.5708 30.9301 16.4666 30.9638 16.3628 31.0034C16.4141 31.1068 16.4364 31.2173 16.4296 31.3349C16.4341 31.4402 16.4554 31.5273 16.4935 31.5961C16.9048 31.6138 17.3553 31.5888 17.8451 31.521C18.3465 31.4528 18.837 31.4027 19.3166 31.3706C19.3308 31.4286 19.3266 31.4698 19.3042 31.4942C19.2813 31.5069 19.2767 31.5365 19.2904 31.5828C19.3748 31.6378 19.46 31.7105 19.546 31.8007C19.6314 31.8791 19.7168 31.9576 19.8023 32.0361C19.8877 32.1146 19.9727 32.1813 20.0571 32.2364C20.1528 32.2792 20.2589 32.2923 20.3755 32.2756C20.4263 32.3673 20.46 32.4714 20.4767 32.588C20.5046 32.6924 20.4976 32.8041 20.4558 32.9232C20.2739 33.06 20.0923 33.2026 19.9109 33.351C19.7291 33.4878 19.535 33.6133 19.3287 33.7276C19.1342 33.8415 18.9213 33.9385 18.6901 34.0187C18.4702 34.0867 18.2194 34.1208 17.9379 34.121C17.8794 34.1235 17.8326 34.1255 17.7974 34.127C17.774 34.128 17.7381 34.1119 17.6898 34.0788C17.5986 34.1413 17.4647 34.1646 17.2881 34.1486C17.1232 34.1322 16.9952 34.1552 16.904 34.2177C16.7727 34.1646 16.6137 34.1479 16.4268 34.1676C16.2512 34.1751 16.0921 34.1584 15.9497 34.1175C15.7728 34.3713 15.6142 34.642 15.4739 34.9294C15.3337 35.2169 15.2117 35.5212 15.1081 35.8423C15.5086 35.8839 15.8374 35.8934 16.0945 35.8708C16.3633 35.8476 16.6143 35.8193 16.8475 35.786C17.0801 35.7409 17.3189 35.7014 17.5638 35.6676C17.8082 35.622 18.1179 35.5971 18.4931 35.5929C18.7218 35.4542 18.9934 35.3605 19.3081 35.312C19.6339 35.2512 19.9295 35.1683 20.1948 35.0632C20.29 35.0943 20.3747 35.1552 20.4489 35.2459C20.5226 35.3249 20.5905 35.4041 20.6525 35.4836C20.7257 35.5508 20.7987 35.6122 20.8715 35.6678C20.9442 35.7234 21.033 35.743 21.1379 35.7269C21.1867 35.7717 21.2185 35.829 21.2332 35.8987C21.2591 35.9563 21.2791 36.0141 21.2933 36.0721C21.3075 36.1302 21.3273 36.1821 21.3527 36.228C21.3893 36.2616 21.4425 36.2711 21.5123 36.2564C21.3531 36.6502 21.1608 36.9575 20.9356 37.1782C20.7216 37.3866 20.4705 37.5498 20.1823 37.6676C19.8941 37.7854 19.5697 37.8813 19.2093 37.9553C18.8605 38.0287 18.4713 38.1156 18.0415 38.216C17.9372 38.2439 17.8491 38.2418 17.7774 38.2096C17.7061 38.1892 17.6237 38.181 17.53 38.185C17.2632 38.2549 16.9435 38.3213 16.5708 38.3841C16.1981 38.4468 15.8183 38.4805 15.4315 38.4852C15.0446 38.4899 14.6736 38.4529 14.3183 38.3742C13.9636 38.3072 13.6703 38.1671 13.4384 37.9541C13.3412 37.8762 13.2729 37.7852 13.2333 37.6813C13.2049 37.5653 13.125 37.4807 12.9938 37.4276C12.9756 37.2759 12.945 37.1071 12.9019 36.9213C12.8588 36.7354 12.8155 36.5438 12.7719 36.3462C12.7278 36.137 12.6898 35.9333 12.6579 35.7353C12.6378 35.5367 12.6418 35.3547 12.6699 35.1893C12.6976 35.0122 12.7611 34.8512 12.8605 34.7062C12.9717 34.5607 13.0062 34.4068 12.9641 34.2444C13.0221 34.2302 13.056 34.1994 13.0657 34.1521C13.0749 34.093 13.1208 34.0676 13.2032 34.0758C13.2645 33.8621 13.3322 33.6598 13.4062 33.469C13.4802 33.2782 13.5544 33.0933 13.6289 32.9142C13.7151 32.7346 13.7955 32.5552 13.87 32.3761C13.9557 32.1848 14.0348 31.9762 14.1073 31.7502C13.9369 31.605 13.807 31.4463 13.7176 31.2741C13.6394 31.0898 13.579 30.9106 13.5364 30.7364C13.4933 30.5506 13.4561 30.3645 13.4247 30.1782C13.3928 29.9801 13.3434 29.7828 13.2764 29.5863C13.386 29.4057 13.5205 29.2592 13.68 29.1469C13.8506 29.0223 14.034 28.9207 14.23 28.842C14.4261 28.7633 14.6402 28.6955 14.8724 28.6388C15.1046 28.582 15.3482 28.5189 15.6033 28.4494C16.0651 28.2773 16.4758 28.1425 16.8353 28.0451C17.2065 27.9473 17.5667 27.8675 17.9159 27.8057C18.2764 27.7317 18.6488 27.6631 19.0332 27.5999C19.4176 27.5366 19.8537 27.4477 20.3414 27.3332C20.4513 27.4341 20.553 27.4825 20.6467 27.4785C20.689 27.3712 20.7405 27.3397 20.801 27.384C20.8728 27.4162 20.9005 27.3798 20.8844 27.2749C21.0099 27.469 21.1635 27.6325 21.3451 27.7656C21.5379 27.8864 21.7475 27.9889 21.9739 28.0731ZM31.8698 37.7868C31.452 37.6169 31.1125 37.3557 30.8512 37.0032C30.6016 36.6502 30.3503 36.2562 30.0972 35.8212C30.0591 35.7525 30.021 35.6837 29.9829 35.615C29.9448 35.5462 29.9069 35.4833 29.8693 35.4263L29.6041 34.9801L29.4516 34.7051L29.2491 34.9072L28.9449 35.2016L28.7767 35.3847C28.4843 35.6786 28.1859 35.9728 27.8817 36.2672C27.5888 36.5495 27.2714 36.8093 26.9296 37.0466C26.599 37.2718 26.2435 37.4629 25.8631 37.6198C25.4939 37.7645 25.0871 37.8521 24.6427 37.8828L24.2481 37.706C24.0207 37.5984 23.8289 37.5009 23.6727 37.4137C23.5165 37.3265 23.3347 37.1877 23.1272 36.9971C23.0642 36.8942 23.0073 36.7969 22.9564 36.7052C22.9173 36.6131 22.8724 36.5211 22.8216 36.4295C22.6828 36.2008 22.5685 35.9945 22.4786 35.8106C22.3887 35.6268 22.2978 35.4195 22.2059 35.1888C22.234 35.0234 22.275 34.7461 22.3288 34.3567C22.3822 33.9556 22.4457 33.519 22.5195 33.0466C22.605 32.5738 22.6905 32.101 22.7759 31.6282C22.8726 31.1432 22.972 30.7226 23.0742 30.3664C23.1666 30.0575 23.27 29.7306 23.3844 29.3855C23.5105 29.04 23.6436 28.7235 23.7839 28.4361C23.9354 28.1364 24.1006 27.8831 24.2794 27.6761C24.4578 27.4574 24.6516 27.326 24.8609 27.2819C24.9229 27.3614 24.9898 27.4172 25.0615 27.4493C25.1333 27.4815 25.1989 27.508 25.2585 27.5289C25.4323 27.7561 25.5988 27.9484 25.758 28.1059C25.9289 28.2628 26.1232 28.4188 26.3409 28.5738C26.2948 28.869 26.2209 29.2005 26.1192 29.5684C26.0288 29.9242 25.9269 30.2862 25.8135 30.6547C25.7114 31.0109 25.6089 31.3613 25.5063 31.7058C25.4036 32.0503 25.3224 32.347 25.2626 32.5958C25.2008 32.7978 25.1517 33.0228 25.1153 33.2706C25.0284 33.7083 24.954 34.3038 24.8921 35.0571C25.0311 35.016 25.1801 34.9335 25.3391 34.8094C25.498 34.6854 25.6508 34.5557 25.7976 34.4205C25.9672 34.2725 26.1361 34.107 26.3043 33.9239C26.5173 33.692 26.6959 33.4791 26.8402 33.2853C26.9844 33.0915 27.1167 32.8924 27.237 32.6879C27.3691 32.4829 27.5004 32.2603 27.6309 32.0202C27.761 31.7683 27.9186 31.4743 28.1037 31.138C28.2674 30.8495 28.4361 30.5432 28.61 30.2192C28.7952 29.8829 28.9752 29.5644 29.1501 29.2637C29.3362 28.9509 29.5177 28.6675 29.6945 28.4137C29.8714 28.1599 30.033 27.9595 30.1792 27.8125C30.2779 27.9256 30.3997 28.0318 30.5446 28.1313C30.7013 28.2302 30.8629 28.3054 31.0293 28.357C31.104 28.4594 31.1726 28.5561 31.2351 28.6473C31.3089 28.7263 31.3765 28.7997 31.438 28.8674C31.5128 28.9698 31.5814 29.0666 31.6439 29.1578C31.7181 29.2485 31.7865 29.3394 31.849 29.4306C31.8408 29.513 31.8277 29.6191 31.8098 29.7489C31.7918 29.8787 31.7685 30.0205 31.7399 30.1742C31.7229 30.3274 31.7004 30.4867 31.6722 30.6521C31.6435 30.8058 31.6146 30.9536 31.5855 31.0956C31.5107 31.5445 31.4546 31.8812 31.4173 32.1056C31.3799 32.33 31.3522 32.5072 31.3343 32.6369C31.328 32.7662 31.3211 32.878 31.3133 32.9721C31.3168 33.0541 31.3218 33.1712 31.3283 33.3234C31.3215 33.441 31.3323 33.5578 31.3607 33.6739C31.3769 33.7787 31.4051 33.889 31.4452 34.0046C31.4853 34.1202 31.5366 34.2235 31.5991 34.3147L32.2785 33.7404C32.471 33.5798 32.6496 33.3669 32.8143 33.1019C32.9902 32.8246 33.1529 32.5128 33.3024 32.1663C33.4631 31.8076 33.6167 31.4198 33.7632 31.0031C33.9097 30.5863 34.056 30.1637 34.202 29.7353C34.4215 29.1043 34.6417 28.4909 34.8627 27.895C35.0954 27.2987 35.3222 26.8374 35.5429 26.5114C35.8074 26.6643 36.0371 26.8247 36.2319 26.9923C36.4379 27.1478 36.6154 27.322 36.7643 27.5151C36.9133 27.7082 37.0342 27.9318 37.1271 28.1859C37.2317 28.4395 37.3091 28.7411 37.3591 29.0909C37.1658 29.5096 36.9788 29.9398 36.7981 30.3815C36.6292 30.8227 36.4661 31.2636 36.3089 31.7042C36.0986 32.2762 35.8767 32.8486 35.6429 33.4216C35.421 33.994 35.1687 34.5443 34.8862 35.0724C34.6031 35.5887 34.2835 36.0715 33.9272 36.5206C33.5705 36.958 33.1525 37.3335 32.6732 37.6471C32.5429 37.6175 32.4309 37.6046 32.3372 37.6086C32.1499 37.6166 31.9941 37.676 31.8698 37.7868ZM52.6965 35.1954C52.6347 35.3974 52.538 35.6067 52.4065 35.8235C52.2862 36.028 52.1358 36.2162 51.9554 36.388C51.7863 36.5477 51.5927 36.685 51.3747 36.7998C51.1568 36.9146 50.9251 36.9831 50.6797 37.0053C50.526 36.9766 50.4189 36.9401 50.3584 36.8957C50.31 36.8626 50.2559 36.8297 50.1958 36.7971C50.1597 36.7752 50.1238 36.7591 50.0882 36.7489C50.0638 36.7265 50.0396 36.7099 50.0157 36.6992L49.8013 36.6203L49.8618 36.389C49.8812 36.2944 49.8724 36.2244 49.8353 36.179C49.7977 36.122 49.7242 36.0489 49.6148 35.9597C49.5782 35.926 49.5416 35.8924 49.505 35.8588C49.4684 35.8251 49.4376 35.7913 49.4127 35.7571L49.1 35.4361L49.5689 35.293C49.8581 35.1987 50.0469 35.0851 50.135 34.9523C50.235 34.819 50.2667 34.6007 50.2304 34.2973C49.9942 34.2604 49.7949 34.263 49.6325 34.3051C49.4818 34.3467 49.3255 34.3944 49.1636 34.4482C48.9553 34.5157 48.7409 34.5775 48.5205 34.6338C48.3112 34.6779 48.0778 34.7054 47.8202 34.7164C47.7265 34.7203 47.6387 34.7241 47.5568 34.7276C47.4743 34.7193 47.386 34.7114 47.2919 34.7036L47.1147 34.676C47.0858 34.5482 47.0594 34.4789 47.0355 34.4682C47.0111 34.4458 46.9867 34.4234 46.9623 34.4009C46.9013 34.3449 46.8336 34.2715 46.7594 34.1808C46.6964 34.0779 46.6792 33.9497 46.7079 33.796C46.6449 33.6931 46.6053 33.5892 46.5891 33.4843C46.5248 33.6278 46.4783 33.7764 46.4497 33.9301L46.3869 34.1087L46.2127 34.1513C46.1898 34.164 46.1735 34.194 46.1638 34.2413C46.1536 34.2769 46.149 34.3065 46.15 34.3299L46.0748 34.6322C46.0524 34.6566 46.03 34.681 46.0076 34.7054C45.9846 34.7181 45.962 34.7367 45.9396 34.7611C45.9206 34.8674 45.8958 34.9741 45.8652 35.0809C45.8345 35.1878 45.8036 35.2888 45.7725 35.384C45.7204 35.5387 45.6742 35.6931 45.6338 35.8473C45.6047 35.9893 45.5989 36.1303 45.6166 36.2703L45.5546 36.4665C45.499 36.5392 45.4371 36.6005 45.3688 36.6503C45.3001 36.6884 45.2313 36.7265 45.1626 36.7646C45.1402 36.789 45.106 36.8139 45.0602 36.8393C45.0256 36.8525 44.9968 36.8655 44.9739 36.8782L44.9294 37.0736L44.7201 37.1177C44.5923 37.1466 44.4994 37.1681 44.4414 37.1823C44.395 37.196 44.3367 37.2044 44.2665 37.2074L44.0901 37.1973C43.9569 37.0973 43.8539 37.0196 43.7811 36.9641C43.7079 36.8968 43.6232 36.8359 43.527 36.7813C43.4157 36.6453 43.3527 36.5424 43.338 36.4727C43.3233 36.4029 43.3089 36.339 43.2947 36.281C43.2683 36.2117 43.2541 36.1537 43.2521 36.1068C43.2384 36.0605 43.2193 36.0261 43.1949 36.0037L42.9576 35.8027L43.1441 35.6364L43.149 35.3371C43.3578 34.73 43.5793 34.1459 43.8135 33.5846C44.0594 33.0229 44.3107 32.4492 44.5673 31.8636C44.653 31.6723 44.7328 31.4812 44.8068 31.2904C44.8925 31.0991 44.9783 30.9078 45.064 30.7165C45.0508 30.6819 45.0432 30.6411 45.0412 30.5943C45.0392 30.5475 45.0487 30.4943 45.0696 30.4347C45.1899 30.2302 45.2878 30.0501 45.3633 29.8944C45.4383 29.727 45.5133 29.5596 45.5883 29.3922C45.6735 29.1892 45.759 28.9921 45.8447 28.8008C45.9421 28.6089 46.0627 28.4103 46.2064 28.2048L46.4822 28.0699C46.5168 28.0567 46.5573 28.0433 46.6036 28.0296C46.6495 28.0042 46.7017 27.9902 46.7602 27.9877L47.0251 28.0117C47.3465 27.8455 47.6244 27.6226 47.8588 27.3428C48.0928 27.0514 48.3303 26.707 48.5715 26.3097L48.7366 26.0564L48.9709 26.1872C49.031 26.2198 49.1144 26.2515 49.2213 26.2821C49.3276 26.301 49.4401 26.3256 49.5587 26.3557C49.7714 26.3936 49.9727 26.4378 50.1625 26.4884C50.3523 26.539 50.5083 26.6204 50.6303 26.7325C50.7085 26.9168 50.7555 27.0556 50.7712 27.1487C50.7869 27.2419 50.8084 27.3348 50.8358 27.4275C50.8794 27.625 50.9171 27.8228 50.949 28.0209C50.9926 28.2184 51.0254 28.4399 51.0476 28.6853C51.1146 28.8818 51.1699 29.0789 51.2134 29.2764C51.2682 29.4618 51.3174 29.6532 51.361 29.8507C51.4315 30.1293 51.5017 30.4019 51.5717 30.6687C51.6412 30.9238 51.7277 31.1664 51.8313 31.3966C51.925 31.3926 51.9838 31.396 52.0077 31.4067C52.0653 31.3808 52.1231 31.3608 52.1811 31.3466C52.2509 31.3319 52.3265 31.3169 52.4079 31.3017L52.6004 31.276L52.6781 31.4486C52.6923 31.5067 52.7533 31.5627 52.8612 31.6168C53.0139 31.622 53.1266 31.6524 53.1993 31.708C53.2716 31.7518 53.3382 31.8018 53.3992 31.8578C53.448 31.9027 53.4964 31.9358 53.5442 31.9572L53.8121 32.0514L53.6828 32.3208C53.5747 32.5365 53.4136 32.7486 53.1996 32.9571C52.9968 33.1534 52.7635 33.3217 52.4997 33.4619C52.5144 33.5317 52.5232 33.6017 52.5262 33.6719C52.5404 33.73 52.5607 33.7936 52.5871 33.8629C52.6307 34.0604 52.6687 34.2641 52.701 34.4738C52.7334 34.6836 52.7426 34.9002 52.7286 35.1236L52.6965 35.1954ZM47.4919 32.3727C47.8422 32.3344 48.1573 32.2975 48.4373 32.2622C48.7285 32.2146 49.0482 32.1483 49.3965 32.0631C49.2996 31.7153 49.1964 31.3561 49.0868 30.9854C48.9767 30.603 48.861 30.2267 48.7398 29.8565L48.6418 30.0366C48.4181 30.2925 48.2015 30.5773 47.992 30.8912C47.7942 31.2045 47.6249 31.4991 47.4841 31.7749C47.4183 31.8832 47.3526 31.9916 47.2868 32.0999C47.221 32.2083 47.1611 32.3164 47.107 32.4243C47.1768 32.4096 47.2409 32.401 47.2995 32.3985C47.3697 32.3955 47.4339 32.3869 47.4919 32.3727ZM61.2257 36.3461C61.0389 36.3657 60.8044 36.3698 60.5225 36.3583C60.2522 36.3464 60.0022 36.398 59.7725 36.5134C59.151 36.5163 58.5155 36.4671 57.8661 36.3656C57.2167 36.2642 56.6187 36.1313 56.0721 35.9668C55.9496 35.843 55.8275 35.7309 55.706 35.6305C55.5839 35.5184 55.4224 35.4431 55.2213 35.4048C54.9309 35.1943 54.6911 34.9347 54.5021 34.626C54.3125 34.3056 54.1574 33.9662 54.0366 33.6077C53.9158 33.2493 53.8299 32.8834 53.7788 32.5103C53.7273 32.1254 53.6999 31.7571 53.6967 31.4053C53.8499 30.871 54.0766 30.4098 54.3768 30.0217C54.6883 29.6214 55.0058 29.2267 55.3294 28.8376C55.4786 28.7609 55.5869 28.6859 55.6541 28.6127C55.7326 28.5273 55.8116 28.4535 55.891 28.3915C55.9817 28.3173 56.0668 28.2492 56.1463 28.1871C56.2369 28.1129 56.3154 28.0275 56.3817 27.9308C56.6251 27.8618 56.8323 27.7709 57.0035 27.6581C57.1858 27.533 57.3623 27.4082 57.533 27.2837C57.7031 27.1475 57.8796 27.0227 58.0625 26.9093C58.2454 26.796 58.4585 26.7048 58.7019 26.6358C58.791 26.5265 58.8988 26.4398 59.0251 26.3758C59.1509 26.3001 59.277 26.2302 59.4033 26.1662C59.5408 26.09 59.6666 26.0143 59.7807 25.939C59.9065 25.8633 60.002 25.7654 60.0673 25.6454C60.1298 25.7365 60.2133 25.7682 60.3176 25.7403C60.4215 25.7007 60.5196 25.6613 60.6117 25.6222C60.6698 25.608 60.7171 25.6177 60.7537 25.6514C60.802 25.6845 60.8445 25.7179 60.8811 25.7515C60.9177 25.7852 60.948 25.8073 60.9719 25.818C61.0071 25.8166 61.0351 25.786 61.056 25.7265C61.1145 25.724 61.1334 25.7525 61.1124 25.8121C61.0915 25.8716 61.0757 25.9133 61.065 25.9372C61.1581 25.9216 61.2352 25.9417 61.2963 25.9978C61.3685 26.0416 61.4751 26.0664 61.6161 26.0722C61.6654 26.1287 61.6791 26.1751 61.6572 26.2112C61.6348 26.2356 61.6251 26.2829 61.628 26.3532C61.9838 26.4436 62.2134 26.6039 62.3171 26.8341C62.4202 27.0526 62.436 27.2865 62.3645 27.5359C62.2929 27.7852 62.1563 28.0198 61.9545 28.2395C61.7527 28.4592 61.5304 28.6094 61.2875 28.6901C60.732 28.8661 60.2064 29.0585 59.711 29.2673C59.2267 29.4638 58.8339 29.7444 58.5327 30.109C58.2552 30.2029 58.0082 30.3249 57.7917 30.4748C57.5865 30.6126 57.388 30.7735 57.1965 30.9575C57.0161 31.1294 56.8421 31.3128 56.6744 31.5075C56.518 31.6901 56.3498 31.8732 56.1699 32.0568C56.1886 32.2202 56.1648 32.3503 56.0985 32.4469C56.0435 32.5313 55.9887 32.6216 55.9341 32.7178C55.965 32.8924 56.0127 33.0487 56.0772 33.1868C56.1412 33.3131 56.2111 33.4391 56.2868 33.5649C57.0695 33.7663 57.8953 33.8778 58.7642 33.8995C59.6448 33.9207 60.5244 33.9186 61.403 33.893C61.4899 34.0066 61.5883 34.1138 61.6981 34.2147C61.8192 34.3034 61.9291 34.4043 62.0277 34.5174C62.1258 34.6188 62.2072 34.7385 62.2717 34.8765C62.3357 35.0028 62.3544 35.1662 62.3277 35.3668C62.1712 35.5493 61.9967 35.721 61.8042 35.8816C61.6111 36.0306 61.4183 36.1854 61.2257 36.3461ZM65.906 34.2822C65.7971 34.756 65.6952 35.1181 65.6002 35.3685C65.5165 35.6066 65.3806 35.8587 65.1925 36.1247C65.0393 36.1078 64.9347 36.1298 64.8786 36.1909C64.8226 36.2519 64.7604 36.3073 64.6922 36.3571C64.5878 36.385 64.5117 36.3883 64.4639 36.3668C64.416 36.3454 64.3738 36.3179 64.3372 36.2842C64.3011 36.2623 64.253 36.235 64.193 36.2024C64.1451 36.181 64.0685 36.1725 63.9632 36.177C63.9358 36.0843 63.9028 35.9977 63.8642 35.9173C63.8373 35.8363 63.7599 35.8103 63.6321 35.8392C63.6516 35.7445 63.6542 35.6681 63.64 35.6101C63.6253 35.5403 63.6052 35.4826 63.5798 35.4367C63.5656 35.3787 63.5517 35.3265 63.538 35.2801C63.5238 35.2221 63.5267 35.1516 63.5466 35.0687C63.4881 35.0711 63.4395 35.0322 63.4009 34.9517C63.3623 34.8712 63.3178 34.791 63.2675 34.711C63.2937 34.4988 63.3203 34.2983 63.3475 34.1094C63.3747 33.9206 63.4082 33.7433 63.4481 33.5774C63.4996 33.4109 63.5395 33.245 63.5677 33.0796C63.5958 32.9142 63.5711 32.7452 63.4933 32.5726C63.5417 32.6057 63.5765 32.5984 63.598 32.5505C63.6189 32.491 63.6335 32.42 63.6417 32.3375C63.6494 32.2434 63.6516 32.1553 63.6481 32.0734C63.6441 31.9797 63.635 31.9038 63.6208 31.8458C63.725 31.5364 63.8054 31.2222 63.8623 30.9031C63.9303 30.5718 63.9869 30.2468 64.032 29.9282C64.0888 29.6091 64.1459 29.2958 64.2032 28.9884C64.2605 28.681 64.3422 28.3961 64.4483 28.1335C64.5761 28.1046 64.7174 28.1162 64.8721 28.1683C65.038 28.2081 65.1402 28.2683 65.1788 28.3488C65.4733 28.1017 65.7307 27.8092 65.9509 27.4715C66.1706 27.122 66.3967 26.784 66.6292 26.4574C66.8616 26.1308 67.119 25.8384 67.4012 25.5801C67.6952 25.3213 68.0695 25.1587 68.5241 25.0925C68.7657 25.2582 69.031 25.4287 69.32 25.6041C69.6201 25.7673 69.8701 25.9913 70.0699 26.276C70.1655 26.3189 70.2439 26.3683 70.3049 26.4244C70.3771 26.4682 70.4613 26.5174 70.5575 26.572L70.5664 26.7827C70.7124 26.9056 70.8301 27.053 70.9195 27.2252C71.0202 27.3851 71.1098 27.5631 71.1885 27.7592C71.2667 27.9435 71.3452 28.1337 71.4239 28.3298C71.5021 28.5141 71.5918 28.6921 71.6929 28.8637C71.672 28.9233 71.6625 28.9765 71.6645 29.0233C71.666 29.0584 71.6736 29.0992 71.6873 29.1455C71.7127 29.1913 71.7322 29.2374 71.7459 29.2837C71.7596 29.3301 71.7624 29.3945 71.7541 29.4769C71.7409 29.9936 71.5888 30.4164 71.2978 30.7455C71.0185 31.0741 70.6726 31.3527 70.2601 31.5813C69.8471 31.7983 69.4035 31.9872 68.9294 32.1481C68.4554 32.309 68.0286 32.4796 67.6492 32.6599C67.6512 32.7067 67.6698 32.7294 67.7049 32.7279C67.7517 32.7259 67.7705 32.7545 67.7613 32.8135C68.0498 32.9772 68.2782 33.1082 68.4466 33.2066C68.615 33.305 68.7709 33.3864 68.9144 33.4507C69.0696 33.5145 69.2304 33.5721 69.3968 33.6237C69.5744 33.6631 69.8169 33.7114 70.1243 33.7687C70.4317 33.8261 70.6684 33.8746 70.8343 33.9145C71.0114 33.9422 71.1709 33.9706 71.3129 33.9997C71.4544 34.0172 71.5959 34.0346 71.7374 34.0521C71.8901 34.0573 72.1016 34.0659 72.3719 34.0779C72.4817 34.1788 72.575 34.3039 72.6517 34.4531C72.7397 34.5901 72.7986 34.7342 72.8284 34.8854C72.8578 35.0249 72.8697 35.1652 72.8639 35.3062C72.8577 35.4355 72.8212 35.5426 72.7544 35.6275C72.7676 35.6621 72.7918 35.6787 72.8269 35.6772C72.8732 35.6635 72.9201 35.6615 72.9674 35.6713C72.8991 35.7211 72.8431 35.7821 72.7992 35.8543C72.7554 35.9266 72.7115 35.9988 72.6677 36.0711C72.6238 36.1433 72.5736 36.2041 72.5171 36.2534C72.461 36.3144 72.3806 36.353 72.2757 36.3692C71.9187 36.5251 71.4623 36.5504 70.9066 36.445C70.3513 36.3513 69.6452 36.1584 68.7883 35.8664C68.3599 35.7204 68.0085 35.5946 67.7342 35.4889C67.4712 35.3711 67.2377 35.2578 67.0336 35.1492C66.8408 35.0284 66.6595 34.9012 66.4896 34.7677C66.3314 34.6336 66.1369 34.4718 65.906 34.2822ZM68.1615 28.1517C68.0406 28.3445 67.9015 28.5205 67.744 28.6796C67.5983 28.8383 67.4528 29.0028 67.3076 29.1732C67.1735 29.3314 67.0522 29.5125 66.9436 29.7165C66.8345 29.9088 66.7619 30.1348 66.7261 30.3943C67.1339 30.3301 67.5565 30.2007 67.9939 30.0062C68.4309 29.7999 68.8449 29.6064 69.236 29.4256C69.1738 29.0646 69.0325 28.7774 68.8123 28.5639C68.6039 28.3499 68.3869 28.2125 68.1615 28.1517ZM82.9005 30.1118C82.8948 30.2528 82.9122 30.3869 82.9528 30.5142C82.9934 30.6415 83.0398 30.7686 83.0922 30.8954C83.1557 31.01 83.2136 31.1307 83.2659 31.2575C83.3182 31.3843 83.3588 31.5116 83.3877 31.6394C83.4181 31.8023 83.4258 31.9838 83.4108 32.1838C83.3953 32.3721 83.3623 32.5612 83.3117 32.751C83.2607 32.9291 83.1915 33.0963 83.1043 33.2524C83.0166 33.3969 82.9099 33.507 82.7841 33.5827C82.6291 33.8005 82.437 33.9728 82.2079 34.0999C81.9787 34.2269 81.768 34.3766 81.576 34.549C81.4506 34.6364 81.3068 34.7011 81.1444 34.7432C80.9936 34.7848 80.8371 34.8267 80.6747 34.8688C80.5488 34.9445 80.3999 35.027 80.2277 35.1165C80.0551 35.1942 79.8766 35.2721 79.6923 35.3503C79.5074 35.4168 79.3221 35.4716 79.1362 35.5147C78.9499 35.5461 78.7862 35.5589 78.6452 35.5532C78.2995 35.6969 77.9576 35.7935 77.6195 35.8431C77.2937 35.9038 76.9063 35.8968 76.4574 35.8221C76.0384 35.8985 75.6454 35.8976 75.2785 35.8194C74.9233 35.7406 74.6009 35.6077 74.3115 35.4206C74.0332 35.2213 73.7828 34.9856 73.5601 34.7136C73.3486 34.4293 73.1718 34.1319 73.0295 33.8212C72.9075 33.1579 72.9053 32.5539 73.0229 32.0093C73.1401 31.4531 73.3177 30.9412 73.5559 30.4736C73.8053 29.9938 74.0915 29.5536 74.4147 29.1528C74.7373 28.7403 75.0487 28.34 75.3489 27.9519C75.4201 27.9723 75.4728 27.9701 75.507 27.9452C75.5523 27.908 75.5915 27.8653 75.6247 27.817C75.6573 27.757 75.6902 27.7028 75.7233 27.6545C75.7682 27.6056 75.8196 27.5741 75.8777 27.5599C75.9522 27.3808 76.0638 27.2471 76.2125 27.1586C76.3724 27.058 76.4957 26.9238 76.5824 26.7559C76.6868 26.728 76.7731 26.6891 76.8414 26.6393C76.9097 26.5895 76.9718 26.5341 77.0279 26.473C77.0956 26.4115 77.1636 26.3558 77.2319 26.306C77.2997 26.2445 77.3799 26.2 77.4726 26.1726L77.4643 25.9794C77.6711 25.8768 77.8188 25.765 77.9075 25.6439C78.0074 25.5107 78.1239 25.3532 78.2569 25.1716C78.3618 25.1554 78.4435 25.1461 78.5021 25.1436C78.5723 25.1406 78.6713 25.1247 78.7991 25.0958C78.8858 24.9279 78.9626 24.8015 79.0293 24.7166C79.1078 24.6311 79.2212 24.5383 79.3694 24.4382C79.5129 24.5025 79.6671 24.5428 79.832 24.5593C80.0086 24.5753 80.164 24.6449 80.2983 24.7682C80.315 24.8848 80.3541 24.977 80.4156 25.0447C80.4766 25.1008 80.5435 25.1566 80.6163 25.2121C80.6885 25.256 80.7551 25.3059 80.8162 25.362C80.8889 25.4176 80.9392 25.4975 80.9671 25.6019C81.0144 25.6116 81.0435 25.6045 81.0542 25.5806C81.0766 25.5562 81.1115 25.5488 81.1588 25.5586C81.2009 25.721 81.2466 25.8305 81.2959 25.887C81.3447 25.9319 81.3958 26.0294 81.4491 26.1796C81.3955 26.2992 81.3539 26.4241 81.3243 26.5544C81.3058 26.6725 81.2393 26.7633 81.1247 26.8268C81.1165 26.9092 81.1419 26.9551 81.2009 26.9643C81.2595 26.9618 81.2958 26.9896 81.31 27.0476C81.3262 27.1525 81.3119 27.2294 81.267 27.2782C81.5674 27.7229 81.8398 28.1981 82.0842 28.7038C82.328 29.1978 82.6001 29.6671 82.9005 30.1118ZM80.7761 31.8735C80.8175 31.7427 80.8715 31.6348 80.9383 31.5499C81.0168 31.4644 81.0584 31.3395 81.0631 31.1751C81.0006 31.0839 80.9625 31.0152 80.9488 30.9688C80.9346 30.9108 80.925 30.8232 80.9201 30.7062C80.6471 30.3541 80.4082 29.9772 80.2034 29.5754C79.9982 29.1619 79.7708 28.7786 79.5212 28.4256C79.4998 28.4734 79.4608 28.522 79.4042 28.5713C79.3477 28.6206 79.2828 28.6117 79.2096 28.5444C79.1901 28.639 79.1521 28.711 79.0956 28.7604C79.0385 28.798 78.9749 28.8183 78.9046 28.8213C78.8339 28.8125 78.757 28.7982 78.6741 28.7783C78.6023 28.7461 78.5362 28.7079 78.4757 28.6635C78.1476 28.9473 77.8192 29.2251 77.4906 29.4971C77.162 29.7691 76.8703 30.0806 76.6155 30.4316C76.5696 30.457 76.5408 30.47 76.5291 30.4705C76.5169 30.4592 76.4821 30.4666 76.4245 30.4925C76.3403 30.7189 76.2319 30.9288 76.0994 31.1221C75.9781 31.3032 75.857 31.4901 75.7361 31.6829C75.6153 31.8757 75.5125 32.0795 75.4278 32.2942C75.3431 32.509 75.3009 32.7571 75.3011 33.0386C75.5071 33.194 75.7455 33.2836 76.0163 33.3073C76.2871 33.331 76.5625 33.3251 76.8425 33.2898C77.1342 33.2539 77.4137 33.2069 77.681 33.1486C77.9595 33.0781 78.2158 33.0379 78.45 33.0279C78.9367 32.89 79.3518 32.7199 79.6951 32.5176C80.0379 32.3036 80.3982 32.0889 80.7761 31.8735ZM87.6601 31.9857C87.5558 32.0135 87.4824 32.0812 87.44 32.1885C87.3972 32.2842 87.3546 32.3857 87.3122 32.4931C87.2816 32.5999 87.2448 32.7012 87.202 32.7968C87.1703 32.8803 87.1135 32.9238 87.0316 32.9272C87.0238 33.0214 86.9922 33.1049 86.9366 33.1776C86.8928 33.2498 86.8492 33.3279 86.8058 33.4119C86.762 33.4841 86.7303 33.5676 86.7109 33.6622C86.691 33.7452 86.7069 33.8442 86.7587 33.9593C86.668 34.0335 86.6137 34.1355 86.5958 34.2653C86.5778 34.3951 86.5538 34.5193 86.5236 34.6378C86.5052 34.7559 86.4626 34.8574 86.3958 34.9424C86.3291 35.0273 86.2018 35.0679 86.0139 35.0642C85.9808 35.1125 85.9762 35.142 86.0001 35.1527C86.024 35.1634 86.0433 35.2037 86.058 35.2734C85.9282 35.2555 85.829 35.2656 85.7602 35.3037C85.7036 35.353 85.6288 35.3855 85.5356 35.4012C85.3102 35.3404 85.1176 35.2254 84.958 35.0562C84.81 34.8866 84.673 34.6989 84.547 34.4931C84.4321 34.2751 84.3232 34.0569 84.2201 33.8384C84.1286 33.6195 84.0385 33.4298 83.9496 33.2693C83.9792 33.139 83.9798 33.0159 83.9514 32.8998C83.9226 32.772 83.8771 32.6683 83.8151 32.5889C84.3371 31.3468 84.9082 30.0206 85.5286 28.6102C86.149 27.1998 86.735 25.8084 87.2866 24.4361C87.5604 24.53 87.829 24.6418 88.0926 24.7713C88.3673 24.8887 88.6138 25.0307 88.832 25.1974C89.0619 25.3635 89.258 25.5605 89.4201 25.7882C89.5818 26.0042 89.692 26.2517 89.7508 26.5307C89.7303 26.6019 89.7023 26.6324 89.6667 26.6222C89.6423 26.5998 89.6191 26.6066 89.5972 26.6428C89.6465 26.6993 89.6717 26.7393 89.6727 26.7627C89.6854 26.7856 89.6864 26.809 89.6756 26.833C89.6766 26.8564 89.6781 26.8915 89.6801 26.9383C89.6816 26.9735 89.7014 27.0254 89.7395 27.0941C89.6922 27.0844 89.6573 27.0918 89.6349 27.1162C89.6242 27.1401 89.5891 27.1416 89.5295 27.1207C89.5818 27.2475 89.598 27.3523 89.5781 27.4353C89.5699 27.5177 89.5497 27.5948 89.5175 27.6666C89.4849 27.7266 89.4586 27.7981 89.4387 27.8811C89.4182 27.9523 89.4281 28.0457 89.4682 28.1613C89.433 28.1628 89.4043 28.1758 89.3819 28.2002C89.3706 28.2124 89.3597 28.2304 89.349 28.2544C89.3378 28.2666 89.3209 28.2849 89.2985 28.3093C89.2873 28.3215 89.2639 28.3225 89.2283 28.3123C89.2743 28.5683 89.297 28.8254 89.2962 29.0835C89.2955 29.3416 89.2949 29.6055 89.2947 29.8753C89.3056 30.1329 89.3232 30.4078 89.3473 30.7C89.371 30.9805 89.4244 31.2714 89.5076 31.5729C89.9186 31.3091 90.2389 30.9788 90.4683 30.582C90.7095 30.1847 90.896 29.7428 91.0278 29.2563C91.1713 28.7693 91.2723 28.2489 91.3309 27.6951C91.3895 27.1413 91.4534 26.5756 91.5227 25.9979C91.6236 25.8881 91.7001 25.7558 91.7522 25.6011C91.8043 25.4464 91.8502 25.2861 91.8901 25.1202C91.9295 24.9426 91.9691 24.7709 92.009 24.6049C92.0483 24.4273 92.1002 24.2668 92.1644 24.1233C92.341 24.1393 92.4899 24.1916 92.6109 24.2803C92.7432 24.3568 92.8643 24.4454 92.9741 24.5463C93.0835 24.6355 93.1987 24.7245 93.3198 24.8132C93.4403 24.8901 93.5889 24.9366 93.7655 24.9526C93.9145 25.1456 94.0515 25.3334 94.1765 25.5157C94.3016 25.6981 94.3861 25.8939 94.4302 26.1031C94.3756 26.1993 94.3333 26.3066 94.3031 26.4252C94.2847 26.5433 94.2604 26.6616 94.2302 26.7802C94.2001 26.8988 94.158 27.012 94.1039 27.1198C94.0494 27.216 93.9709 27.3014 93.8685 27.3762C93.8463 27.6821 93.8114 27.9651 93.7638 28.2251C93.7274 28.473 93.6852 28.7211 93.6371 28.9695C93.6007 29.2173 93.5707 29.4766 93.547 29.7474C93.5228 30.0065 93.5233 30.2938 93.5484 30.6095C93.4662 30.8827 93.3789 31.1738 93.2864 31.4827C93.194 31.7916 93.1237 32.0702 93.0756 32.3186C92.8948 32.4787 92.7561 32.6664 92.6597 32.8817C92.5633 33.0969 92.461 33.3124 92.3529 33.5281C92.308 33.5769 92.2793 33.5899 92.2666 33.5669C92.2539 33.544 92.2121 33.5282 92.1414 33.5195C92.1551 33.5658 92.1566 33.6009 92.1459 33.6248C92.1352 33.6488 92.1186 33.6729 92.0962 33.6973C92.085 33.7095 92.0742 33.7335 92.064 33.7691C92.0655 33.8042 92.0792 33.8505 92.1051 33.9081C91.9442 33.9853 91.8021 34.091 91.6787 34.2253C91.5554 34.3596 91.4199 34.4826 91.2722 34.5944C91.1362 34.7058 90.9635 34.7835 90.7543 34.8276C90.5567 34.8712 90.2915 34.8414 89.9587 34.7382C89.4638 34.4074 89.0193 34.0216 88.6252 33.5809C88.2428 33.1397 87.9212 32.6079 87.6601 31.9857ZM99.7711 30.0636C99.6921 30.1373 99.6256 30.2281 99.5715 30.336C99.517 30.4321 99.4627 30.5341 99.4086 30.642C99.3555 30.7733 99.2964 30.8989 99.2311 31.019C99.1658 31.1391 99.0825 31.2482 98.9811 31.3463C98.93 31.5244 98.8774 31.6674 98.8234 31.7753C98.7688 31.8714 98.6799 31.9866 98.5566 32.1209C98.4594 32.5942 98.2059 33.1152 97.796 33.6839C97.7888 33.7898 97.7582 33.8966 97.7041 34.0045C97.6612 34.1001 97.6125 34.196 97.558 34.2922C97.5361 34.3283 97.5144 34.3703 97.493 34.4181C97.471 34.4542 97.4547 34.4842 97.444 34.5082L97.4163 34.6853C97.3618 34.7814 97.3009 34.8661 97.2336 34.9394C97.1663 35.0126 97.1047 35.0797 97.0486 35.1408C97.0267 35.1769 96.9877 35.2254 96.9316 35.2865L96.6727 35.403C95.813 35.3223 95.2726 34.8878 95.0514 34.0996L95.0615 33.9232C95.0825 33.8637 95.0976 33.8044 95.1068 33.7454C95.1272 33.6741 95.1476 33.6029 95.1681 33.5316C95.2079 33.3657 95.2537 33.1996 95.3052 33.0332C95.3685 32.8663 95.4618 32.7157 95.5851 32.5814C95.6051 32.4985 95.6523 32.3674 95.7268 32.1883C95.8008 31.9975 95.9296 31.7164 96.1132 31.345C96.2652 31.057 96.3845 30.8291 96.4712 30.6612C96.5579 30.4933 96.6286 30.3613 96.6831 30.2652C96.5581 30.0828 96.4104 29.919 96.24 29.7738C96.0753 29.4875 95.9288 29.2122 95.8002 28.9479C95.6834 28.6831 95.5913 28.4466 95.5238 28.2383C95.5056 28.0866 95.4826 27.9586 95.4547 27.8542C95.4268 27.7498 95.3986 27.6396 95.3702 27.5235C95.3297 27.3962 95.2949 27.2686 95.266 27.1408C95.2371 27.0131 95.2197 26.8789 95.2137 26.7384C95.1517 26.6589 95.1131 26.5785 95.0979 26.497L95.1256 26.3199C95.1572 26.2365 95.1586 26.1308 95.1297 26.003C95.1003 25.8635 95.0651 25.7243 95.024 25.5853C94.9956 25.4692 94.9609 25.3416 94.9198 25.2026C94.8904 25.0631 94.8786 24.9229 94.8843 24.7819C94.89 24.6409 94.9197 24.5106 94.9732 24.391C95.038 24.2593 95.1445 24.1433 95.2928 24.0432L95.5906 24.0129C95.6984 24.067 95.8004 24.1213 95.8966 24.1759C96.004 24.2182 96.1057 24.2667 96.2019 24.3212C96.3331 24.3743 96.4586 24.4276 96.5781 24.4812C96.6977 24.5348 96.8239 24.6056 96.9566 24.6938L97.09 24.9345L97.3265 25.118L97.3347 25.3112C97.3484 25.3575 97.357 25.4216 97.3605 25.5036C97.367 25.6558 97.3944 25.7485 97.4427 25.7816L97.5219 25.9894C97.5289 26.1533 97.5532 26.3106 97.5947 26.4613C97.6358 26.6003 97.6767 26.7335 97.7173 26.8608C97.7579 26.9881 97.7987 27.1212 97.8398 27.2602C97.8809 27.3992 97.8932 27.5512 97.8768 27.7161C97.9455 27.678 98.0023 27.6345 98.0472 27.5857C98.0696 27.5613 98.0923 27.5427 98.1152 27.53C98.1381 27.5173 98.1608 27.4988 98.1832 27.4744L99.1597 26.0253L99.1171 25.8512L99.471 25.4843C99.5607 25.3867 99.6447 25.2951 99.7232 25.2097C99.8134 25.1237 99.8858 25.0327 99.9403 24.9365L100.128 24.7878C100.477 24.1865 100.995 23.8009 101.679 23.6311L101.924 23.5855L102.004 23.8108C102.056 23.9376 102.155 24.0507 102.3 24.1501C102.456 24.249 102.619 24.3418 102.787 24.4285L102.949 24.5272C103.013 24.6418 103.046 24.7284 103.048 24.7869C103.051 24.8454 103.047 24.8984 103.037 24.9457L103.115 25.1184C103.033 25.4033 102.925 25.6132 102.79 25.748C102.667 25.8822 102.543 26.0048 102.418 26.1156C102.317 26.2138 102.221 26.3058 102.131 26.3917C102.052 26.4655 101.992 26.5619 101.95 26.6809L101.833 26.8267C101.593 26.9776 101.443 27.1717 101.383 27.4088L101.339 27.6218L101.128 27.6307C101.116 27.6312 101.088 27.6559 101.043 27.7047C101.01 27.7413 100.955 27.8433 100.88 28.0107C100.803 28.1313 100.748 28.2099 100.714 28.2465C100.681 28.2831 100.653 28.3136 100.63 28.3381C100.621 28.3854 100.605 28.433 100.584 28.4808C100.573 28.5164 100.558 28.564 100.537 28.6235C100.391 28.7822 100.302 28.9033 100.271 28.9867C100.239 29.0585 100.201 29.1422 100.158 29.2378C100.115 29.3335 100.073 29.4291 100.03 29.5248C99.9981 29.6082 99.9374 29.6988 99.8477 29.7964L99.7711 30.0636ZM113.687 33.7653C113.572 33.8288 113.463 33.8862 113.36 33.9375C113.268 33.9883 113.158 34.0165 113.029 34.0219C112.558 33.7018 112.293 33.1207 112.234 32.2787C112.186 31.4362 112.322 30.3572 112.642 29.0417C112.699 29.0041 112.725 28.9326 112.721 28.8272L112.555 28.6583C112.508 28.6603 112.462 28.6682 112.415 28.6819C112.381 28.6951 112.353 28.7373 112.333 28.8085C112.038 29.0439 111.714 29.2923 111.361 29.5535C111.008 29.8031 110.637 30.0418 110.248 30.2694C109.87 30.4849 109.479 30.6657 109.075 30.8119C108.682 30.9576 108.293 31.0387 107.906 31.0551C106.923 31.0969 106.164 30.6306 105.63 29.6563L105.478 29.3988L105.348 29.6331C105.315 29.6814 105.266 29.7832 105.202 29.9384C105.138 30.0819 105.075 30.2488 105.012 30.4391C104.95 30.6294 104.894 30.8253 104.844 31.0268C104.805 31.2162 104.794 31.3808 104.812 31.5208C104.711 31.6307 104.605 31.7583 104.494 31.9038C104.383 32.0493 104.302 32.2111 104.251 32.3892C104.231 32.4839 104.247 32.5712 104.297 32.6511C104.278 32.7575 104.229 32.8417 104.15 32.9037C104.105 32.9643 104.055 33.025 103.999 33.0861C103.954 33.1349 103.915 33.1893 103.883 33.2493C103.862 33.3089 103.847 33.3682 103.837 33.4272C103.84 33.4857 103.837 33.5445 103.827 33.6036C103.831 33.6855 103.822 33.7621 103.802 33.8334C103.62 34.2516 103.473 34.5218 103.361 34.6438C103.25 34.7776 103.094 34.8487 102.895 34.8572C102.802 34.8611 102.649 34.85 102.437 34.8239C102.277 34.6664 102.127 34.4499 101.987 34.1744C101.857 33.8867 101.75 33.5804 101.666 33.2555C101.594 32.9302 101.55 32.6036 101.537 32.2758C101.534 31.9358 101.58 31.6406 101.675 31.3902C101.674 31.3785 101.716 31.2594 101.8 31.033C101.885 30.8066 101.99 30.5147 102.115 30.1575C102.252 29.7998 102.406 29.4062 102.575 28.9768C102.744 28.5356 102.914 28.112 103.084 27.706C103.254 27.2882 103.414 26.9061 103.563 26.5596C103.724 26.2126 103.86 25.9488 103.97 25.7682C104.057 25.6237 104.134 25.4915 104.199 25.3714C104.275 25.2391 104.346 25.113 104.412 24.9929C104.607 24.621 104.793 24.314 104.971 24.0718C105.159 23.8175 105.438 23.6121 105.807 23.4557C106.069 23.5502 106.261 23.6651 106.384 23.8007L106.428 23.9923C106.479 24.1074 106.552 24.163 106.646 24.159C106.776 24.1887 106.883 24.2193 106.966 24.251C107.061 24.2704 107.162 24.2896 107.268 24.3085C107.354 24.3987 107.435 24.5067 107.51 24.6325C107.61 24.769 107.704 24.9058 107.792 25.0428C107.891 25.1676 107.967 25.2993 108.02 25.4378C108.084 25.5641 108.119 25.6975 108.125 25.838C108.142 25.978 108.125 26.1253 108.073 26.28L108.098 26.4549C108.161 26.5578 108.179 26.7036 108.152 26.8925C108.144 26.9749 108.142 27.063 108.145 27.1567C108.149 27.2386 108.165 27.3318 108.193 27.4362C108.41 27.5911 108.601 27.6651 108.765 27.6582C108.952 27.6502 109.12 27.602 109.269 27.5136C109.429 27.4129 109.577 27.3128 109.714 27.2132C109.804 27.1389 109.896 27.0764 109.987 27.0256C110.078 26.9631 110.171 26.924 110.264 26.9083C110.466 26.7003 110.646 26.5167 110.803 26.3576C110.973 26.1979 111.148 26.038 111.328 25.8778C111.668 25.5819 111.994 25.2631 112.308 24.9213C112.622 24.5795 112.868 24.1586 113.046 23.6584C113.16 23.5831 113.282 23.5428 113.411 23.5373C113.539 23.5318 113.675 23.5554 113.818 23.608C113.961 23.6605 114.098 23.7134 114.23 23.7664C114.266 23.7883 114.296 23.8047 114.32 23.8154C114.355 23.8256 114.385 23.8361 114.409 23.8468C114.414 23.9639 114.465 24.0614 114.562 24.1394C114.611 24.1725 114.641 24.1947 114.653 24.2059C114.665 24.2171 114.683 24.2281 114.707 24.2388C114.887 24.325 115.002 24.4139 115.053 24.5056C115.146 24.7714 115.301 24.9701 115.518 25.1016C115.5 25.2197 115.504 25.3309 115.532 25.4353C115.571 25.5275 115.617 25.6252 115.668 25.7286C115.681 25.7633 115.694 25.7979 115.707 25.8325C115.721 25.8671 115.74 25.9074 115.765 25.9532L115.43 25.9323L115.497 26.2637C115.527 26.4266 115.518 26.6088 115.467 26.8104C115.429 27.0114 115.377 27.172 115.312 27.292C115.337 27.5959 115.353 27.8357 115.36 28.0113C115.379 28.1747 115.38 28.3331 115.363 28.4863C115.345 28.6277 115.316 28.7639 115.275 28.8947C115.245 29.0249 115.198 29.1677 115.134 29.3229C115.213 30.0702 115.154 30.7589 114.958 31.3889C114.773 32.0066 114.575 32.5898 114.364 33.1383C114.343 33.1978 114.316 33.2576 114.284 33.3177C114.263 33.3772 114.242 33.4367 114.221 33.4963C114.117 33.5359 114.025 33.5808 113.945 33.6311C113.865 33.6698 113.779 33.7145 113.687 33.7653Z" fill="#7856FF"/>
<path d="M55 43.7253C55.9514 44.0821 56.2915 47.1373 56.8133 47.9967C57.3945 48.954 58.0822 49.8647 58.6266 50.8173C59.1764 51.7795 60.0089 48.1769 60.0974 47.5131C60.3096 45.921 61.0311 44.4902 61.5279 43" stroke="#7856FF" stroke-width="2" stroke-linecap="round"/>
</svg>
