<svg width="40" height="41" viewBox="0 0 40 41" fill="none" xmlns="http://www.w3.org/2000/svg">
<path d="M26.6516 8.09308C24.3371 6.82945 21.7222 6.25395 19.0949 6.4166C16.4676 6.59175 13.9404 7.50505 11.8135 9.0564C9.64906 10.6203 7.98506 12.7723 7.02171 15.2619C6.52126 16.5505 6.20849 17.9018 6.1084 19.278H9.56149C9.79915 16.7133 10.9752 14.3235 12.8644 12.5721C14.7536 10.8205 17.2182 9.81957 19.7955 9.78207C22.4354 9.73207 25.0001 10.6829 26.9769 12.4469C28.9411 14.211 30.1797 16.6506 30.4299 19.278H33.8705C33.6452 15.5121 31.5309 10.7705 26.6516 8.09308ZM20.9716 16.8759C20.7464 17.151 20.4461 17.3388 20.0957 17.4388C19.758 17.5389 19.3951 17.5264 19.0574 17.4013C18.8071 17.3388 18.5819 17.2136 18.3942 17.026C18.2066 16.8508 18.069 16.6256 17.9939 16.3879C17.9189 16.1503 17.9064 15.8875 17.9564 15.6373C18.0064 15.3871 18.1191 15.1493 18.2816 14.9616C18.5819 14.6364 18.9949 14.4236 19.4452 14.3861C19.8956 14.3486 20.3335 14.4738 20.6839 14.749C20.7964 14.8365 20.8965 14.9366 20.9966 15.0368C21.1216 14.9491 21.2469 14.849 21.3969 14.749C21.2344 14.5113 21.0216 14.311 20.7714 14.1735C20.3085 13.9233 19.783 13.8231 19.2576 13.8983C18.9824 13.9233 18.7071 14.0108 18.4569 14.1359C18.2066 14.2735 17.9939 14.4488 17.8187 14.6614C17.6436 14.874 17.5185 15.1118 17.4434 15.3745C17.3684 15.6373 17.3559 15.9125 17.3934 16.1753C17.4309 16.513 17.5561 16.8508 17.7562 17.126C17.9564 17.4013 18.2316 17.6265 18.5444 17.7641C18.9197 17.9393 19.3451 18.0018 19.758 17.9644C20.2584 17.9518 20.7464 17.7516 21.1341 17.4263C21.2344 17.3388 21.3094 17.2386 21.4094 17.151L20.9841 16.8508C20.9841 16.8508 20.9841 16.8633 20.9716 16.8759ZM24.1369 17.9018H24.7374L25.3629 16.6506H27.0269L27.665 17.9018H28.253C27.5649 16.513 26.8894 15.1368 26.2011 13.7605C25.5131 15.1368 24.825 16.513 24.1369 17.9018ZM25.6256 16.1378C25.8134 15.7498 26.0135 15.3745 26.2011 14.9866C26.4014 15.3745 26.589 15.7624 26.7766 16.1378H25.6256ZM11.7759 17.9018H12.3765C12.5891 17.4889 12.8019 17.0635 13.002 16.6506H14.666C14.8786 17.0635 15.0914 17.4889 15.3041 17.9018H15.8921L13.8402 13.748C13.1521 15.1368 12.464 16.513 11.7759 17.9018ZM13.2522 16.1378C13.4399 15.7498 13.6401 15.3745 13.8402 14.9741C14.0404 15.3745 14.2281 15.7498 14.4157 16.1378H13.2522ZM24.6249 15.6123C24.7124 15.4746 24.7749 15.312 24.7874 15.1493C24.7999 14.9866 24.7749 14.8115 24.7124 14.6614C24.6499 14.5113 24.5497 14.3736 24.4246 14.261C24.2995 14.1484 24.1494 14.0734 23.9867 14.0358C23.7991 13.9858 23.5989 13.9608 23.3987 13.9733C22.9984 13.9608 22.598 13.9733 22.1851 13.9733C22.1601 13.9733 22.1351 13.9733 22.1226 13.9733V17.9018H22.6481V16.1378C22.7856 16.1378 22.9107 16.1378 23.0359 16.1378C23.2861 16.1251 23.5489 16.1251 23.7991 16.1001C23.9617 16.0876 24.1244 16.0376 24.2745 15.9625C24.4121 15.8625 24.5372 15.7498 24.6249 15.6123ZM24.1994 15.2369C24.1619 15.3495 24.0869 15.4371 23.9867 15.4996C23.8866 15.5621 23.7741 15.5998 23.6614 15.5998C23.3361 15.6123 22.9984 15.5998 22.6606 15.5998V14.4488C23.0109 14.4613 23.3486 14.4613 23.6865 14.4738C23.7741 14.4738 23.8616 14.4988 23.9366 14.5363C24.0117 14.5738 24.0869 14.6364 24.1369 14.7114C24.1869 14.7865 24.2119 14.874 24.2244 14.9616C24.2369 15.0618 24.2244 15.1618 24.1994 15.2369ZM16.2049 17.8893H16.7429V13.9608H16.2049V17.8893Z" fill="#9F9F9F"/>
<path d="M20.1675 30.7709C17.9405 30.8334 15.7386 30.1579 13.937 28.8566C11.5599 27.1551 10.1336 24.8531 9.62067 21.9756H6.14258C6.86823 28.8316 12.9861 34.7494 20.8431 34.2615C28.087 33.8236 33.204 28.0185 33.7921 21.9756H30.314C29.9261 24.4027 28.6875 26.6047 26.8359 28.2061C24.9843 29.8201 22.6196 30.7209 20.1675 30.7709ZM18.8539 26.93C19.1291 27.0426 19.4294 27.1051 19.7296 27.0926C20.0299 27.0926 20.3301 27.0176 20.6054 26.8925C20.8556 26.7924 21.0809 26.6173 21.2685 26.4171C21.4436 26.2044 21.5813 25.9541 21.6439 25.6914C21.7564 25.266 21.7564 24.8281 21.6188 24.4027C21.5563 24.1776 21.4436 23.9649 21.2935 23.7773C21.1434 23.5896 20.9556 23.4394 20.743 23.3394C20.4303 23.1766 20.0799 23.1016 19.7296 23.1141C19.6545 23.1141 19.5795 23.1141 19.5044 23.1141C19.4544 23.1141 19.4169 23.1266 19.3668 23.1266C19.079 23.1516 18.7913 23.2643 18.5411 23.4269C18.2909 23.5896 18.0906 23.8148 17.953 24.065C17.7529 24.4278 17.6778 24.8406 17.7029 25.241C17.7529 26.0291 18.1156 26.6173 18.8539 26.93ZM19.1916 23.8147C19.4419 23.7146 19.7296 23.6896 19.9924 23.7396C20.2551 23.8023 20.5053 23.9399 20.6804 24.1526C20.9056 24.4529 21.0183 24.8156 20.9933 25.191C20.9681 25.5664 20.8056 25.9166 20.5304 26.1794C19.9424 26.7049 18.7036 26.5921 18.441 25.4661C18.4159 25.3536 18.4034 25.241 18.4034 25.191C18.3784 24.5529 18.6786 24.0274 19.1916 23.8147ZM15.9013 26.4671C15.7511 26.4671 15.5884 26.4421 15.4509 26.367C15.3131 26.2919 15.2006 26.1919 15.113 26.0668C14.9504 26.2419 14.7878 26.4171 14.6251 26.5921C14.7501 26.7424 14.9129 26.8549 15.088 26.93C15.4384 27.0801 15.8136 27.1176 16.189 27.0551C16.802 26.955 17.2024 26.5546 17.2399 25.9666C17.2649 25.7665 17.2274 25.5538 17.1274 25.3786C17.0273 25.2035 16.8771 25.0534 16.6894 24.9658C16.5268 24.8906 16.3516 24.8281 16.189 24.7656C16.0014 24.703 15.8136 24.6154 15.626 24.5279C15.5384 24.4779 15.4759 24.4028 15.4509 24.3151C15.4259 24.2276 15.4259 24.1275 15.4634 24.0399C15.4884 23.9774 15.5259 23.9149 15.5759 23.8648C15.626 23.8148 15.6885 23.7897 15.7511 23.7646C15.9138 23.7021 16.1014 23.6896 16.2766 23.7396C16.4516 23.7898 16.6019 23.8774 16.7144 24.0149C16.8771 23.8398 17.0398 23.6771 17.2024 23.502C17.1649 23.4644 17.1399 23.4394 17.1023 23.4269C16.802 23.2143 16.4391 23.1016 16.0764 23.1141C15.7636 23.1141 15.4509 23.2016 15.1756 23.3644C14.5625 23.7396 14.5 24.8281 15.2756 25.1784C15.4634 25.266 15.6635 25.3161 15.8511 25.3911C16.0139 25.4536 16.1765 25.5288 16.3266 25.6164C16.3766 25.6539 16.4266 25.7039 16.4516 25.7665C16.4893 25.829 16.5018 25.8916 16.5018 25.9541C16.5018 26.0166 16.4893 26.0917 16.4643 26.1544C16.4391 26.2169 16.3891 26.2669 16.3391 26.317C16.2515 26.4171 16.0764 26.4671 15.9013 26.4671ZM22.6196 26.4921C23.2453 27.1051 23.9834 27.2178 24.7966 26.9675C25.0969 26.8674 25.3471 26.6673 25.5223 26.4171L24.9593 26.0166C24.9343 26.0418 24.9216 26.0542 24.9091 26.0792C24.3586 26.7424 23.4829 26.4921 23.1201 26.0291C22.995 25.8666 22.9074 25.6789 22.8574 25.4661C22.8074 25.266 22.7949 25.0534 22.8324 24.8406C22.8699 24.5279 23.02 24.2401 23.2578 24.0274C23.6331 23.6896 24.3838 23.527 24.8716 24.065C24.8841 24.0775 24.8966 24.09 24.9091 24.09L25.4346 23.7021C25.297 23.527 25.1219 23.3894 24.9216 23.2893C24.5589 23.1141 24.146 23.0641 23.7581 23.1266C23.5079 23.1516 23.2703 23.2392 23.0576 23.3644C22.8449 23.4895 22.6571 23.6521 22.5071 23.8523C22.2194 24.2526 22.0816 24.7406 22.1193 25.2285C22.1066 25.7039 22.2944 26.1544 22.6196 26.4921ZM21.2059 27.8934C21.1184 27.9684 21.0683 28.081 21.0558 28.1936C21.0433 28.3063 21.0683 28.4189 21.1434 28.5189C21.1809 28.5689 21.2309 28.6065 21.2935 28.644C21.3561 28.669 21.4186 28.6941 21.4811 28.6941C21.5438 28.7066 21.6063 28.6941 21.6689 28.6691C21.7314 28.644 21.7814 28.6065 21.8189 28.5564C21.8315 28.7816 21.7939 28.9068 21.6689 28.9569C21.5813 28.9944 21.4936 29.0069 21.4061 28.9819C21.3185 28.9569 21.2309 28.9067 21.1809 28.8441C21.1434 28.8817 21.1059 28.9193 21.0809 28.9694C21.1559 29.0444 21.2434 29.0944 21.3435 29.1194C21.4436 29.1445 21.5438 29.1445 21.6439 29.1194C21.7189 29.1069 21.7939 29.0694 21.844 29.0194C21.9065 28.9694 21.9441 28.8942 21.9566 28.8191C21.9691 28.7566 21.9816 28.6941 21.9816 28.6315C21.9816 28.3813 21.9816 28.1436 21.9816 27.8934C21.9816 27.8684 21.9816 27.8434 21.9816 27.8309H21.844C21.844 27.8684 21.844 27.9059 21.8315 27.9559C21.7564 27.8684 21.6564 27.8182 21.5311 27.8057C21.4061 27.7933 21.2935 27.8309 21.2059 27.8934ZM21.8189 28.2436C21.8189 28.2811 21.8189 28.3312 21.7939 28.3687C21.7814 28.4064 21.7564 28.4439 21.7314 28.4689C21.7064 28.4939 21.6689 28.5189 21.6313 28.5439C21.5938 28.5564 21.5563 28.5689 21.5061 28.5689C21.4311 28.5689 21.3561 28.5314 21.2935 28.4814C21.2434 28.4189 21.2059 28.3438 21.2059 28.2686C21.2059 28.2311 21.2059 28.1936 21.2184 28.1561C21.2309 28.1186 21.2559 28.081 21.281 28.056C21.306 28.031 21.3435 28.0059 21.3811 27.9934C21.4186 27.9809 21.4561 27.9684 21.4936 27.9684C21.5311 27.9684 21.5688 27.9809 21.6063 27.9934C21.6439 28.0059 21.6814 28.031 21.7064 28.056C21.7314 28.081 21.7564 28.1186 21.7689 28.1561C21.8064 28.1561 21.8189 28.1936 21.8189 28.2436ZM17.0398 27.8183H16.9021V29.0944H17.0398V28.5564C17.2649 28.7441 17.4901 28.7566 17.6653 28.594C17.7404 28.5189 17.7904 28.4064 17.8029 28.2937C17.8154 28.1811 17.7779 28.0685 17.7154 27.9809C17.6528 27.8934 17.5651 27.8434 17.4651 27.8183C17.39 27.7933 17.315 27.8058 17.2399 27.8183C17.1649 27.8309 17.1023 27.8809 17.0398 27.9434C17.0398 27.8934 17.0398 27.8559 17.0398 27.8183ZM17.3525 27.9309C17.39 27.9309 17.4401 27.9434 17.4776 27.9559C17.5151 27.9684 17.5526 27.9934 17.5776 28.031C17.6028 28.056 17.6278 28.0935 17.6403 28.1311C17.6528 28.1686 17.6653 28.2061 17.6528 28.2561C17.6528 28.2936 17.6528 28.3312 17.6403 28.3687C17.6278 28.4064 17.6028 28.4439 17.5776 28.4689C17.5526 28.4939 17.5151 28.5189 17.4776 28.5439C17.4401 28.5564 17.4026 28.5689 17.365 28.5689C17.3275 28.5689 17.2774 28.5564 17.2399 28.5439C17.2024 28.5314 17.1649 28.5064 17.1399 28.4814C17.1149 28.4564 17.0898 28.4189 17.0773 28.3812C17.0648 28.3437 17.0523 28.3063 17.0523 28.2561C17.0523 28.2186 17.0523 28.1686 17.0773 28.1311C17.0898 28.0935 17.1149 28.056 17.1399 28.031C17.1649 28.0059 17.2024 27.9809 17.2399 27.9559C17.2649 27.9434 17.3024 27.9309 17.3525 27.9309ZM19.3794 28.2436C19.3794 28.3062 19.3919 28.3687 19.4044 28.4189C19.4294 28.4814 19.4669 28.5314 19.5044 28.5689C19.5544 28.6065 19.6045 28.644 19.6545 28.6691C19.7171 28.6941 19.7671 28.6941 19.8296 28.6941C19.8923 28.6941 19.9549 28.6941 20.0049 28.6691C20.0674 28.644 20.1174 28.619 20.155 28.5689C20.1925 28.5189 20.2301 28.4814 20.2551 28.4189C20.2801 28.3562 20.2926 28.3062 20.2801 28.2436C20.2801 28.1811 20.2801 28.1186 20.2551 28.0685C20.2301 28.0059 20.205 27.9559 20.155 27.9184C20.1174 27.8809 20.0549 27.8434 20.0049 27.8183C19.9424 27.7933 19.8923 27.7932 19.8296 27.7932C19.7671 27.7932 19.7046 27.7933 19.6545 27.8183C19.592 27.8434 19.5419 27.8684 19.5044 27.9184C19.4544 27.9559 19.4294 28.0059 19.4044 28.0685C19.3919 28.1186 19.3794 28.1811 19.3794 28.2436ZM20.1425 28.2436C20.1425 28.2811 20.1425 28.3312 20.13 28.3687C20.1174 28.4064 20.0924 28.4439 20.0674 28.4689C20.0424 28.4939 20.0049 28.5189 19.9674 28.5439C19.9298 28.5564 19.8923 28.5689 19.8421 28.5689C19.8046 28.5689 19.7671 28.5564 19.7296 28.5439C19.6921 28.5314 19.6545 28.5064 19.6295 28.4814C19.6045 28.4564 19.5795 28.4189 19.567 28.3812C19.5544 28.3437 19.5419 28.3063 19.5419 28.2686C19.5419 28.2311 19.5419 28.1811 19.5544 28.1436C19.567 28.1061 19.592 28.0685 19.617 28.0435C19.642 28.0185 19.6796 27.9934 19.7171 27.9684C19.7546 27.9559 19.7921 27.9434 19.8421 27.9434C19.8798 27.9434 19.9298 27.9559 19.9674 27.9684C20.0049 27.9809 20.0424 28.0059 20.0674 28.0435C20.0924 28.0685 20.1174 28.1061 20.13 28.1436C20.1425 28.1686 20.1425 28.2061 20.1425 28.2436ZM23.583 28.2436C23.583 28.3062 23.5955 28.3687 23.6206 28.4189C23.6456 28.4814 23.6831 28.5314 23.7206 28.5689C23.7706 28.6065 23.8208 28.644 23.8708 28.6691C23.9334 28.6941 23.9834 28.6941 24.0459 28.6941C24.1085 28.6941 24.171 28.6816 24.2211 28.6691C24.2836 28.644 24.3336 28.619 24.3713 28.5689C24.4088 28.5314 24.4463 28.4689 24.4714 28.4189C24.4964 28.3562 24.4964 28.3062 24.4964 28.2436C24.4964 28.1811 24.4839 28.1186 24.4714 28.0685C24.4463 28.0185 24.4213 27.9559 24.3713 27.9184C24.3211 27.8809 24.2711 27.8434 24.2211 27.8183C24.1585 27.7933 24.1085 27.7932 24.0459 27.7932C23.9834 27.7932 23.9209 27.7933 23.8708 27.8183C23.8083 27.8434 23.7581 27.8684 23.7206 27.9184C23.6706 27.9559 23.6456 28.0059 23.6206 28.0685C23.5955 28.1311 23.583 28.1811 23.583 28.2436ZM24.3461 28.2561C24.3461 28.2936 24.3461 28.3312 24.3336 28.3687C24.3211 28.4064 24.2961 28.4439 24.2711 28.4689C24.2461 28.4939 24.2086 28.5189 24.171 28.5314C24.1335 28.5439 24.096 28.5564 24.0584 28.5564C24.0209 28.5564 23.9709 28.5439 23.9334 28.5314C23.8959 28.5189 23.8583 28.4939 23.8333 28.4564C23.8083 28.4314 23.7831 28.3939 23.7706 28.3562C23.7581 28.3187 23.7456 28.2811 23.7456 28.2311C23.7456 28.1936 23.7456 28.1436 23.7706 28.1061C23.7956 28.0685 23.8083 28.031 23.8333 28.0059C23.8583 27.9809 23.8959 27.9559 23.9334 27.9309C23.9709 27.9184 24.0084 27.9059 24.0584 27.9059C24.096 27.9059 24.146 27.9184 24.1836 27.9309C24.2211 27.9434 24.2586 27.9684 24.2836 28.0059C24.3086 28.031 24.3336 28.0685 24.3461 28.1061C24.3336 28.1686 24.3461 28.2061 24.3461 28.2561ZM14.8253 28.6816C14.9004 28.7066 14.9754 28.7066 15.0505 28.6816C15.1255 28.6565 15.1881 28.619 15.2381 28.5564C15.2381 28.6065 15.2506 28.6315 15.2506 28.6565H15.3758C15.3758 28.4814 15.3758 28.3062 15.3758 28.1311C15.3758 27.9434 15.3131 27.8434 15.1881 27.8057C15.0254 27.7557 14.7628 27.7932 14.6876 27.9309C14.7126 27.9559 14.7376 27.9809 14.7628 28.0059C15.0505 27.8559 15.2256 27.9059 15.2256 28.1311C15.1881 28.1311 15.1381 28.1311 15.1005 28.1311C15.0004 28.1436 14.8879 28.1561 14.7878 28.1936C14.7376 28.2061 14.6876 28.2436 14.6626 28.2937C14.6376 28.3438 14.6251 28.4064 14.6376 28.4564C14.6376 28.5064 14.6626 28.5564 14.7001 28.594C14.7251 28.644 14.7753 28.6691 14.8253 28.6816ZM14.9004 28.2937C15.0004 28.2811 15.113 28.2686 15.2131 28.2561C15.2256 28.4689 15.1255 28.594 14.9379 28.5815C14.9004 28.5815 14.8629 28.5689 14.8378 28.5564C14.8128 28.5314 14.7878 28.5064 14.7878 28.4689C14.7878 28.4564 14.7878 28.4314 14.7878 28.4189C14.7878 28.4064 14.8003 28.3812 14.8128 28.3687C14.8253 28.3562 14.8378 28.3438 14.8503 28.3313C14.8629 28.3063 14.8879 28.2937 14.9004 28.2937ZM18.4284 28.1436C18.3284 28.1561 18.2158 28.1686 18.1156 28.2061C18.0656 28.2186 18.0156 28.2561 17.9906 28.3063C17.9656 28.3563 17.953 28.4064 17.9656 28.4689C17.9656 28.5189 17.9906 28.5689 18.0281 28.6065C18.0656 28.644 18.1031 28.6691 18.1658 28.6816C18.2408 28.7066 18.3159 28.7066 18.3909 28.6941C18.466 28.669 18.5286 28.6315 18.5786 28.5689C18.5911 28.6065 18.5911 28.644 18.6036 28.6691H18.7288C18.7288 28.4814 18.7288 28.3062 18.7288 28.1186C18.7288 28.056 18.7288 28.0059 18.6911 27.9434C18.6536 27.8809 18.6161 27.8434 18.5661 27.8183C18.4785 27.7808 18.3784 27.7682 18.2909 27.7932C18.1908 27.8057 18.1031 27.8559 18.0406 27.9184L18.1156 28.0185C18.1658 27.9684 18.2283 27.9434 18.3034 27.9309C18.3784 27.9184 18.441 27.9309 18.5035 27.9559C18.5286 27.9684 18.5536 28.0059 18.5786 28.031C18.5911 28.0685 18.5911 28.0935 18.5911 28.1311C18.5035 28.1436 18.466 28.1436 18.4284 28.1436ZM18.2534 28.5689C18.2158 28.5689 18.1908 28.5564 18.1658 28.5314C18.1406 28.5064 18.1281 28.4814 18.1156 28.4439C18.1031 28.4064 18.1156 28.3812 18.1281 28.3562C18.1406 28.3312 18.1783 28.3063 18.2033 28.3063C18.3159 28.2811 18.4284 28.2811 18.5411 28.2561C18.5661 28.4814 18.441 28.594 18.2534 28.5689ZM23.1826 28.5564C23.1326 28.5689 23.0701 28.5689 23.02 28.5564C22.97 28.5439 22.9199 28.5064 22.8949 28.4564C22.8574 28.4939 22.8199 28.5189 22.7824 28.5439C22.8324 28.619 22.9074 28.669 22.9825 28.6941C23.0701 28.7191 23.1576 28.7191 23.2326 28.6941C23.2953 28.6816 23.3579 28.6565 23.3954 28.6065C23.4329 28.5564 23.4579 28.4939 23.4579 28.4314C23.4579 28.3062 23.3829 28.2311 23.2453 28.1936C23.1826 28.1811 23.1201 28.1686 23.0576 28.1436C23.02 28.1311 22.97 28.081 22.9825 28.056C22.995 28.031 23.0075 28.0185 23.02 27.9934C23.0325 27.9809 23.0576 27.9684 23.0826 27.9559C23.1326 27.9434 23.1826 27.9434 23.2201 27.9559C23.2703 27.9684 23.3078 28.0059 23.3329 28.0435C23.3704 28.0185 23.4079 27.9934 23.4454 27.9684C23.3579 27.7682 23.0325 27.7683 22.9074 27.8934C22.8824 27.9184 22.8574 27.9559 22.8449 27.9934C22.8324 28.031 22.8324 28.0685 22.8449 28.1061C22.8574 28.1436 22.8699 28.1811 22.8949 28.2061C22.9199 28.2311 22.9575 28.2561 22.9825 28.2686C23.0576 28.2938 23.1451 28.3188 23.2201 28.3313C23.2828 28.3438 23.3329 28.3812 23.3203 28.4439C23.3078 28.4689 23.2953 28.4939 23.2828 28.5064C23.2326 28.5314 23.2076 28.5439 23.1826 28.5564ZM25.3221 28.031C25.3596 27.9934 25.3971 27.9684 25.4346 27.9309C25.3471 27.8434 25.222 27.7932 25.0969 27.7932C24.9718 27.7932 24.8466 27.8434 24.7591 27.9309C24.684 28.031 24.6464 28.1561 24.6464 28.2811C24.659 28.4064 24.709 28.5189 24.8091 28.6065C24.8966 28.6691 25.0093 28.7066 25.1219 28.6941C25.2345 28.6816 25.3346 28.6315 25.4096 28.5439C25.3846 28.5189 25.3471 28.4814 25.3095 28.4564C25.2845 28.4814 25.2595 28.5064 25.222 28.5314C25.1844 28.5439 25.1469 28.5564 25.1094 28.5564C25.0719 28.5564 25.0344 28.5564 24.9968 28.5439C24.9593 28.5314 24.9216 28.5064 24.8966 28.4814C24.8341 28.4189 24.8091 28.3438 24.7966 28.2561C24.7966 28.1686 24.8091 28.0935 24.8591 28.0185C24.8841 27.9809 24.9216 27.9559 24.9593 27.9434C24.9968 27.9309 25.0344 27.9184 25.0844 27.9184C25.1219 27.9184 25.1719 27.9309 25.2094 27.9434C25.2595 27.9809 25.297 28.0059 25.3221 28.031ZM16.3641 27.9434C16.4141 27.9309 16.4643 27.9309 16.5143 27.9434C16.5644 27.9559 16.6019 27.9934 16.6394 28.031C16.6769 27.9934 16.7144 27.9559 16.752 27.9309C16.6644 27.8434 16.5519 27.7932 16.4391 27.7932C16.3141 27.7932 16.2015 27.8309 16.1139 27.9184C16.0264 28.0059 15.9889 28.1311 15.9889 28.2561C15.9889 28.3812 16.0389 28.4939 16.1264 28.594C16.214 28.669 16.3266 28.7066 16.4391 28.7066C16.5519 28.7066 16.6644 28.6565 16.752 28.5815L16.6644 28.4689C16.5018 28.594 16.3516 28.6065 16.239 28.4939C16.189 28.4314 16.1514 28.3563 16.1514 28.2811C16.1514 28.2061 16.1639 28.1186 16.214 28.056C16.2515 27.9934 16.3141 27.9559 16.3641 27.9434ZM22.7448 27.3429C22.6948 27.3304 22.6696 27.3179 22.6196 27.2929C22.432 27.7683 22.2569 28.2311 22.0691 28.6941L22.1943 28.7441C22.3819 28.2811 22.5571 27.8182 22.7448 27.3429ZM20.6679 28.1311C20.6679 28.1061 20.6804 28.0685 20.693 28.0435C20.7055 28.0185 20.7305 27.9934 20.7555 27.9809C20.7805 27.9684 20.8056 27.9559 20.8431 27.9434C20.8681 27.9309 20.9056 27.9309 20.9306 27.9434C20.9431 27.9434 20.9681 27.9434 20.9808 27.9434V27.8057C20.9181 27.7933 20.8556 27.8058 20.7931 27.8183C20.7305 27.8434 20.6804 27.8809 20.6429 27.9309C20.6304 27.8809 20.6304 27.8559 20.6304 27.8309H20.5054V28.6816H20.6429C20.6429 28.619 20.6429 28.5564 20.6429 28.5064C20.6554 28.3812 20.6554 28.2561 20.6679 28.1311ZM15.6385 28.6691H15.7761V27.8183H15.6385V28.6691ZM18.9539 28.5689C18.9539 28.5815 18.9539 28.594 18.9539 28.619C18.9539 28.6315 18.9664 28.644 18.9789 28.6565C18.9914 28.669 19.004 28.6816 19.0165 28.6816C19.029 28.6816 19.0415 28.6941 19.054 28.6816C19.1166 28.6816 19.1541 28.644 19.1666 28.5689C19.1666 28.5564 19.1666 28.5439 19.1541 28.5314C19.1541 28.5189 19.1416 28.5064 19.1291 28.4939C19.1166 28.4814 19.1041 28.4814 19.0915 28.4689C19.079 28.4689 19.0665 28.4564 19.054 28.4689C19.0415 28.4689 19.029 28.4689 19.0165 28.4689C19.004 28.4689 18.9914 28.4814 18.9789 28.4939C18.9664 28.5064 18.9664 28.5189 18.9539 28.5314C18.9539 28.5439 18.9539 28.5564 18.9539 28.5689ZM15.8011 27.493C15.8011 27.4179 15.7636 27.3804 15.701 27.3804C15.6885 27.3804 15.676 27.3804 15.6635 27.3804C15.651 27.3804 15.6385 27.3929 15.626 27.4054C15.6135 27.4179 15.6135 27.4304 15.6009 27.4429C15.5884 27.4555 15.5884 27.468 15.5884 27.4805C15.5884 27.493 15.5884 27.5055 15.5884 27.518C15.5884 27.5305 15.6009 27.5431 15.6135 27.5556C15.626 27.5681 15.6385 27.5681 15.651 27.5806C15.6635 27.5806 15.676 27.5931 15.6885 27.5931C15.7011 27.5931 15.7136 27.5931 15.7261 27.5931C15.7386 27.5931 15.7511 27.5806 15.7636 27.5681C15.7761 27.5556 15.7761 27.5431 15.7886 27.5305C15.8011 27.518 15.8011 27.5055 15.8011 27.493Z" fill="#9F9F9F"/>
<path d="M35.2814 21.8041V19.5146H4.7168V21.8041H35.2814Z" fill="#404040"/>
</svg>
